<?xml version="1.0" encoding="UTF-8"?>
<svg id="Layer_2" xmlns="http://www.w3.org/2000/svg" version="1.1" viewBox="0 0 1349.5 121.3">
  <!-- Generator: Adobe Illustrator 30.1.0, SVG Export Plug-In . SVG Version: 2.1.1 Build 136)  -->
  <defs>
    <style>
      .st0 {
        fill: #fee6db;
      }
    </style>
  </defs>
  <g id="Layer_2-2">
    <g>
      <polygon class="st0" points="778 11.3 809.4 11.3 809.4 87.1 822.3 87.1 822.3 11.3 853.8 11.3 853.8 8.6 778 8.6 778 11.3"/>
      <path class="st0" d="M972.4,18.4c-7.7-6.5-19.4-9.7-35-9.7h-26.7v78.5h26.7c10.1,0,18.7-1.7,25.6-5,7-3.3,12.2-8,15.7-13.9,3.5-5.8,5.2-12.7,5.2-20.3,0-13.1-3.9-23-11.6-29.5h0ZM966.9,69.6c-2.4,5.3-6,9.1-10.8,11.4-4.8,2.3-11.1,3.5-18.7,3.5h-14V11.3h14c7.6,0,13.9,1.2,18.7,3.5,4.8,2.3,8.4,6.2,10.8,11.4,2.4,5.3,3.7,12.6,3.7,21.7s-1.2,16.3-3.7,21.7Z"/>
      <path class="st0" d="M1065.3,49.5c-4.2-1.6-9-2.8-14.5-3.5,4.4-.7,8.3-1.8,11.6-3.2,6.1-2.7,9.1-7.7,9.1-14.9s-2.2-10.4-6.4-13.2c-4.1-2.8-9-4.5-14.4-5.1-5.4-.6-12-.9-19.7-.9h-24.9v78.5h30.6c6.4,0,12.3-.3,17.6-1.1,5.4-.7,10.3-2.6,14.8-5.6,4.6-3.1,6.9-7.9,6.9-14.4s-3.6-13.8-10.6-16.6h0ZM1036.7,84.5h-17.7v-37.1h13.1c6.9,0,12.4.3,16.6,1,4,.6,7.4,2.3,10.2,5,2.7,2.6,4.1,6.9,4.1,12.7s-1.3,9.9-3.9,12.5c-2.6,2.7-5.7,4.3-9.1,5-3.6.7-8.1,1-13.3,1h0ZM1055.5,39.5c-2.3,2.4-5.1,3.9-8.5,4.5-3.5.6-8.5.9-14.9.9h-13.1V11.3h13.5c5.8,0,10.7.4,14.5,1.2,3.6.8,6.6,2.4,8.7,4.8,2.1,2.4,3.2,6,3.2,10.7s-1.1,9.2-3.4,11.6h0Z"/>
      <path class="st0" d="M1163.4,55.3c0,10.1-2.5,17.6-7.4,22.4-4.9,4.8-11.9,7.2-20.9,7.2s-12.4-1.4-16.1-4.2c-3.7-2.8-6.1-6.2-7.2-10.4-1.2-4.3-1.8-9.3-1.8-15.1V8.6h-12.7v46.7c0,10.6,2.7,18.8,7.9,24.3,5.3,5.5,14.3,8.3,26.9,8.3s20.4-2.8,25.8-8.5c5.4-5.6,8.1-13.8,8.1-24.2V8.6h-2.6v46.7h0Z"/>
      <polygon class="st0" points="1346.2 8.6 1317 54.5 1285.4 8.6 1271.3 8.6 1305.5 58.2 1305.5 87.1 1318.2 87.1 1318.2 57.7 1349.5 8.6 1346.2 8.6"/>
      <g>
        <path class="st0" d="M1250,47c4.9-3.3,7.4-8.7,7.4-16.2s-1.9-11.4-5.7-14.6c-3.7-3.2-8.1-5.3-13-6.2-4.8-.9-10.2-1.3-16-1.3h-31.8v78.5h12.7v-34.1h15.6l28.8,35.1c2.7,3.4,5.1,5.9,7.2,7.5,2.2,1.6,4.8,2.5,7.8,2.5s3.9-.3,5.8-.9l1.2-.4-36.6-44.2c6.6-.7,12.1-2.6,16.5-5.5,0,0,0,0,0,0ZM1203.7,11.3h19.1c7.2,0,12.7,1.4,16.3,4.3,3.5,2.8,5.3,7.9,5.3,15.2s-1.9,12.3-5.5,15.2c-3.7,2.9-9.1,4.4-16.1,4.4h-19.1V11.3h0Z"/>
        <path class="st0" d="M1270.1,96.8c.8.9,1.5,1.6,2.3,2.5,11.3,11.5,17.8,17.4,28,17.4,14.6,0,20.5-8.7,21-9.1-4.5,7.6-12.9,13.8-25.8,13.8s-24.9-8.5-31.3-14.6c-.5-.5-3.6-3.8-8.2-8.8-2-2.3-5.1-5.8-7.2-8.8"/>
      </g>
      <g>
        <rect class="st0" x="872.6" y="35.1" width="12.7" height="52"/>
        <path class="st0" d="M892.4,13.5c-11.3,1.2-12.3,2.2-13.5,13.5-1.2-11.3-2.2-12.3-13.5-13.5C876.8,12.3,877.7,11.3,879,0c1.2,11.3,2.2,12.3,13.5,13.5Z"/>
      </g>
    </g>
    <g>
      <polygon class="st0" points="85.3 9.1 46.4 75.2 6.7 9.1 4.5 9.1 0 87.6 2.6 87.6 5.9 30.3 40.9 89.1 47.1 78.3 47.6 77.9 47.6 77.6 75.7 29.6 79 87.6 92.1 87.6 87.6 9.1 85.3 9.1"/>
      <path class="st0" d="M149.2,8.3h-1.1l-38.2,79.5h2.9l11.8-24.5h37.5l11.8,24.5h13.9L149.7,8.7l-.5-.5ZM125.8,60.7l17.6-36.6,17.5,36.6s-35.2,0-35.1,0Z"/>
      <path class="st0" d="M267.7,18.9c-7.6-6.5-19.4-9.7-35-9.7h-26.7v78.5h26.7c10.1,0,18.7-1.7,25.6-5,7-3.3,12.2-8,15.7-13.9,3.5-5.8,5.2-12.7,5.2-20.3,0-13.1-3.9-23-11.6-29.5ZM262.2,70c-2.4,5.3-6,9.1-10.8,11.4-4.8,2.3-11.1,3.5-18.7,3.5h-14.1V11.7h14.1c7.6,0,13.9,1.2,18.7,3.5,4.8,2.3,8.4,6.2,10.8,11.4,2.4,5.3,3.6,12.6,3.6,21.7s-1.2,16.3-3.6,21.7Z"/>
      <polygon class="st0" points="314.6 48.8 353.4 48.8 353.4 46.2 314.6 46.2 314.6 11.7 361 11.7 361 9.1 301.9 9.1 301.9 87.6 362.1 87.6 362.1 85 314.6 85 314.6 48.8"/>
      <polygon class="st0" points="394.3 9.1 381.6 9.1 381.6 87.6 440.8 87.6 440.8 85 394.3 85 394.3 9.1"/>
      <polygon class="st0" points="473 48.8 511.8 48.8 511.8 46.2 473 46.2 473 11.7 519.4 11.7 519.4 9.1 460.3 9.1 460.3 87.6 520.5 87.6 520.5 85 473 85 473 48.8"/>
      <path class="st0" d="M646.6,72.7c-22.2-29.3-44.4-35.8-66.6-64.2-.2,0-.3-.2-.5-.2h-1.2v15.7c22.3,29.4,44.6,36,66.8,64.5h1.4v-15.7Z"/>
      <polygon class="st0" points="684.9 48.8 723.7 48.8 723.7 46.2 684.9 46.2 684.9 11.7 731.3 11.7 731.3 9.1 672.2 9.1 672.2 87.6 732.4 87.6 732.4 85 684.9 85 684.9 48.8"/>
      <g>
        <path class="st0" d="M559.9,14c-11.3,1.2-12.3,2.2-13.5,13.5-1.2-11.3-2.2-12.3-13.5-13.5,11.3-1.2,12.3-2.2,13.5-13.5,1.2,11.3,2.2,12.3,13.5,13.5Z"/>
        <rect class="st0" x="540.1" y="35.6" width="12.7" height="52"/>
      </g>
    </g>
  </g>
</svg>