<?xml version="1.0" encoding="UTF-8"?>
<svg id="Layer_2" data-name="Layer 2" xmlns="http://www.w3.org/2000/svg" viewBox="0 0 732.44 323.85">
  <defs>
    <style>
      .cls-1 {
        fill: #fff4f1;
        stroke-width: 0px;
      }
    </style>
  </defs>
  <g id="Layer_1-2" data-name="Layer 1">
    <g>
      <g>
        <polygon class="cls-1" points="80.49 136.34 111.85 136.34 111.85 212.2 124.76 212.2 124.76 136.34 156.22 136.34 156.22 133.73 80.49 133.73 80.49 136.34"/>
        <path class="cls-1" d="M274.84,143.47c-7.65-6.46-19.42-9.74-34.98-9.74h-26.73s0,78.46,0,78.46h26.73c10.1,0,18.72-1.69,25.64-5.02,6.96-3.35,12.25-8.02,15.72-13.88,3.46-5.84,5.22-12.68,5.22-20.33,0-13.07-3.9-22.99-11.6-29.49ZM269.34,194.65c-2.39,5.27-6.02,9.11-10.78,11.42-4.82,2.34-11.11,3.53-18.7,3.53h-14.05v-73.26h14.05c7.57,0,13.87,1.19,18.7,3.53,4.76,2.31,8.39,6.16,10.78,11.42,2.42,5.34,3.65,12.64,3.65,21.68,0,9.04-1.23,16.33-3.65,21.68Z"/>
        <path class="cls-1" d="M367.75,174.57c-4.2-1.64-9.04-2.8-14.46-3.46,4.38-.68,8.26-1.75,11.59-3.22,6.05-2.66,9.12-7.67,9.12-14.88,0-5.9-2.16-10.35-6.41-13.21-4.12-2.77-8.97-4.49-14.42-5.13-5.36-.62-11.99-.94-19.72-.94h-24.87s0,78.46,0,78.46h30.57c6.38,0,12.28-.35,17.55-1.05,5.38-.71,10.35-2.61,14.79-5.63,4.58-3.11,6.9-7.95,6.9-14.36,0-8.24-3.58-13.83-10.63-16.59ZM339.15,209.59h-17.66v-37.08h13.06c6.86,0,12.44.33,16.58.98,4,.62,7.44,2.3,10.22,4.98,2.73,2.63,4.12,6.91,4.12,12.7,0,5.66-1.3,9.86-3.87,12.5-2.6,2.67-5.67,4.34-9.12,4.96-3.6.65-8.09.97-13.33.97ZM357.93,164.59c-2.27,2.41-5.13,3.9-8.5,4.46-3.52.57-8.52.86-14.88.86h-13.06v-33.57h13.5c5.82,0,10.69.4,14.46,1.19,3.63.76,6.55,2.36,8.68,4.77,2.11,2.38,3.18,5.99,3.18,10.72,0,5.3-1.14,9.19-3.38,11.58Z"/>
        <path class="cls-1" d="M465.88,180.42c0,10.08-2.49,17.62-7.42,22.4-4.92,4.78-11.95,7.21-20.88,7.21-7.02,0-12.43-1.4-16.09-4.16-3.66-2.76-6.1-6.25-7.24-10.39-1.18-4.26-1.78-9.33-1.78-15.06v-46.69s-12.68,0-12.68,0v46.69c0,10.63,2.66,18.82,7.91,24.33,5.26,5.52,14.32,8.32,26.93,8.32,11.74,0,20.42-2.85,25.78-8.49,5.36-5.62,8.08-13.75,8.08-24.16v-46.69s-2.6,0-2.6,0v46.69Z"/>
        <polygon class="cls-1" points="648.69 133.73 619.43 179.62 587.9 133.73 573.74 133.73 607.96 183.32 607.96 212.2 620.65 212.2 620.65 182.76 651.95 133.73 648.69 133.73"/>
        <g>
          <path class="cls-1" d="M552.44,172.1c4.91-3.26,7.4-8.72,7.4-16.23,0-6.44-1.91-11.36-5.67-14.63-3.68-3.2-8.05-5.27-12.96-6.17-4.81-.89-10.19-1.33-16-1.33h-31.78s0,78.46,0,78.46h12.69s0-34.09,0-34.09h15.61s28.78,35.08,28.78,35.08c2.67,3.41,5.09,5.94,7.18,7.5,2.19,1.64,4.79,2.47,7.75,2.47,1.98,0,3.95-.31,5.85-.91l1.22-.39-36.62-44.24c6.56-.73,12.12-2.58,16.54-5.52ZM506.13,136.34h19.09c7.22,0,12.7,1.45,16.29,4.31,3.53,2.81,5.32,7.93,5.32,15.22s-1.86,12.33-5.53,15.22c-3.74,2.93-9.14,4.42-16.08,4.42h-19.09v-39.16Z"/>
          <path class="cls-1" d="M572.52,221.86c.75.86,1.46,1.64,2.28,2.46,11.31,11.49,17.75,17.38,27.96,17.38,14.62,0,20.51-8.73,20.97-9.1-4.51,7.63-12.87,13.79-25.75,13.79-15.82,0-24.87-8.46-31.31-14.62-.46-.46-3.59-3.77-8.18-8.83-2.03-2.34-5.09-5.76-7.25-8.85"/>
        </g>
        <g>
          <rect class="cls-1" x="175.07" y="160.19" width="12.69" height="52.01"/>
          <path class="cls-1" d="M194.88,138.56c-11.28,1.21-12.26,2.19-13.47,13.47-1.21-11.28-2.19-12.26-13.47-13.47,11.28-1.21,12.26-2.19,13.47-13.47,1.21,11.28,2.19,12.26,13.47,13.47Z"/>
        </g>
      </g>
      <g>
        <polygon class="cls-1" points="85.27 8.59 46.4 74.63 6.66 8.59 4.48 8.59 0 87.05 2.61 87.05 5.89 29.74 40.94 88.56 47.12 77.75 47.6 77.4 47.6 77.1 75.74 29.02 79.03 87.05 92.05 87.05 87.57 8.59 85.27 8.59"/>
        <path class="cls-1" d="M149.23,7.71h-1.09s-38.18,79.51-38.18,79.51h2.91s11.75-24.5,11.75-24.5h37.47s11.75,24.5,11.75,24.5h13.9S149.69,8.2,149.69,8.2l-.46-.49ZM125.78,60.11l17.62-36.58,17.53,36.58h-35.15Z"/>
        <path class="cls-1" d="M267.7,18.33c-7.65-6.46-19.42-9.74-34.98-9.74h-26.73s0,78.46,0,78.46h26.73c10.1,0,18.72-1.69,25.64-5.02,6.96-3.35,12.25-8.02,15.72-13.88,3.46-5.84,5.22-12.68,5.22-20.33,0-13.07-3.9-22.99-11.6-29.49ZM262.19,69.5c-2.39,5.27-6.02,9.11-10.78,11.42-4.82,2.34-11.11,3.53-18.7,3.53h-14.05V11.19h14.05c7.57,0,13.87,1.19,18.7,3.53,4.76,2.31,8.39,6.16,10.78,11.42,2.42,5.34,3.65,12.64,3.65,21.68,0,9.04-1.23,16.33-3.65,21.68Z"/>
        <polygon class="cls-1" points="314.57 48.24 353.38 48.24 353.38 45.64 314.57 45.64 314.57 11.19 361.05 11.19 361.05 8.59 301.88 8.59 301.88 87.05 362.15 87.05 362.15 84.45 314.57 84.45 314.57 48.24"/>
        <polygon class="cls-1" points="394.29 8.59 381.61 8.59 381.61 87.05 440.77 87.05 440.77 84.45 394.29 84.45 394.29 8.59"/>
        <polygon class="cls-1" points="472.95 48.24 511.75 48.24 511.75 45.64 472.95 45.64 472.95 11.19 519.43 11.19 519.43 8.59 460.26 8.59 460.26 87.05 520.53 87.05 520.53 84.45 472.95 84.45 472.95 48.24"/>
        <path class="cls-1" d="M646.59,72.2c-22.19-29.34-44.39-35.8-66.59-64.24-.16-.08-.32-.17-.47-.25-.4,0-.81,0-1.21,0,0,5.24,0,10.49,0,15.73,22.28,29.39,44.56,35.95,66.84,64.49.48,0,.95,0,1.43,0,0-5.24,0-10.49,0-15.73Z"/>
        <polygon class="cls-1" points="684.86 48.24 723.67 48.24 723.67 45.64 684.86 45.64 684.86 11.19 731.34 11.19 731.34 8.59 672.18 8.59 672.18 87.05 732.44 87.05 732.44 84.45 684.86 84.45 684.86 48.24"/>
        <g>
          <path class="cls-1" d="M559.9,13.47c-11.28,1.21-12.26,2.19-13.47,13.47-1.21-11.28-2.19-12.26-13.47-13.47,11.28-1.21,12.26-2.19,13.47-13.47,1.21,11.28,2.19,12.26,13.47,13.47Z"/>
          <rect class="cls-1" x="540.09" y="35.1" width="12.69" height="52.01"/>
        </g>
      </g>
      <g>
        <g>
          <path class="cls-1" d="M102.3,323.23v-24.45h10c4.29,0,7.6,1.06,9.93,3.18,2.33,2.12,3.49,5.14,3.49,9.04s-1.23,6.98-3.68,9.08c-2.45,2.1-5.97,3.15-10.53,3.15h-9.21ZM111.58,321.28c3.86,0,6.79-.87,8.79-2.62,2-1.75,3-4.3,3-7.65s-.94-5.91-2.83-7.66c-1.88-1.75-4.63-2.62-8.24-2.62h-7.74v20.55h7.02Z"/>
          <path class="cls-1" d="M134.66,323.23v-24.45h18.94v1.95h-16.68v8.91h15.82v1.95h-15.82v9.69h17.23l-.45,1.95h-19.04Z"/>
          <path class="cls-1" d="M180.49,304.7c-.62-1.64-1.56-2.82-2.84-3.53-1.28-.71-3.09-1.06-5.45-1.06-2.65,0-4.68.4-6.08,1.2-1.4.8-2.11,1.95-2.11,3.46,0,1.35.5,2.37,1.49,3.07.99.7,2.68,1.22,5.05,1.56l4.38.62c2.88.41,4.97,1.16,6.28,2.26,1.31,1.1,1.97,2.64,1.97,4.62,0,2.24-.91,3.96-2.72,5.15-1.82,1.2-4.4,1.8-7.76,1.8-7.08,0-10.96-2.41-11.65-7.23h2.33c.36,1.8,1.3,3.13,2.81,3.99,1.51.86,3.68,1.28,6.51,1.28s4.73-.42,6.1-1.27,2.05-2.1,2.05-3.77c0-1.37-.5-2.43-1.51-3.17-1-.74-2.69-1.28-5.07-1.63l-3.9-.55c-3.06-.43-5.27-1.17-6.63-2.21-1.36-1.04-2.04-2.53-2.04-4.47,0-2.1.92-3.74,2.77-4.92,1.85-1.17,4.42-1.76,7.71-1.76,2.97,0,5.27.47,6.9,1.42,1.63.95,2.81,2.52,3.54,4.71l-2.16.41Z"/>
          <path class="cls-1" d="M192.13,323.23v-24.45h2.26v24.45h-2.26Z"/>
          <path class="cls-1" d="M225.63,313.06h-8.53v-1.95h10.69v9.38c-1.37,1.05-3.02,1.87-4.95,2.47s-3.92.89-5.98.89c-2.74,0-5.13-.5-7.16-1.49-2.03-.99-3.6-2.44-4.71-4.35s-1.66-4.21-1.66-6.9.52-4.85,1.56-6.8c1.04-1.95,2.55-3.46,4.54-4.54s4.33-1.61,7.02-1.61,5.03.59,6.87,1.76c1.84,1.18,3.12,2.86,3.85,5.05l-2.23.41c-.62-1.74-1.64-3.04-3.08-3.92-1.44-.88-3.27-1.32-5.48-1.32s-4.05.43-5.65,1.28-2.84,2.11-3.72,3.75c-.88,1.64-1.32,3.61-1.32,5.89,0,3.43.98,6.08,2.95,7.96,1.96,1.88,4.71,2.83,8.25,2.83,1.67,0,3.25-.19,4.76-.56,1.51-.38,2.83-.93,3.97-1.66v-6.58Z"/>
          <path class="cls-1" d="M256.9,323.23l-17.67-21.23v21.23h-2.26v-24.45h2.26l17.67,21.23v-21.23h2.26v24.45h-2.26Z"/>
          <path class="cls-1" d="M301.83,323.23l-2.74-2.6c-1.01,1.03-2.27,1.81-3.78,2.35-1.52.54-3.21.8-5.09.8-3.15,0-5.58-.59-7.28-1.76-1.7-1.18-2.55-2.86-2.55-5.05,0-1.55.54-2.94,1.61-4.16,1.07-1.22,2.81-2.35,5.21-3.37-1.23-1.21-2.1-2.24-2.59-3.08-.49-.84-.74-1.72-.74-2.64,0-1.46.6-2.65,1.82-3.58,1.21-.93,2.76-1.39,4.66-1.39s3.4.43,4.5,1.3c1.11.87,1.66,2.02,1.66,3.46,0,1.32-.45,2.45-1.34,3.37-.89.93-2.48,1.92-4.76,3l8.53,8.01c.55-.82.96-1.71,1.23-2.65.27-.95.42-2.05.45-3.3h1.99c-.05,2.92-.8,5.34-2.26,7.26l4.32,4.04h-2.84ZM288.47,310.7c-1.6.73-2.79,1.39-3.58,1.99-.79.59-1.36,1.22-1.73,1.88s-.55,1.38-.55,2.16c0,1.71.66,3.01,1.99,3.9,1.32.89,3.25,1.34,5.79,1.34,1.51,0,2.89-.22,4.14-.67s2.31-1.09,3.15-1.94l-9.21-8.66ZM289.19,308.64c1.42-.64,2.5-1.21,3.25-1.71.75-.5,1.29-1.01,1.61-1.52.32-.51.48-1.09.48-1.73,0-1-.37-1.8-1.11-2.38s-1.74-.87-3-.87c-1.39,0-2.49.3-3.29.89-.8.59-1.2,1.4-1.2,2.43,0,.78.23,1.51.7,2.21.47.7,1.32,1.59,2.55,2.69Z"/>
          <path class="cls-1" d="M324.61,323.23v-24.45h2.26v24.45h-2.26Z"/>
          <path class="cls-1" d="M337.14,323.23v-24.45h2.26v22.5h16.65l-.44,1.95h-18.46Z"/>
          <path class="cls-1" d="M363.93,323.23v-24.45h2.26v22.5h16.65l-.44,1.95h-18.46Z"/>
          <path class="cls-1" d="M408.72,298.78h2.26v14.76c0,6.87-3.65,10.31-10.96,10.31s-10.96-3.44-10.96-10.31v-14.76h2.26v14.86c0,5.48,2.9,8.22,8.7,8.22s8.7-2.74,8.7-8.22v-14.86Z"/>
          <path class="cls-1" d="M438.79,304.7c-.62-1.64-1.56-2.82-2.84-3.53-1.28-.71-3.09-1.06-5.45-1.06-2.65,0-4.68.4-6.08,1.2-1.4.8-2.11,1.95-2.11,3.46,0,1.35.5,2.37,1.49,3.07.99.7,2.68,1.22,5.05,1.56l4.38.62c2.88.41,4.97,1.16,6.28,2.26,1.31,1.1,1.97,2.64,1.97,4.62,0,2.24-.91,3.96-2.72,5.15-1.82,1.2-4.4,1.8-7.76,1.8-7.08,0-10.96-2.41-11.65-7.23h2.33c.36,1.8,1.3,3.13,2.81,3.99,1.51.86,3.68,1.28,6.51,1.28s4.73-.42,6.1-1.27,2.05-2.1,2.05-3.77c0-1.37-.5-2.43-1.51-3.17-1-.74-2.69-1.28-5.07-1.63l-3.9-.55c-3.06-.43-5.27-1.17-6.63-2.21-1.36-1.04-2.04-2.53-2.04-4.47,0-2.1.92-3.74,2.77-4.92,1.85-1.17,4.42-1.76,7.71-1.76,2.97,0,5.27.47,6.9,1.42,1.63.95,2.81,2.52,3.54,4.71l-2.16.41Z"/>
          <path class="cls-1" d="M457.39,323.23v-22.5h-10.45v-1.95h23.15v1.95h-10.45v22.5h-2.26Z"/>
          <path class="cls-1" d="M496.33,323.23l-6.1-10.62c-.39.05-.99.07-1.82.07h-8.63v10.55h-2.23v-24.45h11.23c2.97,0,5.22.59,6.75,1.76,1.53,1.18,2.29,2.92,2.29,5.22,0,1.71-.45,3.11-1.35,4.2-.9,1.08-2.22,1.83-3.96,2.24l6.4,11.03h-2.6ZM488.52,310.73c4.66,0,6.99-1.67,6.99-5,0-1.69-.56-2.95-1.68-3.77-1.12-.82-2.85-1.23-5.21-1.23h-8.84v10h8.73Z"/>
          <path class="cls-1" d="M527.64,323.23l-3.6-7.43h-14.01l-3.6,7.43h-2.43l11.88-24.45h2.36l11.88,24.45h-2.5ZM517.02,301.17l-6.1,12.67h12.19l-6.1-12.67Z"/>
          <path class="cls-1" d="M540.96,323.23v-22.5h-10.45v-1.95h23.15v1.95h-10.45v22.5h-2.26Z"/>
          <path class="cls-1" d="M561.13,323.23v-24.45h2.26v24.45h-2.26Z"/>
          <path class="cls-1" d="M599.01,311c0,2.53-.53,4.77-1.59,6.7-1.06,1.93-2.6,3.44-4.61,4.52-2.01,1.08-4.38,1.63-7.12,1.63s-4.98-.51-6.99-1.52c-2.01-1.02-3.57-2.49-4.69-4.44-1.12-1.94-1.68-4.24-1.68-6.88s.53-4.77,1.59-6.7c1.06-1.93,2.6-3.44,4.61-4.52,2.01-1.08,4.38-1.63,7.12-1.63s4.98.51,6.99,1.52c2.01,1.02,3.57,2.49,4.69,4.43,1.12,1.94,1.68,4.24,1.68,6.88ZM596.65,311c0-3.38-.97-6.03-2.91-7.96-1.94-1.93-4.64-2.89-8.08-2.89-2.21,0-4.14.42-5.79,1.27-1.64.84-2.92,2.09-3.82,3.73-.9,1.64-1.35,3.6-1.35,5.86,0,3.38.97,6.03,2.91,7.96,1.94,1.93,4.63,2.89,8.08,2.89,2.21,0,4.14-.42,5.79-1.27,1.64-.84,2.92-2.09,3.82-3.73.9-1.64,1.35-3.6,1.35-5.86Z"/>
          <path class="cls-1" d="M627.88,323.23l-17.67-21.23v21.23h-2.26v-24.45h2.26l17.67,21.23v-21.23h2.26v24.45h-2.26Z"/>
        </g>
        <rect class="cls-1" x="658.14" y="309.93" width="70.83" height="2.14"/>
        <rect class="cls-1" x="3.47" y="309.93" width="70.83" height="2.14"/>
      </g>
    </g>
  </g>
</svg>