<?xml version="1.0" encoding="UTF-8"?>
<svg id="Layer_2" data-name="Layer 2" xmlns="http://www.w3.org/2000/svg" viewBox="0 0 1813.46 475.69">
  <defs>
    <style>
      .cls-1 {
        fill: #00363e;
        stroke-width: 0px;
      }
    </style>
  </defs>
  <g id="Layer_1-2" data-name="Layer 1">
    <g>
      <path class="cls-1" d="M1533.13,429.35l41.03-18.5,41.43-19.47,23.03-37.88,19.27-41.37,41.74-19.07,42.66-16.18,25.61,37.24,24.49,39.91,21.07,29.72v-63.67c-.15,0-.32,0-.47-.01l-18.21-9.9c4.01-.24,7.25-.69,10.41-1.14,2.57-.37,5.21-.73,8.27-.98v-1.27c-3.13.25-5.82.63-8.45,1-3.65.52-7.39,1.05-12.36,1.23l-12.08-6.57-8.9-6.94c2.56.05,5.42.16,8.73.37,12.35.77,18.61,1.38,24.66,1.97,2.6.25,5.26.51,8.41.78v-1.27c-3.09-.27-5.72-.52-8.28-.77-6.06-.59-12.32-1.2-24.7-1.98-4.07-.26-7.49-.37-10.47-.4l-23.4-18.25c3.7.62,6.67,1.3,9.57,1.98,5.99,1.4,12.18,2.84,24.59,3.62,12.34.77,18.57,1.59,24.59,2.38,2.51.33,5.08.66,8.1,1v-1.27c-2.95-.33-5.47-.66-7.93-.98-6.04-.79-12.29-1.61-24.67-2.38-12.31-.77-18.45-2.2-24.38-3.59-3.5-.82-7.08-1.65-11.92-2.35l-.88-.69-1.11.42c-3.01-.39-6.48-.73-10.68-.99-12.42-.78-18.88.04-25.12.82-6.19.78-12.58,1.59-24.88.82-12.37-.77-18.67-1.06-24.77-1.33-6.09-.27-12.38-.55-24.74-1.33-3.29-.21-6.11-.48-8.63-.79l-2.3-10.88-.88-4.94c3.41.14,7.42.35,12.44.66,12.35.77,18.62,1.33,24.67,1.87,6.06.54,12.33,1.1,24.71,1.88,12.41.78,18.8.37,24.99-.02,6.15-.39,12.5-.79,24.83-.02,12.28.77,18.33,2.85,24.17,4.86,5.93,2.04,12.06,4.15,24.5,4.93,12.37.77,18.67,1.04,24.77,1.29,2.44.1,4.92.21,7.81.34v-1.27c-2.87-.14-5.34-.24-7.76-.34-6.09-.25-12.39-.52-24.74-1.29-12.28-.77-18.33-2.85-24.17-4.86-5.93-2.04-12.06-4.15-24.51-4.93-12.41-.78-18.8-.37-24.99.02-6.15.39-12.51.79-24.83.02-12.36-.77-18.62-1.33-24.67-1.87-6.06-.54-12.33-1.1-24.71-1.88-5.17-.32-9.27-.53-12.75-.68l-1.63-9.12c3.75.44,8.25.85,14.16,1.22,12.42.78,18.86.05,25.09-.64,6.18-.69,12.56-1.41,24.87-.64,12.33.77,18.53,1.78,24.53,2.75,6.02.98,12.25,1.99,24.65,2.77,12.46.78,19-.71,25.33-2.15,6.24-1.42,12.7-2.89,24.97-2.12,12.32.77,18.49,1.98,24.46,3.14,2.11.41,4.27.83,6.7,1.23v-1.28c-2.33-.39-4.42-.79-6.46-1.19-6.01-1.17-12.22-2.39-24.62-3.16-12.45-.78-19,.71-25.33,2.15-6.24,1.42-12.7,2.89-24.97,2.12-12.33-.77-18.53-1.78-24.53-2.75-6.03-.98-12.25-1.99-24.65-2.77-12.42-.78-18.86-.05-25.09.64-6.18.69-12.56,1.41-24.87.64-6.08-.38-10.66-.81-14.47-1.26l-1.13-6.33-1.17-12.03c4.46.18,9.86.44,17.72.93,12.4.78,18.8.39,24.98,0,6.15-.37,12.51-.76,24.83,0,12.33.77,18.51,1.91,24.49,3,6.01,1.1,12.23,2.25,24.63,3.02,12.33.77,18.53,1.77,24.53,2.73,6.03.97,12.26,1.97,24.65,2.75,6.43.4,11.24.43,15.26.28l16.21,7.67v-2.8l-39.74-18.8-42.96-20.96-42.37-22.33-43.98-19.11-45.82-18.43.24,1.09-41.84,8.9-41.97,16.32-42.22,14.96-7.37,2.51-21.3-22.02-37.26-31.55-28.49,23.51-23.06-19.07-40.34-25.25-37.6-28.78-40.95-24.36-37.38-27.54-43.53,21.89-40.28,28.37-39.88,28.6-.14.11-12.57,16.08-20.64-31-36.42-25.8-33.77-27.79L940.61,0l-35.58,42.53-27.5,37.91-22.28,41.9-.05.1-14.86,46.89-35.2,41.09-25.6-45.11-26.38-32.92-22.18,40.4-41.45,27.36-.36.24-15.85,47.47-29.28,36.41-29.09,16.85-14.74-8.59-.12-.07-42.22-13.24-41.96-12.75-34.02-28.28-34.24,36.04-22.29,26.5-40.02-18.78-36.02-28.82-33.61-32.42-39.89-21.74-34.68,30.52-34.78,32.57-33.7,33.54-35.53,31.64-38.19,28.84-34.19,33.3-35.22,32.34L0,475.69h2.88l28.66-52.37,34.94-32.09,34.04-33.17,38.17-28.82,35.7-31.79,33.72-33.56,34.72-32.52,31.4-27.64-2.42,16.79,5.51,23.59-7.8,23.59.88,23.9.27,23.71,2.4,23.77.44,23.57-1.27,25.49,20.22,12.84,18.51,11.93,16.94,14.13,19.06,11.61,20.49,8.98,13.58,18.81,14.29,9.24h4.66l-6.79-4.39c-2.74-2.44-5.91-5.43-9.87-9.39-3.45-3.46-6.24-6.22-8.63-8.56l-5.59-7.74-4.49-1.97c-4.13-3.94-8.64-8.27-16.74-16.39-8.71-8.73-12.34-13.89-15.85-18.88-3.54-5.03-7.2-10.23-15.98-19.04-8.75-8.77-13.1-13.17-17.46-17.57-4.35-4.4-8.71-8.81-17.46-17.58-1.93-1.94-3.7-3.61-5.35-5.09l-.19-10.1-.9-8.86c3.92,3.35,8.41,7.37,15.41,14.38,8.73,8.75,12.77,13.56,16.67,18.21,3.92,4.67,7.98,9.5,16.75,18.29,8.72,8.74,12.46,13.8,16.07,18.69,3.64,4.93,7.41,10.03,16.19,18.84,8.74,8.76,12.92,13.44,16.96,17.97,4.06,4.54,8.25,9.24,17.01,18.03,4.9,4.91,8.56,8.37,11.65,11.17l-1.43,10.01h2.56l2.11-14.75c5.15,6.51,8.16,10.84,10.77,14.75h1.52c-2.87-4.3-6.07-8.98-12.05-16.48l.52-3.61,3.47-7.05c.45.56.92,1.13,1.4,1.72,7.8,9.62,11.68,14.58,15.43,19.37,1.48,1.89,2.99,3.82,4.75,6.05h1.61c-2.02-2.56-3.72-4.72-5.37-6.83-3.75-4.8-7.63-9.76-15.44-19.39-.61-.76-1.2-1.47-1.77-2.17l5.39-10.93,1.89-9.22c2.59,2.63,5.52,5.87,9.06,10.24,7.79,9.6,11.41,14.74,14.9,19.7,3.36,4.77,6.84,9.71,14.01,18.6h1.63c-7.57-9.36-11.15-14.43-14.6-19.33-3.51-4.98-7.14-10.13-14.95-19.77-3.85-4.74-6.98-8.18-9.74-10.93l2-9.74.85-1.34c3.05,4.02,6.68,8.73,12.78,16.25,7.8,9.61,11.55,14.65,15.19,19.52,3.64,4.88,7.41,9.93,15.21,19.55,1.79,2.2,3.42,4.1,4.94,5.79h1.71c-1.73-1.88-3.6-4.03-5.67-6.58-7.79-9.61-11.55-14.65-15.18-19.52-3.64-4.88-7.41-9.93-15.22-19.56-6.28-7.74-9.94-12.5-13.04-16.6l6.73-10.69c2.26,5.8,4.71,11.85,12.42,21.36,7.83,9.66,12.52,14.05,17.06,18.29,4.51,4.22,9.17,8.58,16.94,18.17,2.33,2.87,4.28,5.31,6,7.48l-6.38,7.65h3.3l41.36-49.59,37.56-30.57,37.02-31.66,9.12-52.19,43.91-25.44,29.72-36.95.14-.18,15.72-47.07,41.61-27.47,18.59-33.85-4.08,40.72-6.76,46.34-3.23,46.8-8.14,46.63,20.54,32.22,15.36,31.42-21.11,49.71-12.01,41.14h2.64l11.74-40.22,20.22-47.62.35.72,10.83-46.98,7.47-45.65,11.75-44.81,9.04-37.91,36.51-42.62,14.94-47.16,22.09-41.57,27.39-37.77,31.72-37.92-9.42,74.54-9.37,50.56-7.86,50.6-.04.25,11.21,45.89,18.24,43.69,6.75,39.07-1.79,1.28-.11.07-31.92,34.46-33.92,33.02-34.56,32.46-33.99,33.09-27.68,30.52h3.42l26.09-28.77,33.92-33.02,34.56-32.46,33.99-33.08,31.79-34.32,37.89-27.07,39.38-18.68-17.82,34.18-21.97,35.14-20.01,36.86,16.75,43.08,13.56,43.8.05.16,9.01,14.18h3l-7.92-12.46c3.92,2.86,8.64,6.24,16.11,11.39.54.37,1.05.72,1.56,1.07h2.24c-.98-.67-2-1.37-3.08-2.12-9.15-6.3-14.16-9.95-18.63-13.24l-6.68-21.59c5.69,3.5,9.8,5.5,13.78,7.43,5.57,2.69,11.33,5.48,21.5,12.48,10.22,7.04,15.66,10.29,20.93,13.44,1.88,1.12,3.8,2.27,5.93,3.59h2.4c-2.88-1.81-5.3-3.25-7.68-4.68-5.25-3.13-10.68-6.38-20.86-13.39-10.24-7.06-16.05-9.86-21.66-12.58-4.23-2.05-8.61-4.18-14.91-8.14l-6.25-20.19-.84-2.16c2.38,1.67,5.1,3.56,8.37,5.81,10.25,7.07,16.27,9.62,22.08,12.08,5.76,2.44,11.71,4.97,21.86,11.96,10.16,7,14.67,11.4,19.04,15.65,4.37,4.26,8.9,8.66,18.98,15.63h2.23c-.43-.29-.84-.58-1.28-.88-10.16-7-14.67-11.4-19.04-15.65-4.41-4.29-8.96-8.72-19.21-15.78-10.25-7.07-16.27-9.62-22.08-12.08-5.76-2.44-11.71-4.97-21.86-11.96-3.99-2.75-7.19-4.98-9.91-6.89l-7.33-18.87c1.05.59,2.09,1.16,3.1,1.71,5.38,2.95,10.95,6.01,21.12,13.02,10.22,7.04,15.63,10.34,20.86,13.52,5.22,3.18,10.61,6.46,20.8,13.48,10.16,7,14.78,11.27,19.25,15.4,4.5,4.16,9.15,8.46,19.39,15.52,7.13,4.92,12.29,7.55,16.77,9.47h3.34c-5.12-2.02-10.81-4.59-19.39-10.51-10.16-7-14.78-11.27-19.25-15.41-4.5-4.16-9.15-8.46-19.39-15.52-10.22-7.04-15.63-10.33-20.86-13.52-5.22-3.18-10.61-6.46-20.8-13.48-10.23-7.05-15.82-10.12-21.23-13.09-1.43-.79-2.88-1.58-4.43-2.46l-6.63-17.06,4.48-8.25c8.09,5.76,12.25,9.52,16.28,13.17,4.54,4.11,9.23,8.36,19.46,15.41,10.19,7.02,15.15,10.87,19.94,14.6,4.81,3.74,9.78,7.6,20,14.64,10.2,7.03,15.32,10.67,20.28,14.2,4.96,3.53,10.09,7.18,20.3,14.21,10.26,7.07,16.37,9.5,22.28,11.85,5.7,2.27,11.6,4.62,21.29,11.21h2.24c-.26-.18-.51-.36-.78-.54-10.26-7.07-16.37-9.5-22.28-11.85-5.85-2.32-11.89-4.72-22.03-11.71-10.2-7.03-15.32-10.67-20.28-14.2-4.96-3.53-10.09-7.18-20.3-14.21-10.18-7.02-15.14-10.87-19.94-14.6-4.81-3.74-9.78-7.6-20-14.64-10.17-7.01-14.83-11.23-19.33-15.31-4.07-3.69-8.29-7.5-16.52-13.35l6.23-11.49c8.54,6.13,12.49,10.48,16.29,14.69,4.17,4.61,8.48,9.38,18.74,16.45,10.27,7.07,16.5,9.35,22.52,11.56,5.95,2.18,12.11,4.43,22.24,11.41,10.12,6.97,14.07,12.08,17.88,17.01,3.88,5.01,7.88,10.19,18.17,17.28,10.25,7.06,16.24,9.64,22.04,12.13,5.74,2.47,11.67,5.02,21.82,12.01,6.06,4.18,10.42,7.04,14.05,9.35h2.37c-3.96-2.49-8.69-5.57-15.7-10.39-10.25-7.06-16.24-9.64-22.04-12.13-5.74-2.47-11.67-5.02-21.82-12.01-10.12-6.97-14.07-12.08-17.88-17.01-3.88-5.01-7.88-10.19-18.17-17.28-10.27-7.07-16.5-9.35-22.52-11.56-5.95-2.18-12.11-4.43-22.24-11.41-10.14-6.99-14.4-11.7-18.52-16.26-3.87-4.28-7.88-8.7-16.62-14.96l4.54-8.36c8.98,6.16,13.97,9.36,18.78,12.44,5.14,3.29,10.45,6.69,20.64,13.71,10.17,7.01,14.97,11.06,19.61,14.99,4.66,3.94,9.48,8.01,19.71,15.06,10.24,7.06,16.06,9.85,21.69,12.54,5.59,2.68,11.36,5.44,21.52,12.44,10.17,7.01,14.98,11.06,19.62,14.97,4.67,3.93,9.49,8,19.72,15.05,10.17,7.01,14.88,11.16,19.44,15.18,1.8,1.59,3.64,3.2,5.81,5h2c-2.71-2.19-4.86-4.09-6.97-5.95-4.59-4.04-9.33-8.22-19.56-15.28-10.18-7.01-14.98-11.06-19.62-14.97-4.67-3.93-9.49-8-19.72-15.05-10.24-7.06-16.06-9.85-21.69-12.54-5.59-2.68-11.36-5.44-21.52-12.44-10.18-7.01-14.97-11.07-19.61-14.99-4.66-3.94-9.48-8.01-19.71-15.06-10.21-7.04-15.53-10.44-20.67-13.74-4.82-3.09-9.83-6.3-18.86-12.49l2.34-4.31,5.58-8.92c9.32,6.45,14.11,10.09,18.74,13.6,4.85,3.68,9.86,7.49,20.08,14.53,10.18,7.02,15.12,10.9,19.89,14.66,4.79,3.77,9.74,7.66,19.96,14.7,10.17,7.01,14.84,11.22,19.35,15.29,4.54,4.1,9.25,8.34,19.48,15.39,10.28,7.08,16.65,9.18,22.82,11.2,6.08,2,12.37,4.07,22.5,11.04,10.18,7.01,14.97,11.07,19.61,14.99,4.66,3.94,9.48,8.02,19.71,15.07,3.08,2.12,5.73,3.82,8.14,5.26h2.47c-2.83-1.64-6.05-3.66-9.89-6.31-10.18-7.01-14.97-11.07-19.61-14.99-4.66-3.94-9.48-8.02-19.71-15.07-10.28-7.08-16.65-9.18-22.82-11.2-6.08-2-12.37-4.07-22.5-11.04-10.17-7.01-14.84-11.22-19.35-15.29-4.54-4.1-9.25-8.34-19.48-15.39-10.18-7.02-15.12-10.9-19.89-14.66-4.79-3.77-9.74-7.66-19.96-14.7-10.19-7.02-15.19-10.82-20.03-14.5-4.64-3.53-9.46-7.18-18.83-13.67l5.21-8.34c9.37,6.31,15.12,8.72,20.68,11.03,5.78,2.41,11.76,4.9,21.91,11.89,10.21,7.03,15.49,10.49,20.59,13.84,5.1,3.34,10.37,6.79,20.56,13.82,10.21,7.03,15.47,10.5,20.57,13.86,5.09,3.35,10.35,6.82,20.55,13.85,10.13,6.98,14.24,11.88,18.22,16.62,4.03,4.8,8.2,9.77,18.47,16.85,10.23,7.05,15.93,10,21.43,12.85,5.47,2.83,11.13,5.76,21.3,12.77,10.2,7.03,15.28,10.73,20.19,14.31,1.52,1.11,3.08,2.24,4.78,3.47h2.16c-2.29-1.64-4.26-3.08-6.2-4.49-4.92-3.59-10.01-7.3-20.22-14.33-10.23-7.05-15.93-10-21.43-12.85-5.47-2.83-11.13-5.76-21.3-12.77-10.13-6.98-14.24-11.88-18.22-16.62-4.03-4.8-8.2-9.77-18.47-16.85-10.21-7.03-15.47-10.5-20.57-13.86-5.09-3.35-10.35-6.82-20.55-13.85-10.21-7.03-15.48-10.49-20.59-13.83-5.1-3.34-10.37-6.8-20.57-13.82-10.25-7.07-16.3-9.58-22.14-12.01-5.5-2.29-11.21-4.68-20.49-10.93l6.74-10.78c9.36,6.37,14.8,9.19,20.05,11.9,5.47,2.83,11.13,5.76,21.3,12.76,10.23,7.05,15.88,10.06,21.34,12.96,5.43,2.89,11.04,5.88,21.21,12.88,10.18,7.02,15.1,10.92,19.85,14.7,4.77,3.79,9.7,7.71,19.92,14.75,10.16,7,14.68,11.39,19.06,15.63,4.41,4.28,8.97,8.71,19.22,15.77,10.25,7.06,16.2,9.69,21.96,12.23,5.7,2.52,11.6,5.12,21.75,12.11,10.21,7.03,15.46,10.52,20.54,13.89,5.08,3.37,10.33,6.85,20.53,13.88,1.82,1.25,3.42,2.42,4.9,3.52h2.09c-1.83-1.41-3.88-2.92-6.27-4.56-10.21-7.03-15.46-10.52-20.55-13.89-5.08-3.37-10.33-6.85-20.53-13.88-10.25-7.06-16.2-9.69-21.96-12.23-5.7-2.52-11.6-5.12-21.75-12.11-10.16-7-14.68-11.39-19.06-15.63-4.41-4.28-8.97-8.71-19.22-15.77-10.18-7.02-15.1-10.92-19.85-14.7-4.77-3.79-9.7-7.71-19.92-14.75-10.23-7.05-15.88-10.05-21.34-12.96-5.43-2.89-11.04-5.88-21.22-12.89-10.23-7.05-15.93-10-21.43-12.85-5.22-2.7-10.64-5.51-19.96-11.85l2.41-3.86,5.01-9.6c9.89,6.84,14.62,10.86,19.17,14.74,4.65,3.96,9.45,8.05,19.68,15.1,10.26,7.07,16.33,9.55,22.2,11.95,5.81,2.37,11.81,4.83,21.96,11.82,10.19,7.02,15.24,10.77,20.12,14.39,4.89,3.63,9.95,7.38,20.16,14.41,10.24,7.05,15.98,9.94,21.53,12.74,5.51,2.77,11.21,5.64,21.38,12.65,10.12,6.97,14.07,12.08,17.88,17.01,3.88,5.01,7.88,10.19,18.17,17.28,10.23,7.05,15.81,10.13,21.2,13.12,5.37,2.97,10.92,6.04,21.1,13.05,9.5,6.55,14.69,10.06,19.43,13.26h2.26c-.17-.11-.34-.23-.5-.34-5.05-3.41-10.27-6.94-20.47-13.96-10.23-7.05-15.81-10.13-21.2-13.12-5.37-2.97-10.92-6.04-21.1-13.05-10.12-6.97-14.07-12.08-17.88-17.01-3.88-5.01-7.88-10.19-18.17-17.28-10.24-7.05-15.98-9.94-21.53-12.74-5.51-2.77-11.21-5.64-21.38-12.65-10.19-7.02-15.24-10.77-20.12-14.39-4.89-3.63-9.95-7.38-20.16-14.41-10.26-7.07-16.33-9.55-22.2-11.95-5.81-2.37-11.81-4.83-21.96-11.82-10.17-7.01-14.95-11.08-19.58-15.02-4.6-3.92-9.37-7.98-19.41-14.91l6.16-11.81c.22.15.43.29.65.44,10.23,7.05,15.87,10.06,21.33,12.97,5.43,2.89,11.04,5.89,21.21,12.9,10.14,6.98,14.33,11.78,18.39,16.42,4.11,4.7,8.36,9.55,18.62,16.63,10.25,7.07,16.27,9.61,22.09,12.07,4.6,1.94,9.33,3.95,16.2,8.23l20.96,16.77,34.24,26.48,34.74,25.95,36.38,23.53,21.52,22.08h3.53l-23.44-24.05-36.54-23.63-34.65-25.89-34.2-26.45-33.73-26.99-31.25-30.11-8.63-6.99,38.59-23.92,44.04-13.16,35.32-29.19,41.29-17.66,38.73-23.03,38.95-22.08,43.35-14.51,35.94-29.67-6.64,39.29-8.53,48.69-8.32,48.66-14.21,48.18-.16.53,21.48,36.08,22.93,33.45,18.19,36.06,20.14,46.37h2.75l-5.87-13.51c1.08-1.45,2.25-2.97,3.58-4.66,7.64-9.68,12.37-13.85,16.96-17.88,4.62-4.07,9.41-8.28,17.11-18.05,7.71-9.78,10.6-15.66,13.39-21.35,2.76-5.63,5.61-11.45,13.25-21.12,7.67-9.73,11.53-14.57,15.38-19.41,3.86-4.85,7.71-9.69,15.39-19.42,7.64-9.68,12.33-13.9,16.87-17.97,4.58-4.11,9.31-8.36,17.02-18.13,7.68-9.73,11.46-14.79,15.12-19.67,2.02-2.69,4.09-5.46,6.81-9.01l13.94,4.75c-4.22,5.33-7.06,8.87-9.8,12.29-3.81,4.75-7.75,9.67-15.42,19.39-7.64,9.69-12.24,13.99-16.69,18.15-4.48,4.19-9.11,8.52-16.82,18.29-7.72,9.79-10.46,15.8-13.1,21.62-2.62,5.75-5.32,11.69-12.94,21.36-7.65,9.7-12.12,14.11-16.44,18.39-4.35,4.3-8.85,8.75-16.54,18.5-7.69,9.75-11.21,15.04-14.62,20.16-2.85,4.28-5.8,8.69-11.19,15.74l-15.11,11.55h4.17l35.53-27.16,40.51-19.18ZM1812.19,322.5c.03,2.98.1,6.37.2,10.47.32,12.37.22,18.65.13,24.73-.08,5.32-.16,10.81.03,20.4l-8.8-12.42c.07-2.52.16-4.75.25-6.94.26-6.09.52-12.38.2-24.79-.18-7.15-.69-12.27-1.32-16.52l9.3,5.06ZM1801.49,316.68c.69,4.39,1.26,9.69,1.45,17.31.32,12.36.05,18.64-.2,24.7-.07,1.7-.14,3.42-.2,5.28l-8.04-11.34-10.46-17.03c0-.31-.01-.6-.02-.92-.32-12.4-.61-18.7-.9-24.8-.05-1.07-.1-2.16-.15-3.28l18.52,10.08ZM1779.09,304.49l2.58,1.4c.06,1.39.12,2.73.18,4.04.27,5.88.56,11.96.86,23.5l-10.48-17.07c-.1-1.95-.21-3.75-.31-5.52-.21-3.65-.43-7.39-.64-12.45l7.81,6.09ZM1769.98,297.38c.22,5.62.46,9.64.69,13.54.06,1.04.12,2.1.18,3.18l-.83-1.36-13.45-19.56c0-1.89-.03-3.95-.08-6.22,0-.04,0-.08,0-.12l13.5,10.53ZM1755.19,285.84c.01.39.02.75.03,1.16.04,1.54.06,2.97.07,4.33l-8.02-11.66,7.92,6.18ZM382.45,462.8c1.66,1.67,3.18,3.16,4.6,4.51l-4.22-2.73-3.63-5.03c1.02,1.02,2.09,2.08,3.26,3.25ZM276.05,362.69l-.22-11.87c1.38,1.27,2.84,2.67,4.42,4.25,8.75,8.77,13.1,13.17,17.46,17.57,4.35,4.4,8.71,8.81,17.46,17.58,8.71,8.73,12.34,13.89,15.85,18.88,3.54,5.03,7.2,10.23,15.98,19.04,6.52,6.54,10.72,10.62,14.26,14.02l-13.03-5.7-18.76-11.41-7.98-6.66c-3.48-4.74-7.28-9.78-15.66-18.18-8.8-8.82-14.45-12.25-19.92-15.57-3.25-1.97-6.58-4.01-10.6-7.2l.73-14.75ZM275.24,378.99c3.76,2.92,6.92,4.84,10.02,6.72,5.4,3.28,10.98,6.67,19.68,15.38,5.87,5.89,9.48,10.11,12.31,13.74l-4.7-3.92-18.7-12.07-18.99-12.06.39-7.8ZM424.44,303.11l.43,13.7c-1.77-1.07-3.46-2-5.13-2.92-5.62-3.07-11.43-6.25-20.11-14.96-5.59-5.6-9.15-9.65-11.97-13.12l36.78,17.3ZM314.06,222.65l33.52,32.34,36.27,29.03,1.2.56c3.1,3.94,6.93,8.47,13.68,15.24,8.81,8.83,14.7,12.06,20.4,15.17,1.87,1.02,3.77,2.08,5.79,3.33l.68,21.34-.05.47c-7.38-7.51-11.06-11.99-14.61-16.31-3.87-4.72-7.88-9.59-16.65-18.39-8.78-8.81-14-12.61-19.04-16.28-5-3.65-10.18-7.42-18.89-16.16-8.73-8.75-12.7-13.61-16.55-18.31-3.87-4.72-7.86-9.61-16.63-18.4-8.76-8.78-13.37-13.1-17.83-17.27-.91-.85-1.83-1.71-2.78-2.61l11.49,6.25ZM276.97,202.49l21.3,11.58c2.31,2.22,4.28,4.06,6.22,5.87,4.45,4.17,9.05,8.48,17.79,17.25,8.73,8.75,12.71,13.61,16.55,18.31,3.87,4.72,7.86,9.61,16.63,18.4,8.78,8.81,14,12.61,19.04,16.28,5,3.65,10.18,7.42,18.89,16.16,8.73,8.75,12.71,13.6,16.56,18.3,3.68,4.48,7.49,9.12,15.39,17.12l-1.71,14.49c-1.44-1.41-3-2.96-4.73-4.69-8.79-8.81-14.22-12.44-19.46-15.95-5.19-3.47-10.56-7.06-19.27-15.79-8.68-8.7-11.63-14.44-14.48-19.98-2.9-5.63-5.9-11.46-14.71-20.3-8.81-8.83-14.52-12.2-20.04-15.47-5.45-3.23-11.1-6.56-19.79-15.28-8.7-8.72-12.03-14.13-15.25-19.36-3.26-5.3-6.63-10.77-15.43-19.59-1.45-1.45-2.76-2.74-4.01-3.95l.49-3.39ZM274.38,220.41l1.88-12.99c1.05,1.03,2.14,2.11,3.33,3.3,8.7,8.72,12.03,14.13,15.25,19.36,3.26,5.3,6.63,10.77,15.43,19.59,8.81,8.83,14.52,12.2,20.04,15.47,5.45,3.23,11.1,6.56,19.79,15.28,8.68,8.7,11.63,14.44,14.48,19.98,2.9,5.63,5.9,11.46,14.71,20.3,8.79,8.81,14.22,12.44,19.46,15.95,5.19,3.47,10.56,7.06,19.27,15.79,2.02,2.02,3.81,3.79,5.44,5.39l-1.58,13.32c-2.72-2.92-6.05-6.4-10.65-11.01-8.8-8.82-14.37-12.32-19.75-15.71-5.32-3.35-10.83-6.81-19.53-15.53-8.74-8.76-13.12-13.28-17.35-17.65-4.24-4.38-8.62-8.9-17.37-17.68-8.74-8.76-12.91-13.45-16.95-17.99-4.05-4.55-8.23-9.26-17-18.04-8.72-8.74-12.53-13.74-16.22-18.58-2.96-3.88-6.03-7.89-11.59-13.81l-1.11-4.75ZM402.98,454.84l-1.33,9.33c-2.95-2.68-6.42-5.98-10.97-10.55-8.74-8.76-12.92-13.44-16.97-17.97-4.06-4.54-8.25-9.24-17.01-18.02-8.72-8.74-12.46-13.8-16.07-18.69-3.64-4.93-7.41-10.03-16.19-18.84-8.73-8.75-12.77-13.56-16.67-18.21-3.92-4.67-7.98-9.5-16.75-18.29-7.63-7.65-12.3-11.75-16.49-15.31l-1.32-13.07v-.1c1.79,1.88,3.35,3.55,4.89,5.18,4.16,4.44,8.47,9.03,17.23,17.81,8.76,8.78,13.35,13.11,17.79,17.31,4.43,4.19,9.02,8.52,17.76,17.28,8.77,8.79,13.75,12.8,18.57,16.68,4.79,3.85,9.74,7.84,18.46,16.58,8.76,8.78,13.5,12.99,18.09,17.06,4.57,4.06,9.3,8.25,18.03,17.01,1.54,1.54,2.91,2.91,4.2,4.2l-5.23,10.6ZM408.8,443.04c-1.21-1.21-2.48-2.48-3.9-3.9-8.76-8.79-13.5-12.99-18.09-17.06-4.57-4.06-9.3-8.25-18.03-17.01-8.77-8.79-13.75-12.8-18.56-16.67-4.79-3.85-9.74-7.84-18.46-16.58-8.76-8.78-13.35-13.11-17.79-17.31-4.43-4.19-9.02-8.52-17.76-17.28-8.74-8.76-13.04-13.35-17.2-17.78-1.79-1.91-3.64-3.88-5.83-6.17l-.22-19.32c7.53,7.34,12.29,10.85,16.9,14.24,4.99,3.66,10.15,7.45,18.86,16.19,8.76,8.78,13.53,12.98,18.13,17.03,4.59,4.04,9.34,8.21,18.07,16.97,8.74,8.76,12.9,13.45,16.94,17.99,4.04,4.56,8.22,9.27,16.99,18.05,8.7,8.72,12.09,14.08,15.37,19.27,3.31,5.24,6.74,10.67,15.54,19.49.93.93,1.79,1.78,2.63,2.61l-3.58,7.25ZM416.66,415.24l-3.92,19.12c-.67-.67-1.36-1.36-2.09-2.09-8.7-8.72-12.09-14.08-15.37-19.27-3.31-5.24-6.74-10.67-15.54-19.49-8.74-8.76-12.9-13.45-16.94-18-4.04-4.56-8.22-9.27-16.98-18.05-8.76-8.78-13.53-12.97-18.13-17.03-4.59-4.04-9.34-8.22-18.07-16.97-8.78-8.8-13.98-12.62-19.01-16.31-4.76-3.49-9.67-7.11-17.67-15.01v-.62s-.77-20.77-.77-20.77c2.55,2.61,5.59,5.7,9.54,9.66,8.8,8.82,14.24,12.42,19.51,15.91,5.21,3.45,10.61,7.02,19.31,15.74,8.71,8.73,12.35,13.88,15.87,18.86,3.55,5.02,7.22,10.21,16.01,19.02,8.75,8.77,13.15,13.27,17.4,17.62,4.26,4.35,8.66,8.85,17.41,17.63,8.79,8.81,14.05,12.57,19.14,16.21,3.27,2.33,6.62,4.74,10.93,8.5l-.63,5.34ZM417.47,408.38c-4.04-3.47-7.25-5.77-10.37-8.01-5.05-3.61-10.27-7.34-18.98-16.07-8.75-8.77-13.15-13.27-17.4-17.62-4.26-4.35-8.66-8.85-17.41-17.63-8.71-8.73-12.35-13.88-15.87-18.86-3.55-5.02-7.22-10.21-16.01-19.02-8.79-8.82-14.24-12.42-19.51-15.91-5.22-3.45-10.61-7.02-19.31-15.75-4.46-4.47-7.77-7.84-10.51-10.65l-.03-.82,4.05-12.25c3.94,3.28,8.45,7.23,15.35,14.15,8.76,8.78,13.48,13.01,18.05,17.1,4.55,4.08,9.26,8.29,17.99,17.05,8.72,8.74,12.48,13.78,16.12,18.66,3.67,4.91,7.46,9.99,16.24,18.79,8.8,8.82,14.44,12.27,19.89,15.59,5.39,3.29,10.96,6.69,19.65,15.41,8.75,8.77,13.09,13.31,17.29,17.71.84.88,1.71,1.78,2.59,2.71l-1.82,15.41ZM417.62,389.39c-4.21-4.4-8.56-8.95-17.31-17.73-8.8-8.82-14.44-12.27-19.89-15.59-5.39-3.29-10.96-6.69-19.65-15.41-8.72-8.74-12.48-13.78-16.12-18.65-3.67-4.91-7.46-9.99-16.24-18.79-8.76-8.78-13.48-13.01-18.05-17.1-4.55-4.08-9.26-8.29-17.99-17.05-7.17-7.19-11.77-11.19-15.82-14.54l3.4-10.29-3.88-16.59c4.6,5.01,7.34,8.6,10,12.09,3.71,4.87,7.55,9.9,16.33,18.7,8.74,8.76,12.91,13.45,16.95,17.99,4.05,4.55,8.23,9.26,17,18.04,8.75,8.77,13.13,13.29,17.36,17.66,4.23,4.37,8.61,8.9,17.36,17.67,8.8,8.82,14.37,12.32,19.75,15.71,5.32,3.35,10.83,6.81,19.53,15.53,5,5.01,8.5,8.68,11.35,11.76l-2.19,18.54c-.63-.66-1.26-1.32-1.87-1.96ZM419.83,410.03l8.3-70.15v-.09s-1.16-37.04-1.16-37.04l22.55-26.81,30.51-32.11-7.95,46.6-34.18,90.91-18.07,28.7ZM480.65,467.05c-1.68-2.12-3.58-4.5-5.84-7.28-7.83-9.66-12.52-14.05-17.06-18.29-4.51-4.22-9.17-8.58-16.94-18.17-7.74-9.55-10.09-15.56-12.36-21.37-.07-.17-.14-.35-.21-.52l7.55-11.98c1.2,1.06,2.37,2.06,3.52,3.03,4.76,4.02,9.68,8.18,17.45,17.76,7.77,9.58,10.87,15.07,13.87,20.38,3.02,5.35,6.15,10.89,13.99,20.55,1.71,2.1,3.2,3.98,4.55,5.7l-8.51,10.21ZM489.99,455.85c-1.31-1.67-2.75-3.48-4.39-5.5-7.77-9.58-10.87-15.07-13.87-20.37-3.02-5.35-6.15-10.89-13.99-20.55-7.84-9.67-12.81-13.87-17.62-17.93-1.19-1-2.4-2.04-3.65-3.15l3.64-5.78.07-.11,2.93-7.8c2.94,3.14,5.38,5.48,7.77,7.77,4.45,4.26,9.05,8.67,16.83,18.26,7.75,9.56,10.31,15.42,12.79,21.08,2.51,5.74,5.11,11.68,12.96,21.37,1.28,1.58,2.43,2.99,3.52,4.33l-6.99,8.38ZM497.8,446.48c-1.05-1.28-2.15-2.63-3.36-4.13-7.75-9.56-10.31-15.42-12.79-21.08-2.51-5.74-5.11-11.68-12.96-21.37-7.83-9.65-12.46-14.09-16.93-18.38-2.49-2.38-5.03-4.83-8.14-8.18l5.36-14.26c5.21,6.69,8.06,10.99,10.79,15.15,3.36,5.1,6.83,10.37,14.65,20.01,7.86,9.69,13.39,13.5,18.73,17.19,5.27,3.63,10.72,7.39,18.47,16.94.22.27.42.53.63.79l-14.45,17.32ZM516.31,424.29l-3.24,3.88c-.16-.2-.31-.39-.48-.59-7.86-9.69-13.39-13.5-18.73-17.19-5.27-3.63-10.72-7.39-18.47-16.94-7.78-9.6-11.24-14.84-14.58-19.91-2.83-4.3-5.79-8.77-11.33-15.84l7.1-18.89c.93,1.1,1.88,2.25,2.92,3.53,7.78,9.59,11.13,14.91,14.37,20.05,3.26,5.17,6.63,10.52,14.45,20.17,7.78,9.6,11.25,14.84,14.6,19.9,3.37,5.09,6.85,10.35,14.67,20,.13.16.26.32.39.48l-1.67,1.36ZM518.97,422.13c-.13-.16-.26-.31-.39-.47-7.78-9.6-11.25-14.84-14.6-19.9-3.37-5.09-6.85-10.35-14.67-20-7.78-9.59-11.13-14.91-14.37-20.05-3.26-5.17-6.63-10.52-14.46-20.18-1.21-1.49-2.32-2.82-3.39-4.08l3.02-8.02c1.59,2.03,3.38,4.29,5.49,6.9,7.81,9.64,12.05,14.34,16.14,18.9,4.08,4.54,8.3,9.24,16.1,18.85,7.84,9.67,12.86,13.83,17.72,17.86,4.81,3.99,9.78,8.11,17.54,17.68.17.21.32.41.49.62l-14.63,11.91ZM534.58,409.43c-.16-.21-.32-.4-.49-.61-7.84-9.67-12.86-13.83-17.72-17.86-4.81-3.99-9.78-8.11-17.54-17.68-7.81-9.63-12.05-14.34-16.14-18.9-4.08-4.54-8.3-9.24-16.1-18.85-2.32-2.87-4.26-5.31-5.95-7.49l5.63-14.99c2.26,3.74,5.24,8.1,9.99,13.96,7.79,9.61,11.47,14.7,15.03,19.62,3.57,4.94,7.26,10.04,15.07,19.68,7.85,9.68,13.03,13.73,18.03,17.65,4.95,3.88,10.07,7.89,17.83,17.45.3.37.58.72.87,1.08l-8.52,6.94ZM554.04,393.59l-9.96,8.1c-.29-.36-.57-.7-.87-1.08-7.85-9.68-13.03-13.73-18.03-17.65-4.95-3.88-10.07-7.89-17.83-17.45-7.79-9.61-11.47-14.7-15.03-19.62-3.57-4.94-7.26-10.04-15.07-19.68-5.07-6.25-8.1-10.78-10.4-14.68l6.06-16.13c.24.41.48.83.71,1.24,3.04,5.34,6.18,10.86,14.02,20.53,7.8,9.62,11.65,14.59,15.38,19.39,3.73,4.81,7.59,9.79,15.4,19.41,7.85,9.68,13.1,13.68,18.18,17.55,5.02,3.83,10.21,7.78,17.97,17.34.38.47.72.9,1.08,1.35l-1.6,1.37ZM556.6,391.39c-.35-.44-.68-.86-1.06-1.32-7.85-9.68-13.1-13.68-18.18-17.55-5.02-3.82-10.21-7.78-17.97-17.34-7.8-9.62-11.65-14.59-15.38-19.39-3.73-4.81-7.59-9.79-15.4-19.41-7.77-9.58-10.89-15.06-13.9-20.35-.4-.7-.82-1.43-1.24-2.14l1.01-2.67.04-.11,2.47-14.51c2.98,4.42,4.79,7.87,6.55,11.24,2.87,5.47,5.83,11.13,13.67,20.81,7.84,9.66,12.69,13.94,17.38,18.08,4.65,4.11,9.46,8.35,17.23,17.93,7.8,9.62,11.72,14.55,15.5,19.31,3.79,4.77,7.71,9.7,15.51,19.32.47.58.88,1.11,1.31,1.65l-7.56,6.47ZM565.13,384.1c-.42-.54-.83-1.06-1.29-1.63-7.8-9.62-11.72-14.55-15.5-19.31-3.79-4.77-7.71-9.7-15.51-19.32-7.84-9.66-12.69-13.95-17.38-18.09-4.65-4.11-9.46-8.35-17.23-17.93-7.76-9.57-10.7-15.18-13.53-20.59-1.92-3.67-3.91-7.45-7.37-12.44l3.34-19.57c.45.55.91,1.11,1.39,1.7,7.81,9.64,12.07,14.33,16.18,18.87,4.1,4.53,8.34,9.21,16.14,18.82,7.76,9.57,10.58,15.25,13.31,20.74,2.76,5.56,5.61,11.3,13.46,20.98,7.79,9.61,11.46,14.71,15,19.64,3.55,4.95,7.23,10.06,15.04,19.7.55.67,1.07,1.31,1.58,1.93l-7.61,6.51ZM573.7,376.78c-.5-.61-1.02-1.24-1.56-1.91-7.79-9.61-11.45-14.71-15-19.64-3.55-4.95-7.23-10.06-15.04-19.7-7.76-9.57-10.58-15.25-13.31-20.74-2.76-5.56-5.61-11.3-13.46-20.98-7.81-9.64-12.07-14.33-16.18-18.87-4.1-4.53-8.34-9.21-16.13-18.82-.73-.9-1.42-1.74-2.09-2.55l1.92-11.26.5.41c1.69,2.15,3.62,4.57,5.9,7.38,7.8,9.62,11.85,14.46,15.77,19.13,3.91,4.67,7.96,9.5,15.76,19.12,7.81,9.64,12.1,14.31,16.24,18.83,4.13,4.51,8.4,9.17,16.19,18.77,7.82,9.65,12.36,14.15,16.75,18.49,4.37,4.32,8.88,8.8,16.66,18.39.48.59.93,1.14,1.38,1.69l-14.3,12.23ZM590.35,362.54l-1.39,1.19c-.45-.55-.88-1.08-1.36-1.67-7.82-9.65-12.36-14.15-16.75-18.49-4.37-4.32-8.88-8.8-16.66-18.39-7.81-9.64-12.1-14.31-16.24-18.83-4.13-4.51-8.4-9.17-16.19-18.77-7.81-9.63-11.86-14.46-15.77-19.14-3.91-4.67-7.96-9.5-15.75-19.12-.75-.92-1.45-1.79-2.12-2.63l26.36,21.91.2.16,21.67,6.58s.05.06.07.09c7.79,9.61,11.47,14.7,15.03,19.62,3.57,4.94,7.26,10.04,15.07,19.67,7.77,9.59,10.97,15,14.07,20.25,2.74,4.65,5.61,9.47,11.59,17.13l-1.82,10.44ZM592.47,350.41c-5.45-7.07-8.18-11.67-10.79-16.09-3.12-5.28-6.34-10.74-14.17-20.4-7.79-9.61-11.47-14.7-15.03-19.62-3.4-4.7-6.91-9.55-13.98-18.32l16.94,5.15c1.83,2.17,3.42,4.04,4.98,5.87,3.96,4.64,8.05,9.43,15.85,19.05,7.77,9.58,10.85,15.08,13.82,20.41,1.47,2.63,3,5.34,5.07,8.52l-2.7,15.43ZM595.48,333.14c-1.68-2.66-3.01-5.01-4.29-7.29-3-5.37-6.11-10.92-13.94-20.58-7.81-9.63-11.91-14.43-15.87-19.08-1.19-1.4-2.4-2.81-3.71-4.37l23.51,7.37c1.72,2.13,3.67,4.55,5.97,7.38,5.98,7.37,9.24,12.28,11.83,16.55l-3.5,20.01ZM599.51,310.08l-.2,1.17c-2.5-4.02-5.71-8.72-11.17-15.46-1.78-2.2-3.36-4.15-4.78-5.9l15.7,4.92,8.79,5.12c1.08,1.29,2.07,2.47,3.01,3.59l-11.34,6.57ZM611.97,302.86c-.3-.35-.59-.7-.89-1.06l1.36.79-.46.27ZM754.31,137.88l2.61,3.26c-1.02.79-2.08,1.59-3.18,2.4l.57-5.66ZM753.57,145.24c1.47-1.05,2.82-2.09,4.14-3.11l8.08,10.07c-.85.16-1.71.33-2.54.49-3.24.6-6.55,1.22-10.66,2.36l.98-9.8ZM752.46,156.4c4.3-1.22,7.7-1.85,11.03-2.47,1.05-.19,2.12-.4,3.21-.61l7.53,9.38c-1.87,1.32-3.53,2.61-5.17,3.89-4.59,3.58-9.34,7.28-18.76,11.39l2.16-21.58ZM749.92,181.75l.23-2.34c9.99-4.28,14.93-8.11,19.68-11.83,1.63-1.28,3.3-2.57,5.18-3.89l2.38,2.97,7.1,12.51c-3.28.87-6.07,1.45-8.79,1.99-6.04,1.21-12.29,2.47-23.84,7.12-1.09.44-2.1.86-3.09,1.26l1.14-7.8ZM748.57,191.01c1.19-.5,2.43-1.01,3.77-1.55,11.43-4.61,17.63-5.85,23.61-7.05,2.83-.57,5.74-1.17,9.19-2.1l6.35,11.18c-3.91.94-7.1,1.38-10.24,1.81-6.18.84-12.58,1.7-24.14,6.37-4.17,1.68-7.56,3.15-10.46,4.49l1.91-13.14ZM746.44,205.64c3.04-1.42,6.63-2.99,11.15-4.81,11.42-4.6,17.73-5.46,23.84-6.29,3.26-.44,6.6-.9,10.71-1.92l4.25,7.48c-3.91,2.15-6.83,4.13-9.67,6.07-5.18,3.54-10.54,7.19-21.97,11.8-10.07,4.06-15.95,5.9-21.19,7.43l2.88-19.77ZM743.16,228.1l.19-1.31c5.41-1.57,11.38-3.4,21.86-7.63,11.55-4.66,16.97-8.36,22.21-11.93,2.82-1.92,5.71-3.89,9.58-6.02l5.89,10.37c-4.5,2.11-7.79,3.89-10.99,5.63-5.41,2.94-10.99,5.97-22.45,10.59-11.53,4.65-17.12,7.77-22.54,10.8-1.5.84-3.02,1.68-4.66,2.56l.9-13.07ZM766.15,381.04l-4.35-8.89c2.07-.84,4.38-1.77,7.06-2.86l-2.71,11.75ZM769.2,367.79c-3.07,1.24-5.67,2.29-7.96,3.22l-5.38-11c3.88-1.72,8.59-3.74,15.26-6.43.52-.21,1-.39,1.49-.59l-3.41,14.8ZM775.36,341.09l-2.4,10.39c-.75.29-1.51.6-2.31.92-6.71,2.71-11.45,4.73-15.35,6.46l-3.24-6.63-2.66-4.18c4.1-1.66,9.03-3.66,16.23-6.56,4.07-1.64,7.43-2.98,10.33-4.12l-.61,3.7ZM776.2,335.94c-3.06,1.2-6.64,2.62-11.04,4.4-7.33,2.96-12.31,4.97-16.45,6.65l-5.41-8.49c4.33-1.8,9.55-3.95,17.5-7.16,8.02-3.24,13.19-5.66,17.43-7.8l-2.03,12.41ZM778.49,321.98c-4.38,2.24-9.66,4.75-18.16,8.18-8.08,3.26-13.35,5.43-17.72,7.25l-10.47-16.43c4.84-2.72,10.34-5.65,20.43-9.72,11.45-4.62,17.54-6.18,23.43-7.68,1.84-.47,3.71-.95,5.75-1.53l-3.26,19.93ZM782.85,295.35l-.87,5.32c-2.25.64-4.29,1.17-6.29,1.68-5.93,1.52-12.06,3.09-23.59,7.74-9.74,3.93-15.23,6.79-19.95,9.44l2.84-16.29c3.18-1.44,6.96-3.07,11.77-5.01,11.42-4.61,17.7-5.56,23.78-6.48,4.09-.62,8.3-1.28,14.05-3.01l-1.74,6.62ZM784.96,287.29c-6.06,1.88-10.4,2.55-14.62,3.2-6.15.93-12.5,1.9-24.06,6.56-4.44,1.79-8,3.31-11.03,4.67l1.94-11.11c1.51-.65,3.13-1.33,4.91-2.04,11.5-4.64,17.27-7.2,22.86-9.67,5.58-2.47,11.34-5.03,22.82-9.66.74-.3,1.45-.58,2.14-.85l-4.96,18.9ZM790.32,266.88c-.96.38-1.95.77-3.01,1.19-11.5,4.64-17.28,7.2-22.86,9.67-5.58,2.47-11.34,5.03-22.82,9.65-1.5.61-2.87,1.18-4.18,1.74l2.48-14.19.24-3.54c8.52-3.36,13.58-5.14,18.47-6.86,5.75-2.01,11.69-4.1,23.19-8.74,5.19-2.09,9.24-3.64,12.67-4.89l-4.18,15.95ZM794.86,249.45c-3.6,1.3-7.89,2.93-13.5,5.19-11.47,4.63-17.4,6.71-23.14,8.72-4.8,1.68-9.75,3.42-17.96,6.65l.79-11.42c5.07-2.6,8.54-4.91,11.9-7.18,5.2-3.5,10.57-7.11,22-11.72,11.5-4.64,17.3-7.13,22.9-9.55.59-.25,1.19-.51,1.79-.77l-4.78,20.07ZM800.01,227.84c-.9.39-1.79.77-2.66,1.14-5.6,2.41-11.39,4.91-22.87,9.54-11.55,4.66-16.98,8.31-22.23,11.84-3.18,2.14-6.44,4.32-11.09,6.75l1-14.46c1.93-1.02,3.67-1.99,5.38-2.95,5.38-3,10.94-6.11,22.39-10.73,11.52-4.65,17.14-7.7,22.58-10.65,3.2-1.74,6.49-3.52,11.01-5.64l.07.12-3.58,15.04ZM1076.99,112.91l39.72-28.49,40.03-28.21,39.9-20.07-14.77,40.49-15.46,46.14-.05.16-2.37,40.6-.19,40.69-.75,46.98-13.23-16.38-17.55-43.28-.15-.38-38.54-23.78-26.92-34.22-2.53-3.79,12.86-16.46ZM1023.95,86.45c.67,4.09,1.05,7.31,1.43,10.47.73,6.06,1.48,12.33,4.16,24.45,2.68,12.14,5.05,18.15,7.33,23.96,2.27,5.76,4.61,11.73,7.27,23.77,2.67,12.07,3.42,18.3,4.16,24.33.74,6.06,1.5,12.32,4.18,24.45,2.67,12.06,3.28,18.31,3.88,24.36.6,6.08,1.22,12.38,3.91,24.51,2.68,12.13,4.83,18.17,6.9,24.01.52,1.47,1.05,2.96,1.59,4.55l-5.01-4.06-7.02-5.39c-.75-4.27-1.75-9.43-3.37-16.74-2.68-12.11-4.36-18.22-5.98-24.12-1.62-5.89-3.3-11.98-5.97-24.06-2.69-12.16-5.32-18.13-7.86-23.9-2.52-5.72-5.12-11.63-7.78-23.66-2.65-12-2.07-18.42-1.49-24.64.58-6.31,1.18-12.83-1.52-25.02-2.69-12.18-5.7-18.09-8.61-23.81-2.87-5.65-5.84-11.49-8.5-23.51-.27-1.21-.49-2.34-.71-3.43l19.02,13.47ZM1003.43,71.85c.28,1.51.6,3.11.98,4.84,2.69,12.17,5.7,18.09,8.61,23.81,2.87,5.65,5.84,11.49,8.5,23.51,2.65,12,2.06,18.42,1.49,24.64-.58,6.31-1.18,12.83,1.52,25.02,2.69,12.16,5.32,18.13,7.86,23.9,2.52,5.72,5.12,11.63,7.78,23.66,2.68,12.11,4.36,18.22,5.98,24.12,1.62,5.89,3.3,11.98,5.97,24.06,1.44,6.53,2.39,11.33,3.11,15.32l-15.56-11.96s0-.04-.01-.06c-2.67-12.08-3.69-18.28-4.67-24.27-.98-6.01-2-12.22-4.68-24.34-2.69-12.17-5.51-18.11-8.23-23.85-2.7-5.68-5.48-11.56-8.14-23.58-2.67-12.09-3.94-18.25-5.16-24.21-1.23-5.96-2.49-12.13-5.17-24.23-2.67-12.08-3.67-18.28-4.64-24.27-.97-6.01-1.98-12.23-4.66-24.34-1.74-7.89-2.57-13.29-3.08-17.79l12.21,10.05ZM1041.17,277.11c-3.14-1.93-6.82-4.32-11.47-7.52-.57-.39-1.09-.74-1.62-1.11l.53-1.03,12.56,9.66ZM950.56,309.14l-6.57-38.01-.02-.14-18.25-43.67-3.89-15.93c-.47-2.89-1.09-6.17-1.95-10.07-1.19-5.38-2.42-9.51-3.68-12.97l-1.55-6.33,6.14-39.52c.58,2.09,1.16,4.39,1.74,7,2.67,12.09,3.98,18.15,5.29,24.2,1.31,6.05,2.62,12.11,5.3,24.2,2.66,12.04,2.96,18.34,3.24,24.43.29,6.14.58,12.5,3.27,24.65,2.68,12.1,4.19,18.23,5.66,24.15,1.47,5.92,2.98,12.04,5.66,24.13,1.03,4.65,1.96,8.4,2.83,11.6l-3.2,2.29ZM954.86,306.07c-.83-3.08-1.72-6.68-2.7-11.09-2.68-12.11-4.2-18.24-5.66-24.16-1.47-5.92-2.98-12.03-5.65-24.12-2.66-12.04-2.95-18.34-3.24-24.43-.29-6.14-.58-12.5-3.27-24.65-2.67-12.09-3.98-18.15-5.29-24.2-1.31-6.05-2.62-12.11-5.3-24.2-.83-3.77-1.67-6.94-2.51-9.69l1.22-7.83,4.09-22.06c1.32,5.04,2.47,8.71,3.58,12.28,1.83,5.85,3.72,11.9,6.39,23.96,2.67,12.07,3.5,18.29,4.3,24.31.8,6.05,1.63,12.3,4.31,24.42,2.66,12.05,3.1,18.33,3.53,24.4.43,6.12.87,12.44,3.55,24.58,2.67,12.08,3.69,18.28,4.67,24.27.98,6.01,2,12.23,4.68,24.34.65,2.93,1.24,5.49,1.8,7.79l-8.5,6.08ZM964.47,299.2c-.52-2.17-1.08-4.56-1.68-7.27-2.67-12.08-3.69-18.28-4.67-24.27-.98-6.01-2-12.23-4.68-24.34-2.66-12.05-3.1-18.33-3.53-24.4-.43-6.12-.87-12.44-3.55-24.58-2.67-12.07-3.5-18.29-4.3-24.31-.8-6.05-1.63-12.3-4.31-24.42-2.68-12.12-4.58-18.19-6.41-24.07-1.3-4.15-2.63-8.41-4.25-14.85l4.74-25.58.04-.31c.48,3.75,1.23,8.21,2.51,13.99,2.67,12.09,3.84,18.26,4.97,24.24,1.13,5.98,2.3,12.17,4.98,24.27,2.68,12.1,4.22,18.23,5.72,24.15,1.49,5.91,3.04,12.03,5.71,24.11,2.68,12.13,4.73,18.18,6.71,24.03,1.97,5.82,4.01,11.84,6.68,23.9,2.68,12.11,4.42,18.21,6.1,24.11,1.66,5.81,3.38,11.82,5.99,23.63l-16.77,11.98ZM984.65,284.77l-2.3,1.64c-2.56-11.49-4.26-17.44-5.89-23.18-1.68-5.88-3.41-11.95-6.08-24.03-2.68-12.13-4.73-18.18-6.71-24.04-1.97-5.82-4.01-11.84-6.68-23.9-2.68-12.1-4.22-18.23-5.72-24.15-1.49-5.91-3.04-12.03-5.71-24.11-2.67-12.09-3.84-18.26-4.97-24.24-1.13-5.98-2.3-12.17-4.98-24.27-1.93-8.72-2.66-14.42-3.05-19.21l5.62-44.42c.77,3.15,1.63,6.84,2.64,11.38,2.67,12.06,3.26,18.31,3.83,24.36.58,6.09,1.17,12.38,3.86,24.52,2.69,12.14,5.02,18.16,7.28,23.97,2.24,5.77,4.56,11.73,7.23,23.78,2.68,12.12,4.45,18.21,6.16,24.1,1.71,5.87,3.47,11.94,6.14,24.02,2.67,12.08,3.67,18.28,4.63,24.27.97,6.01,1.97,12.23,4.64,24.35,2.66,12.03,2.64,18.37,2.62,24.5-.02,5.78-.02,11.78,2.16,22.41l-4.71,2.23ZM990.54,281.98c-2.09-10.32-2.08-16.19-2.07-21.85.02-6.2.04-12.62-2.65-24.78-2.67-12.08-3.67-18.28-4.63-24.27-.97-6.01-1.97-12.23-4.64-24.35-2.68-12.12-4.45-18.21-6.16-24.1-1.7-5.87-3.47-11.94-6.14-24.02-2.68-12.14-5.02-18.15-7.28-23.97-2.24-5.77-4.56-11.73-7.23-23.78-2.67-12.06-3.26-18.31-3.83-24.36-.58-6.09-1.17-12.38-3.86-24.52-1.36-6.16-2.46-10.76-3.43-14.58l2.79-22.04,6.86,9.35c1.35,6.02,2.69,12.07,5.36,24.12,2.67,12.09,3.9,18.26,5.09,24.22,1.19,5.97,2.42,12.15,5.09,24.25,2.69,12.16,5.35,18.12,7.92,23.89,2.55,5.71,5.18,11.62,7.84,23.65,2.66,12.04,2.97,18.34,3.27,24.43.3,6.14.61,12.49,3.3,24.64,2.68,12.1,3.98,18.26,5.23,24.22,1.26,5.96,2.55,12.11,5.23,24.2,2.69,12.15,5.11,18.15,7.45,23.95,1.81,4.48,3.67,9.11,5.66,16.6l-19.17,9.09ZM1010.87,272.34c-1.99-7.43-3.84-12.06-5.65-16.53-2.32-5.75-4.73-11.7-7.39-23.75-2.67-12.08-3.97-18.24-5.22-24.19-1.26-5.96-2.56-12.12-5.23-24.23-2.66-12.04-2.97-18.34-3.27-24.43-.3-6.14-.61-12.49-3.3-24.64-2.69-12.16-5.35-18.12-7.92-23.89-2.55-5.71-5.18-11.62-7.84-23.65-2.67-12.09-3.9-18.26-5.09-24.22-1.19-5.97-2.42-12.15-5.09-24.25-2.25-10.19-3.57-16.09-4.73-21.31l14.68,20.02c2.51,11.11,4.42,16.91,6.28,22.52,1.93,5.83,3.92,11.86,6.58,23.92,2.68,12.11,4.39,18.21,6.05,24.11,1.65,5.88,3.36,11.96,6.03,24.04,2.66,12.05,3.13,18.33,3.59,24.39.46,6.11.93,12.43,3.61,24.57,2.69,12.17,5.6,18.1,8.41,23.83,2.78,5.67,5.65,11.53,8.31,23.55,2.67,12.09,3.9,18.26,5.08,24.22.83,4.16,1.68,8.45,3.02,14.74l-10.9,5.17ZM1022.95,266.61c-1.3-6.12-2.14-10.34-2.95-14.43-1.18-5.97-2.41-12.15-5.09-24.25-2.69-12.17-5.6-18.1-8.41-23.83-2.78-5.67-5.65-11.53-8.31-23.55-2.66-12.05-3.13-18.33-3.59-24.39-.46-6.11-.93-12.43-3.62-24.57-2.68-12.11-4.39-18.21-6.05-24.11-1.65-5.88-3.36-11.96-6.03-24.04-2.68-12.13-4.68-18.19-6.62-24.04-1.68-5.07-3.4-10.32-5.58-19.53l3.26,4.45,19.85,16.34c.5,4.79,1.32,10.49,3.25,19.21,2.67,12.08,3.67,18.28,4.64,24.27.97,6.01,1.98,12.23,4.66,24.34,2.67,12.09,3.94,18.25,5.16,24.21,1.23,5.96,2.49,12.13,5.17,24.23,2.69,12.17,5.51,18.11,8.23,23.85,2.7,5.68,5.48,11.56,8.14,23.58,2.67,12.08,3.68,18.27,4.67,24.27.95,5.77,1.93,11.75,4.37,22.94l-9.77-7.51-5.39,2.56ZM1095.74,320.43l31.26,30.11,6.53,5.23c-3.49-1.81-6.43-3.06-9.32-4.28-5.76-2.44-11.72-4.95-21.87-11.95-10.14-6.98-14.33-11.78-18.39-16.42-4.11-4.7-8.36-9.55-18.62-16.63-10.23-7.05-15.87-10.06-21.33-12.97-5.42-2.89-11.03-5.89-21.21-12.9-.27-.18-.52-.35-.78-.53l5.47-10.49c.49.34.97.66,1.49,1.02,9.57,6.59,15.05,9.74,20.12,12.58l13.06,10.04,33.58,27.18ZM1086.75,309.9l-16.19-13.11c-.76-2.34-1.49-4.41-2.22-6.45-2.06-5.8-4.19-11.81-6.86-23.86-2.67-12.06-3.28-18.31-3.88-24.36-.6-6.08-1.22-12.38-3.91-24.51-2.67-12.07-3.42-18.3-4.16-24.33-.74-6.06-1.5-12.32-4.18-24.45-2.68-12.14-5.05-18.15-7.33-23.96-2.26-5.76-4.61-11.72-7.27-23.77-2.67-12.07-3.42-18.3-4.14-24.33-.34-2.85-.69-5.76-1.24-9.3l14.77,10.47.83,1.24c.77,4.59,1.8,10.12,3.63,18.4,2.67,12.06,3.21,18.32,3.74,24.37.53,6.1,1.08,12.4,3.77,24.54,2.69,12.18,5.93,18.06,9.07,23.75,3.09,5.61,6.28,11.41,8.94,23.41,2.67,12.07,3.41,18.3,4.13,24.33.72,6.06,1.47,12.33,4.15,24.45,2.69,12.15,5.16,18.14,7.55,23.94,2.11,5.1,4.28,10.37,6.6,19.91l-5.83,3.62ZM1093.71,305.59c-2.31-9.37-4.46-14.62-6.56-19.69-2.37-5.74-4.82-11.68-7.49-23.73-2.67-12.07-3.41-18.3-4.13-24.33-.72-6.06-1.47-12.33-4.15-24.46-2.69-12.19-5.93-18.07-9.07-23.75-3.09-5.61-6.28-11.41-8.94-23.41-2.67-12.06-3.21-18.32-3.74-24.38-.53-6.1-1.08-12.4-3.77-24.54-1.47-6.64-2.42-11.49-3.13-15.52l21.85,32.82,6.02,7.65c1.13,4.7,2.45,10.34,4.39,19.15,2.66,12.01,2.33,18.4,2.01,24.58-.32,6.26-.66,12.73,2.04,24.91,2.68,12.13,4.84,18.17,6.93,24.01,2.07,5.8,4.22,11.8,6.88,23.86,2.67,12.09,3.87,18.27,5.02,24.24.93,4.79,1.89,9.77,3.61,17.77l-7.76,4.82ZM1102.62,300.06c-1.66-7.74-2.6-12.61-3.51-17.31-1.16-5.98-2.35-12.16-5.03-24.27-2.68-12.14-4.84-18.17-6.93-24.01-2.07-5.8-4.22-11.8-6.88-23.86-2.66-12.01-2.33-18.4-2.01-24.58.32-6.26.66-12.74-2.04-24.91-1.6-7.23-2.77-12.31-3.76-16.5l15.19,19.31c1.59,8.46,1.86,13.66,2.12,18.7.31,6.14.64,12.49,3.32,24.63,2.69,12.15,5.25,18.13,7.74,23.91,2.46,5.73,5,11.65,7.66,23.69,2.68,12.1,4.14,18.23,5.57,24.16.85,3.56,1.73,7.21,2.87,12.16l-14.3,8.87ZM1126.37,285.33l-8.31,5.16c-1.09-4.74-1.94-8.29-2.77-11.76-1.42-5.92-2.89-12.05-5.56-24.14-2.69-12.16-5.25-18.13-7.74-23.92-2.46-5.73-5-11.65-7.66-23.69-2.66-12.04-2.98-18.34-3.29-24.43-.23-4.6-.49-9.34-1.72-16.51l2.41,3.07.14.18,15.69,9.68c2.1,5.67,4.28,11.65,6.89,23.44,2.65,12,2.06,18.42,1.49,24.64-.58,6.31-1.18,12.83,1.52,25.03,2.68,12.13,4.66,18.19,6.57,24.05.9,2.75,1.82,5.59,2.81,9.05l-.48.14ZM1128.05,284.83c-1-3.47-1.92-6.32-2.82-9.08-1.9-5.83-3.87-11.87-6.54-23.93-2.65-12-2.06-18.42-1.49-24.64.58-6.31,1.18-12.83-1.52-25.03-2.39-10.83-4.43-16.79-6.37-22.09l11.91,7.35c.67,3.34,1.5,7.27,2.58,12.17,2.67,12.09,3.81,18.27,4.9,24.25,1.1,5.99,2.23,12.18,4.91,24.29,2.68,12.12,4.54,18.2,6.35,24.08.79,2.57,1.59,5.21,2.47,8.34l-14.36,4.29ZM1143.63,280.18c-.88-3.14-1.68-5.78-2.47-8.35-1.8-5.85-3.65-11.91-6.32-23.98-2.67-12.08-3.8-18.26-4.9-24.24-1.1-5.99-2.23-12.18-4.91-24.29-.96-4.34-1.71-7.91-2.34-10.99l7.4,4.56,4.62,11.39c2,7.4,3.89,11.99,5.74,16.44,2.38,5.74,4.84,11.68,7.5,23.72,2.67,12.06,3.35,18.31,4.02,24.34.29,2.65.6,5.38,1.06,8.58l-9.4,2.81ZM1154.25,277c-.45-3.11-.75-5.77-1.03-8.36-.67-6.07-1.36-12.35-4.04-24.48-1.04-4.69-2.04-8.45-3.03-11.65l1.39,3.44.07.17,19.7,24.38c.19,1.51.35,2.94.51,4.35.28,2.43.57,4.93.98,7.79l-14.56,4.35ZM1170.25,272.22l-.22.06c-.39-2.77-.68-5.2-.95-7.57-.09-.77-.18-1.55-.27-2.35l5.35,6.62-3.91,3.23ZM1176.11,267.38l-10.58-13.1.18-11.15c1.21,1.26,2.48,2.64,3.83,4.19,5.97,6.83,9.38,11.49,12.07,15.53l-5.49,4.54ZM1182.59,262.03c-2.7-4.05-6.12-8.73-12.09-15.55-1.7-1.94-3.27-3.63-4.76-5.14l.33-20.72c3.52,4.05,7.48,8.61,14.39,16.5,6.36,7.26,9.74,12.13,12.44,16.4l-10.31,8.51ZM1193.88,252.7c-2.71-4.28-6.12-9.17-12.47-16.42-7.51-8.58-11.55-13.23-15.31-17.56l.23-14.47.02-5.01c3.17,3.93,5.38,6.94,7.54,9.87,3.61,4.91,7.34,10,15.52,19.34,6.77,7.73,10.25,12.69,13.13,17.09l-8.67,7.16ZM1205.46,243.14l-1.93,1.59c-2.89-4.41-6.4-9.39-13.16-17.11-8.14-9.3-11.86-14.36-15.45-19.25-2.38-3.24-4.83-6.57-8.55-11.12l.05-10.71c6.66,7.56,10.52,11.72,14.26,15.73,4.15,4.47,8.44,9.09,16.6,18.4,8.18,9.35,12.89,13.67,17.44,17.85.16.15.33.31.5.46l-9.75,4.17ZM1216.48,238.42c-.3-.28-.61-.57-.92-.84-4.53-4.16-9.21-8.45-17.34-17.75-8.17-9.33-12.46-13.95-16.62-18.43-3.9-4.2-7.94-8.54-15.17-16.78l.1-21.02.27-4.57c3.15,2.9,6.79,6.55,11.54,11.97,8.17,9.34,12.65,13.83,16.98,18.17,4.32,4.33,8.78,8.81,16.93,18.11,8.15,9.31,12,14.26,15.73,19.06,1.32,1.7,2.67,3.44,4.21,5.36l-15.7,6.72ZM1233.38,231.19c-1.63-2.03-3.04-3.85-4.42-5.62-3.74-4.81-7.6-9.78-15.78-19.12-8.17-9.34-12.65-13.83-16.98-18.17-4.32-4.33-8.78-8.81-16.93-18.11-5.17-5.91-9.04-9.73-12.39-12.76l1.08-18.54c1.63,1.32,3.17,2.5,4.69,3.65,4.98,3.78,10.13,7.69,18.25,16.97,8.12,9.28,11.42,14.65,14.61,19.85,3.22,5.24,6.54,10.66,14.74,20.02,8.16,9.32,12.26,14.1,16.23,18.72,2.2,2.56,4.46,5.19,7.41,8.61l-10.51,4.5ZM1246.99,225.36l-1.89.81c-3.09-3.56-5.41-6.27-7.67-8.91-3.97-4.62-8.07-9.4-16.24-18.73-8.12-9.28-11.42-14.65-14.61-19.85-3.22-5.24-6.54-10.66-14.74-20.02-8.2-9.37-13.4-13.32-18.43-17.14-1.73-1.31-3.48-2.65-5.36-4.21l.81-13.89.75-2.24c5.16,5.73,8.6,9.25,11.92,12.63,4.28,4.36,8.7,8.87,16.85,18.18,8.13,9.29,11.56,14.56,14.87,19.66,3.34,5.14,6.79,10.45,14.98,19.81,8.21,9.38,13.61,13.18,18.83,16.85,3.64,2.56,7.38,5.22,12.11,9.79l-12.19,7.25ZM1260.31,217.44c-4.9-4.78-8.76-7.52-12.51-10.16-5.16-3.63-10.5-7.39-18.61-16.65-8.13-9.29-11.56-14.56-14.87-19.66-3.34-5.14-6.79-10.45-14.98-19.81-8.17-9.33-12.61-13.86-16.9-18.24-3.41-3.48-6.95-7.1-12.36-13.13l5.36-16c.29.33.56.65.86.99,8.15,9.31,12.01,14.26,15.74,19.05,3.74,4.81,7.61,9.77,15.79,19.11,8.16,9.32,12.23,14.11,16.17,18.75,3.94,4.64,8.02,9.44,16.18,18.76,8.21,9.37,13.53,13.23,18.69,16.96,4.18,3.03,8.5,6.18,14.39,12.32l-12.94,7.69ZM1274.36,209.08c-6.07-6.36-10.49-9.58-14.77-12.68-5.09-3.69-10.36-7.5-18.48-16.77-8.16-9.32-12.23-14.11-16.17-18.75-3.94-4.64-8.02-9.44-16.18-18.76-8.15-9.31-12.01-14.26-15.74-19.06-3.74-4.8-7.61-9.77-15.78-19.11-.48-.54-.9-1.04-1.34-1.56l3.94-11.75c1.4,1.8,2.99,3.75,4.87,5.9,8.21,9.38,13.69,13.12,18.99,16.74,5.23,3.57,10.65,7.27,18.75,16.53,8.09,9.25,10.66,15.16,13.15,20.88,2.53,5.81,5.14,11.82,13.36,21.21,8.2,9.37,13.37,13.34,18.38,17.18,4.5,3.45,9.15,7.03,16.04,14.6l-9.03,5.37ZM1285.52,202.44l-1.02.6c-7.06-7.78-11.8-11.43-16.38-14.95-4.96-3.8-10.08-7.73-18.2-17.01-8.1-9.25-10.67-15.16-13.15-20.88-2.52-5.81-5.14-11.82-13.36-21.21-8.21-9.38-13.69-13.12-18.99-16.74-5.23-3.57-10.65-7.27-18.75-16.53-2.1-2.4-3.84-4.54-5.34-6.51l3.93-11.74,1.92-5.26c2.93,3.18,6.43,7.07,11.33,12.67,8.14,9.3,11.79,14.41,15.32,19.35,3.55,4.97,7.22,10.1,15.4,19.45,8.19,9.36,13.15,13.49,17.94,17.49,4.76,3.97,9.67,8.07,17.8,17.35,8.14,9.3,11.8,14.4,15.34,19.34,3.55,4.95,7.23,10.07,15.38,19.39l-9.19,5.21ZM1295.83,196.6c-.05-.05-.09-.11-.14-.16-8.14-9.3-11.8-14.4-15.34-19.34-3.56-4.96-7.23-10.09-15.41-19.43-8.19-9.36-13.15-13.49-17.94-17.49-4.76-3.97-9.67-8.07-17.8-17.35-8.14-9.3-11.79-14.41-15.32-19.35-3.55-4.96-7.22-10.1-15.4-19.44-5.16-5.89-8.78-9.89-11.8-13.17l5.55-15.21c.04.05.08.1.13.16,3.8,4.76,7.72,9.69,15.89,19.02,8.15,9.31,11.98,14.28,15.68,19.1,3.71,4.83,7.56,9.82,15.73,19.16,8.13,9.29,11.62,14.52,15,19.58,3.4,5.09,6.91,10.35,15.1,19.71,8.22,9.39,13.89,12.99,19.37,16.47,5.41,3.43,10.99,6.98,19.09,16.23.94,1.07,1.79,2.07,2.62,3.03l-14.99,8.5ZM1311.94,187.46c-.87-1.02-1.78-2.08-2.79-3.23-8.22-9.39-13.89-12.99-19.37-16.47-5.41-3.43-11-6.98-19.09-16.24-8.13-9.29-11.62-14.52-15-19.57-3.4-5.09-6.91-10.35-15.1-19.71-8.15-9.31-11.98-14.28-15.68-19.1-3.72-4.83-7.56-9.82-15.73-19.16-8.15-9.31-12.07-14.22-15.85-18.97-.2-.25-.41-.51-.61-.76l4.56-12.49c1.97,1.62,3.8,3,5.59,4.35,5.01,3.75,10.2,7.64,18.31,16.91,8.16,9.32,12.43,13.97,16.56,18.47,4.12,4.49,8.38,9.14,16.54,18.46,8.16,9.33,12.42,13.99,16.53,18.49,4.11,4.5,8.36,9.16,16.51,18.47,8.1,9.26,10.88,15.02,13.57,20.59,2.73,5.64,5.54,11.48,13.76,20.87,1.63,1.86,3.11,3.5,4.5,5l-7.22,4.09ZM1324.83,180.17l-.11.05-4.42,2.51c-1.43-1.54-2.98-3.25-4.68-5.19-8.1-9.26-10.88-15.02-13.57-20.58-2.73-5.65-5.54-11.48-13.76-20.87-8.16-9.33-12.42-13.99-16.53-18.49-4.11-4.5-8.36-9.16-16.51-18.47-8.17-9.33-12.43-13.98-16.56-18.48-4.12-4.49-8.38-9.13-16.54-18.45-8.2-9.37-13.44-13.29-18.51-17.09-1.89-1.41-3.81-2.86-5.89-4.59l1.79-4.91,35.43,26.12,2.33,1.39c3.92,4.06,6.92,6.8,9.85,9.46,4.55,4.14,9.26,8.41,17.4,17.71,8.14,9.3,11.95,14.3,15.63,19.13,3.69,4.85,7.51,9.86,15.69,19.19,8.13,9.28,11.43,14.65,14.63,19.84,3.23,5.23,6.56,10.64,14.75,20.01,3.19,3.65,5.92,6.48,8.35,8.81l-8.77,2.93ZM1334.96,176.79c-2.53-2.39-5.38-5.33-8.76-9.19-8.12-9.28-11.43-14.65-14.63-19.84-3.23-5.23-6.56-10.65-14.76-20.01-8.14-9.3-11.95-14.3-15.63-19.13-3.69-4.85-7.51-9.86-15.69-19.19-8.18-9.35-12.92-13.65-17.5-17.81-1.99-1.81-4.02-3.66-6.35-5.93l34.25,20.37,8.23,6.3c2.39,2.86,4.3,5.2,6.17,7.48,3.85,4.72,7.83,9.6,15.99,18.93,8.19,9.35,13.04,13.56,17.74,17.64,4.66,4.04,9.48,8.23,17.61,17.51,6.22,7.11,9.17,12.24,11.34,16.84l-18.03,6.03ZM1354.2,170.36c-2.21-4.71-5.2-9.96-11.6-17.27-8.19-9.35-13.04-13.56-17.74-17.64-4.66-4.04-9.48-8.23-17.61-17.51-8.15-9.31-12.12-14.18-15.96-18.89-.86-1.05-1.73-2.12-2.65-3.24l24.85,19.02,17.06,10.67c.68.84,1.34,1.65,1.99,2.46,3.82,4.74,7.78,9.64,15.95,18.97,8.15,9.31,12.11,14.19,15.95,18.9.23.29.47.58.7.86l-10.93,3.66ZM1367.86,165.79l-1.44.48c-.33-.41-.68-.83-1.01-1.23-3.84-4.72-7.81-9.61-15.98-18.94-7.93-9.05-11.87-13.93-15.59-18.54l19.93,12.47,4.91,4.06c6.16,6.63,10.42,10.05,14.56,13.37.78.63,1.58,1.27,2.38,1.93l-7.76,6.39ZM1535.39,425.55c1.11-1.79,2.09-3.46,3.05-5.1,3.12-5.32,6.35-10.83,13.99-20.52,7.63-9.68,12.45-13.77,17.11-17.73,4.71-4,9.58-8.14,17.29-17.91,7.73-9.8,10.27-15.99,12.74-21.97,2.43-5.91,4.94-12.01,12.56-21.67,7.64-9.69,12.18-14.05,16.57-18.26,2.31-2.22,4.67-4.49,7.49-7.53l10.07,8.73c-2.07,2.97-3.72,5.48-5.31,7.92-3.35,5.14-6.8,10.45-14.46,20.15-7.63,9.68-12.46,13.76-17.13,17.71-4.72,3.99-9.6,8.12-17.31,17.9-7.69,9.76-11.04,15.21-14.28,20.49-3.22,5.25-6.54,10.67-14.19,20.37-2.15,2.73-3.97,5.11-5.56,7.24l-22.63,10.2ZM1636.41,352.24l-22.59,37.18-18.3,8.6c3.6-4,7.64-8.63,14.24-17,7.73-9.8,10.26-16,12.71-22,2.42-5.92,4.91-12.04,12.53-21.69,7.66-9.71,11.89-14.34,15.99-18.83.77-.84,1.54-1.69,2.34-2.57l-16.91,36.3ZM1655.18,311.96c-1.86,2.12-3.51,3.93-5.13,5.7-4.11,4.5-8.36,9.15-16.05,18.9-7.73,9.8-10.26,16-12.71,22-2.42,5.92-4.91,12.04-12.53,21.69-7.66,9.71-11.87,14.37-15.94,18.87-.09.1-.18.2-.26.29l-19.46,9.14-12.68,5.72c1.24-1.64,2.61-3.41,4.16-5.37,7.69-9.75,11.04-15.21,14.28-20.49,3.22-5.25,6.54-10.67,14.19-20.37,7.63-9.68,12.46-13.76,17.13-17.71,4.72-3.99,9.6-8.12,17.31-17.9,7.69-9.75,11.16-15.08,14.53-20.25,1.56-2.4,3.18-4.87,5.21-7.77l8.17,7.09-.21.46ZM1657.16,309.68l-9.44-8.19c3.31.03,6.12-.01,8.84-.06,4.93-.09,10.01-.17,18.23.2l-17.63,8.05ZM1698.65,290.72l-21.36,9.76c-9.73-.51-15.34-.42-20.75-.32-3.12.06-6.3.11-10.29.05l-18.18-15.76c1.32.08,2.7.17,4.19.26,12.4.78,18.77.55,24.93.33,6.13-.22,12.48-.44,24.81.33,9.7.61,15.48,2.2,20.35,3.96l-3.69,1.4ZM1632.29,273.32c12.37.77,18.67,1.06,24.77,1.33,6.09.27,12.38.55,24.74,1.33,12.43.78,18.88-.04,25.12-.82,6.19-.78,12.58-1.59,24.88-.82,3.1.19,5.8.43,8.21.7l-35.87,13.6c-5.26-1.98-11.28-3.86-22.07-4.53-12.4-.78-18.77-.55-24.93-.33-6.13.22-12.48.44-24.81-.33-2.12-.13-4.05-.25-5.84-.36l-.31-.27-2.16-10.24c2.43.3,5.14.55,8.27.75ZM1623.85,284.44l.55.19,10.83,9.39c-2.79,3.01-5.12,5.26-7.41,7.45-4.42,4.24-8.99,8.63-16.69,18.39-7.73,9.8-10.27,15.99-12.74,21.97-2.43,5.91-4.94,12.01-12.56,21.67-7.63,9.68-12.45,13.77-17.11,17.73-4.71,4-9.58,8.14-17.29,17.91-7.7,9.76-10.95,15.31-14.09,20.67-1.24,2.11-2.51,4.26-4.05,6.68l-1.23.56-28.08,13.29c.75-.92,1.52-1.88,2.33-2.91,7.69-9.75,11.16-15.09,14.51-20.26,3.34-5.14,6.79-10.46,14.44-20.17,7.65-9.69,12.12-14.1,16.45-18.37,4.36-4.29,8.87-8.73,16.56-18.49,7.68-9.73,11.48-14.77,15.15-19.65,3.67-4.87,7.46-9.9,15.13-19.62,7.69-9.75,11.07-15.18,14.34-20.43,2.73-4.38,5.57-8.93,10.94-16.01ZM1772.63,226.48l22.09,10.45c-3.47.05-7.54-.03-12.64-.34-12.33-.77-18.53-1.77-24.53-2.73-6.03-.97-12.26-1.97-24.65-2.74-12.33-.77-18.51-1.91-24.49-3-6.01-1.1-12.23-2.25-24.63-3.02-12.4-.78-18.8-.39-24.98,0-6.15.38-12.5.76-24.83,0-7.97-.5-13.42-.76-17.92-.94l-.97-9.99-.27-1.49c4.79-.06,10.52.02,19.32.57,12.35.77,18.58,1.54,24.6,2.28,6.05.74,12.3,1.51,24.68,2.29,12.38.77,18.71.85,24.83.92,6.11.07,12.42.14,24.77.91,11.63.73,18.04,0,23.94-.78l15.67,7.65ZM1735.18,208.2l19.72,9.62c-5.36.67-11.52,1.17-21.8.53-12.38-.77-18.71-.85-24.83-.92-6.11-.07-12.42-.14-24.77-.91-12.35-.77-18.58-1.54-24.6-2.28-6.05-.74-12.3-1.51-24.68-2.29-8.97-.56-14.77-.63-19.63-.57l-3.17-17.47c5.69.64,11.91,1.3,23.44,2.02,12.31.77,18.43,2.33,24.34,3.84,5.98,1.52,12.15,3.1,24.58,3.87,12.35.77,18.58,1.51,24.62,2.22,6.05.72,12.3,1.45,24.68,2.23.73.05,1.42.08,2.11.11ZM1729.62,205.49l2.62,1.28c-11.74-.75-17.83-1.47-23.71-2.17-6.05-.72-12.3-1.45-24.68-2.23-12.31-.77-18.43-2.33-24.34-3.84-5.98-1.52-12.15-3.1-24.58-3.87-11.76-.74-17.98-1.41-23.75-2.05l-.29-1.58-2.11-11.28c.58.04,1.16.08,1.73.12,6.08.41,12.36.84,24.73,1.61,12.31.77,18.45,2.18,24.39,3.55,5.99,1.38,12.18,2.8,24.6,3.58,6.54.41,11.36.75,15.36,1.05l30.03,15.83ZM1662.62,172.46l24.63,10.7,9.53,5.02c-3.41-.25-7.43-.52-12.47-.84-12.31-.77-18.45-2.18-24.39-3.55-5.99-1.38-12.18-2.8-24.6-3.58-12.36-.77-18.65-1.2-24.72-1.61-.68-.05-1.37-.09-2.06-.14l-1.95-10.45-.27-1.21c1.54.02,3.02.04,4.46.06,6.11.06,12.42.13,24.77.9,12.3.77,18.41,2.4,24.32,3.99.9.24,1.82.48,2.75.72ZM1612.56,151.71l30.88,12.42,11.73,5.09c-4.75-1.14-10.48-2.17-19.54-2.73-12.38-.77-18.71-.84-24.84-.9-1.53-.02-3.1-.03-4.75-.06l-2.95-13.46c3.03-.05,5.64-.17,8.19-.3.42-.02.85-.04,1.28-.06ZM1609.74,150.58c-2.14.1-4.39.19-6.93.23l-.72-3.3,7.65,3.08ZM1407.72,137.64l1.75,1.48c-.93,1.22-1.78,2.36-2.58,3.43l.83-4.91ZM1406.43,145.3c1.21-1.63,2.52-3.39,4.01-5.36l7.69,6.51c-2.05,2.68-3.76,4.93-5.41,7.13-2.71,3.59-5.5,7.29-9.85,12.87l3.57-21.14ZM1400.74,178.96l.15-.87.34-2.02,1.18-7.01c5.19-6.64,8.31-10.76,11.3-14.73,1.65-2.18,3.34-4.42,5.37-7.07l12.13,10.27c-1.56,2.6-2.82,4.92-4.04,7.18-2.94,5.48-5.98,11.14-13.62,20.82-7.66,9.71-11.87,14.36-15.94,18.87-.55.6-1.1,1.21-1.65,1.83l4.78-27.28ZM1395.54,208.6c1.04-1.17,2.03-2.26,3.01-3.34,4.09-4.52,8.32-9.19,16-18.93,7.71-9.77,10.77-15.48,13.74-21.01,1.18-2.2,2.4-4.45,3.9-6.95l9.43,7.98c-1.6,1.92-3.05,3.62-4.46,5.28-3.94,4.64-8.02,9.44-15.7,19.17-7.66,9.71-11.75,14.49-15.7,19.1-3.51,4.1-7.14,8.34-13.26,16.02l3.04-17.32ZM1392.06,228.52c7-8.84,10.9-13.39,14.67-17.79,3.96-4.62,8.06-9.41,15.73-19.14,7.66-9.72,11.73-14.51,15.67-19.14,1.4-1.65,2.84-3.34,4.44-5.25l9.15,9.44c-1.26.91-2.5,1.77-3.72,2.59-5.25,3.55-10.68,7.21-18.41,17.02-7.7,9.76-10.95,15.3-14.1,20.66-3.12,5.32-6.35,10.83-14,20.52-6.52,8.26-10.43,12.97-13.87,17.04l4.44-25.94ZM1383.99,275.67l3.21-18.75c3.81-4.5,7.86-9.31,15.28-18.71,7.7-9.76,10.95-15.3,14.1-20.66,3.12-5.32,6.35-10.83,14-20.52,7.61-9.65,12.96-13.26,18.13-16.75,1.28-.86,2.57-1.76,3.9-2.72l8.84,9.12c-.37.7-.75,1.41-1.11,2.11-2.88,5.53-5.85,11.25-13.49,20.93-7.64,9.68-12.31,13.92-16.83,18.01-4.56,4.13-9.27,8.4-16.97,18.16-7.66,9.71-11.87,14.36-15.95,18.87-3.94,4.35-8.01,8.85-15.16,17.87l2.05-6.95ZM1380.97,285.89c.37-.47.73-.94,1.12-1.44,7.66-9.71,11.87-14.36,15.95-18.86,4.09-4.52,8.32-9.19,16-18.93,7.64-9.68,12.31-13.92,16.83-18.01,4.56-4.13,9.27-8.4,16.97-18.16,7.71-9.77,10.71-15.54,13.62-21.12.3-.57.61-1.16.91-1.74l.41.43,1.94,2.02,7.79,8.04c-3.13,5.2-6.44,10.64-13.97,20.18-7.62,9.66-12.77,13.45-17.76,17.11-5.05,3.71-10.28,7.55-18,17.34-7.68,9.73-11.48,14.77-15.16,19.63-3.67,4.86-7.47,9.89-15.14,19.61-7.68,9.73-11.47,14.78-15.14,19.66-1.95,2.6-3.95,5.26-6.54,8.63l10.15-34.39ZM1369.96,323.47c3.55-4.59,6.02-7.87,8.42-11.06,3.66-4.87,7.45-9.91,15.12-19.63,7.68-9.73,11.48-14.77,15.16-19.63,3.67-4.86,7.47-9.89,15.14-19.61,7.62-9.66,12.77-13.45,17.76-17.11,5.05-3.71,10.28-7.55,18-17.34,7.49-9.49,10.82-14.95,13.94-20.13l8.9,6.02c-4.16,4.32-8.52,8.88-16.07,18.45-7.73,9.8-10.23,16.03-12.65,22.05-2.39,5.94-4.86,12.09-12.47,21.74-7.65,9.69-12.15,14.08-16.5,18.32-4.38,4.27-8.92,8.69-16.61,18.45-7.66,9.71-11.85,14.39-15.91,18.91-3.56,3.97-7.25,8.09-13.27,15.59l-8.95-15.01ZM1379.6,339.64c6.18-7.72,9.91-11.88,13.52-15.91,4.07-4.54,8.27-9.23,15.96-18.97,7.65-9.69,12.15-14.08,16.5-18.32,4.38-4.27,8.92-8.69,16.61-18.45,7.73-9.8,10.23-16.03,12.65-22.05,2.39-5.94,4.85-12.09,12.47-21.74,7.6-9.64,11.95-14.17,16.14-18.51l14.33,9.7c-.17.17-.34.34-.51.51-4.33,4.32-8.81,8.78-16.5,18.53-7.65,9.7-12,14.23-16.21,18.62-4.23,4.4-8.59,8.96-16.29,18.71-7.7,9.77-10.86,15.39-13.91,20.84-3.03,5.4-6.16,10.99-13.8,20.67-7.65,9.7-12.01,14.23-16.22,18.6-4.23,4.4-8.61,8.95-16.3,18.7-.39.49-.74.94-1.11,1.41l-7.35-12.33ZM1390.79,358.43l-3.15-5.3c.46-.58.92-1.17,1.41-1.79,7.65-9.7,12.01-14.23,16.22-18.6,4.23-4.4,8.61-8.95,16.3-18.7,7.7-9.76,10.86-15.39,13.91-20.84,3.03-5.4,6.16-10.99,13.8-20.67,7.65-9.7,12-14.23,16.2-18.61,4.23-4.4,8.59-8.96,16.29-18.71,7.65-9.7,12.1-14.13,16.4-18.42.23-.22.45-.45.68-.68l7.65,5.18c-.17.24-.34.48-.51.71-3.53,4.98-7.19,10.13-14.85,19.85-7.71,9.78-10.67,15.59-13.53,21.21-2.83,5.57-5.76,11.32-13.4,21-7.61,9.65-12.96,13.26-18.13,16.75-5.25,3.54-10.68,7.21-18.41,17.01-7.72,9.79-10.4,15.86-12.99,21.73-2.56,5.8-5.2,11.79-12.82,21.46-1.86,2.36-3.55,4.35-5.13,6.11l-5.95-8.69ZM1397.48,368.2c1.65-1.83,3.43-3.92,5.39-6.4,7.72-9.79,10.4-15.86,12.99-21.73,2.56-5.8,5.2-11.8,12.82-21.46,7.61-9.65,12.96-13.26,18.13-16.75,5.25-3.54,10.68-7.21,18.41-17.01,7.71-9.78,10.67-15.59,13.53-21.21,2.83-5.57,5.76-11.32,13.4-21,7.68-9.74,11.34-14.9,14.89-19.9.17-.24.35-.49.52-.74l1.64,1.11,9.44,3.86c-.73.84-1.45,1.65-2.16,2.45-4.03,4.57-8.2,9.29-15.88,19.03-7.72,9.78-10.53,15.73-13.26,21.47-2.69,5.68-5.48,11.56-13.11,21.23-7.67,9.73-11.64,14.61-15.48,19.33-3.84,4.72-7.81,9.6-15.49,19.33-7.66,9.71-11.83,14.41-15.85,18.96-4.04,4.56-8.22,9.27-15.9,19.01-3.06,3.88-5.62,6.9-7.87,9.41l-6.17-9ZM1404.38,378.27c2.31-2.57,4.95-5.68,8.12-9.7,7.66-9.71,11.83-14.41,15.85-18.96,4.04-4.56,8.22-9.27,15.9-19.01,7.67-9.72,11.63-14.6,15.47-19.32,3.84-4.72,7.82-9.61,15.5-19.34,7.72-9.78,10.53-15.72,13.26-21.47,2.69-5.68,5.48-11.56,13.11-21.23,7.66-9.71,11.82-14.42,15.84-18.97.8-.9,1.61-1.83,2.45-2.79l13.61,5.56c-1.67,2.05-3.16,3.85-4.61,5.61-3.87,4.7-7.88,9.55-15.55,19.29-7.72,9.79-10.47,15.79-13.13,21.6-2.63,5.74-5.35,11.67-12.97,21.34-7.64,9.69-12.2,14.03-16.61,18.22-4.44,4.22-9.04,8.59-16.74,18.35-7.68,9.74-11.32,14.93-14.84,19.94-3.51,5-7.14,10.17-14.8,19.89-4.94,6.26-8.11,10.71-10.62,14.48l-9.23-13.48ZM1414.3,393c2.56-3.86,5.78-8.42,10.93-14.95,7.68-9.74,11.32-14.93,14.84-19.94,3.51-5,7.14-10.18,14.8-19.89,7.64-9.69,12.2-14.02,16.61-18.22,4.44-4.22,9.04-8.59,16.74-18.35,7.72-9.79,10.47-15.79,13.13-21.6,2.63-5.74,5.35-11.67,12.97-21.34,7.67-9.72,11.67-14.57,15.54-19.26,1.52-1.84,3.08-3.74,4.85-5.92l11.85,4.84c-2.29,3.55-3.94,6.52-5.52,9.41-2.98,5.44-6.07,11.07-13.71,20.75-7.67,9.72-11.62,14.63-15.43,19.37-3.82,4.74-7.77,9.65-15.44,19.38-7.64,9.68-12.32,13.91-16.84,17.99-4.56,4.12-9.28,8.38-16.99,18.15-7.71,9.78-10.65,15.61-13.48,21.26-2.81,5.59-5.71,11.36-13.35,21.04-7.64,9.68-11.63,14.53-15.48,19.21l-6.01-11.93ZM1420.93,406.17c.1-.12.2-.25.3-.37,3.87-4.7,7.87-9.56,15.55-19.29,7.71-9.78,10.65-15.61,13.48-21.26,2.81-5.59,5.71-11.36,13.35-21.04,7.64-9.68,12.32-13.91,16.84-17.99,4.56-4.12,9.28-8.38,16.99-18.15,7.67-9.72,11.62-14.63,15.43-19.37,3.82-4.74,7.77-9.65,15.44-19.38,7.7-9.77,10.82-15.44,13.82-20.93,1.6-2.91,3.26-5.92,5.6-9.53l2.33.95,12.32,11.75c-2.7,2.6-5.08,4.56-7.41,6.45-4.81,3.91-9.79,7.96-17.51,17.74-7.66,9.71-11.83,14.41-15.86,18.95-4.04,4.55-8.23,9.26-15.91,19.01-7.68,9.74-11.28,14.97-14.76,20.02-3.47,5.04-7.05,10.24-14.71,19.95-7.7,9.76-10.88,15.38-13.95,20.81-3.05,5.39-6.2,10.96-13.84,20.65-7.65,9.7-12.12,14.11-16.44,18.39-1.56,1.54-3.15,3.12-4.88,4.93l-6.19-12.3ZM1432.05,428.24l-4.32-8.58c1.85-1.95,3.53-3.61,5.17-5.24,4.35-4.3,8.84-8.75,16.54-18.5,7.7-9.76,10.88-15.38,13.95-20.81,3.05-5.39,6.2-10.96,13.84-20.65,7.68-9.74,11.28-14.97,14.76-20.02,3.47-5.04,7.05-10.24,14.71-19.95,7.66-9.71,11.83-14.41,15.86-18.95,4.04-4.55,8.23-9.26,15.91-19,7.63-9.67,12.55-13.67,17.31-17.54,2.37-1.92,4.78-3.89,7.54-6.55l6.44,6.14c-1.8,2.49-3.3,4.65-4.77,6.76-3.49,5.02-7.1,10.21-14.76,19.92-7.69,9.75-11.08,15.17-14.36,20.41-3.26,5.21-6.63,10.6-14.28,20.3-7.68,9.73-11.44,14.81-15.08,19.71-3.63,4.9-7.39,9.96-15.05,19.68-7.67,9.72-11.71,14.53-15.62,19.19-3.92,4.66-7.97,9.48-15.64,19.21-7.64,9.69-12.27,13.96-16.74,18.09-2.95,2.73-5.99,5.54-9.88,9.88l-1.52-3.51ZM1434.13,433.03c4.05-4.55,7.16-7.44,10.19-10.23,4.51-4.16,9.18-8.47,16.88-18.24,7.66-9.72,11.71-14.53,15.62-19.18,3.92-4.66,7.97-9.48,15.65-19.22,7.68-9.73,11.44-14.81,15.08-19.71,3.63-4.9,7.39-9.96,15.05-19.68,7.69-9.75,11.08-15.17,14.36-20.41,3.26-5.21,6.63-10.6,14.28-20.3,7.68-9.74,11.3-14.95,14.8-19.98,1.43-2.06,2.91-4.18,4.65-6.6l10.95,10.44.2.19,3.07,1.05c-1.77,2.07-3.35,3.86-4.89,5.6-4.03,4.57-8.2,9.29-15.88,19.03-7.64,9.69-12.23,14-16.66,18.17-4.47,4.2-9.08,8.55-16.78,18.31-7.66,9.71-11.95,14.29-16.1,18.71-4.17,4.45-8.49,9.05-16.17,18.79-7.69,9.75-11.19,15.06-14.58,20.2-3.37,5.12-6.86,10.41-14.51,20.11-7.68,9.74-11.34,14.91-14.88,19.9-3.34,4.72-6.8,9.61-13.66,18.36l-6.66-15.33ZM1589.83,283.76c-3.65,4.88-7.43,9.93-15.1,19.65-7.64,9.68-12.33,13.9-16.87,17.97-4.58,4.11-9.31,8.36-17.02,18.13-7.67,9.73-11.53,14.57-15.38,19.41-3.86,4.85-7.71,9.69-15.39,19.42-7.71,9.78-10.6,15.66-13.39,21.35-2.76,5.63-5.61,11.45-13.25,21.12-7.64,9.68-12.37,13.85-16.96,17.88-4.62,4.07-9.41,8.28-17.12,18.05-1.16,1.47-2.19,2.82-3.16,4.11l-4.85-11.17c7.16-9.12,10.7-14.12,14.12-18.94,3.53-4.98,7.18-10.14,14.84-19.85,7.69-9.75,11.19-15.06,14.58-20.2,3.37-5.12,6.86-10.41,14.51-20.11,7.66-9.7,11.95-14.28,16.1-18.71,4.17-4.45,8.49-9.05,16.18-18.8,7.64-9.69,12.23-14,16.66-18.17,4.47-4.2,9.08-8.55,16.78-18.31,7.66-9.71,11.82-14.42,15.84-18.98,1.64-1.86,3.32-3.77,5.23-6l10.19,3.48c-2.6,3.4-4.61,6.07-6.56,8.68ZM1583.17,267.91l-31.53-30.09-.17-.16-41.06-16.81-35.66-24.07-7.37-7.62,6.25-2.14,42.27-14.97,41.71-16.25,41.76-8.88,4.73,21.58,4.29,22.97,4.16,22.95,2.26,23.29,4.14,23.15,4.37,20.7-40.16-13.67ZM1471.76,461.28c3.75-5.05,6.17-8.67,8.51-12.18,3.4-5.1,6.91-10.37,14.56-20.07,7.65-9.7,12.12-14.11,16.44-18.39,4.35-4.3,8.85-8.75,16.54-18.5,7.72-9.79,10.46-15.8,13.1-21.62,2.62-5.75,5.32-11.69,12.94-21.36,7.64-9.69,12.24-13.99,16.69-18.14,4.48-4.19,9.11-8.52,16.82-18.29,7.67-9.73,11.61-14.64,15.41-19.39,2.8-3.5,5.7-7.12,10.08-12.65l9.73,3.32c-5.23,6.93-8.05,11.43-10.75,15.77-3.25,5.22-6.61,10.62-14.26,20.32-7.67,9.73-11.47,14.77-15.14,19.64-3.67,4.87-7.46,9.9-15.13,19.63-7.65,9.7-12.13,14.11-16.46,18.37-4.36,4.29-8.87,8.73-16.56,18.49-7.69,9.75-11.16,15.09-14.51,20.26-3.34,5.14-6.79,10.46-14.44,20.17-1.46,1.85-2.79,3.48-4.03,4.97l-10.01,4.74-19.53,14.93Z"/>
      <polygon class="cls-1" points="234.95 250.56 234.9 250.6 173.21 319.23 174.15 320.07 235.75 251.54 262.6 231.62 261.84 230.6 234.95 250.56"/>
      <polygon class="cls-1" points="730.29 195.06 706.36 209.2 691.52 265.25 662.08 306.16 663.1 306.9 692.69 265.8 707.45 210.02 730.93 196.15 730.29 195.06"/>
      <polygon class="cls-1" points="864.89 167.53 864.97 167.42 875.56 125.65 874.33 125.34 863.81 166.85 824.27 216.6 825.26 217.39 864.89 167.53"/>
      <polygon class="cls-1" points="982.65 322.2 981.59 321.51 948.97 371.56 956.28 401.56 957.51 401.26 950.33 371.79 982.65 322.2"/>
      <polygon class="cls-1" points="1212.78 259.19 1195.35 274.57 1196.19 275.52 1213.45 260.29 1264.93 240.53 1264.48 239.35 1212.78 259.19"/>
      <polygon class="cls-1" points="1355.68 295.76 1349.75 317.57 1346.02 339.82 1347.27 340.03 1350.99 317.84 1356.91 296.04 1359.44 273.44 1358.18 273.3 1355.68 295.76"/>
    </g>
  </g>
</svg>