<?xml version="1.0" encoding="UTF-8"?>
<svg id="Layer_2" data-name="Layer 2" xmlns="http://www.w3.org/2000/svg" viewBox="0 0 1545.43 390.71">
  <defs>
    <style>
      .cls-1 {
        fill: #00363e;
        stroke-width: 0px;
      }
    </style>
  </defs>
  <g id="Layer_1-2" data-name="Layer 1">
    <g>
      <path class="cls-1" d="M1520.88,355.16l-20.17-37.83-.09-.16-30.34-30.58-24.05-34.88-21.08-37.18-.09-.15-30.57-30.21-24-35.73-.09-.13-32.1-29.07-20.07-39.13-.1-.19-31.42-29.92-29.87-32.18-36.46,36.22-32.91,38.53-40.16,30.62-34.14,10.64-53.63-41.25-45.94-15.46-42.99-22.08-43.08-22.09-44.87-18.03-46.83-14.92-41.05,19.98-.11.05-36.26,26.93-37.72,24.22-38.94,22.12-41,17.15-5.95-8.59-36.43-32.18-40,28.1-.16.11-28.66,37.75-10.39,5.78-2.65-1.99-21.46-17.5-23.17-15.38-20.56-18.39-20.02-19.6-24.42-13.61-17.88-21.97-25-16.23-1.43,1.52-.17-.02-.03.22-16.77,17.84-9.95,23.28-19.52,15.83-14.62,19.16-21.58,15.7-21.12,17.08-24.45,12.17-.19.08-15.07,15.1-6.5-6.11-22.46-18.57-25.52-16.55-21.93,17.47-22.35,15.77-18.18,20.89-21.19,16.56-26.01,11.96-12.79,27.25-18.44,21.99-20.27,21.21-3.5,7.68v6.08l5.62-12.32,5.44-5.69c1.89-1.25,3.49-2.33,5.07-3.39,3.84-2.59,7.81-5.26,15.77-10.26,7.9-4.97,12.44-6.61,16.83-8.2,4.46-1.61,9.08-3.28,17.11-8.33,7.97-5.01,11.97-7.49,15.97-9.97,3.99-2.48,7.99-4.96,15.95-9.96,8.05-5.06,11.46-8.77,14.76-12.35,3.24-3.52,6.59-7.16,14.47-12.11,7.9-4.96,12.47-6.55,16.89-8.09.55-.19,1.13-.4,1.7-.61l-.59,2.51-4.3,11.44.79,3.9c-1.67,1.1-3.55,2.31-5.77,3.71-8,5.03-11.8,8.03-15.48,10.93-3.65,2.88-7.42,5.86-15.35,10.84-7.94,4.99-12.23,7.08-16.38,9.11-4.19,2.04-8.52,4.15-16.52,9.18-7.91,4.97-12.39,6.74-16.71,8.45-4.39,1.73-8.92,3.52-16.95,8.57-7.95,4.99-12.16,7.25-16.23,9.43-4.09,2.19-8.32,4.46-16.31,9.48-2.23,1.4-4.11,2.63-5.78,3.75v1.72c1.84-1.25,3.96-2.64,6.54-4.26,7.95-4.99,12.16-7.25,16.23-9.43,4.09-2.19,8.32-4.46,16.31-9.48,7.91-4.97,12.38-6.74,16.71-8.45,4.39-1.73,8.92-3.52,16.95-8.57,7.94-4.99,12.23-7.08,16.38-9.11,4.19-2.04,8.52-4.15,16.52-9.18,8-5.03,11.8-8.03,15.48-10.93,3.65-2.88,7.42-5.86,15.35-10.84,2.02-1.27,3.76-2.39,5.32-3.41l1.92,9.49.26.07c-.65.39-1.32.8-2.03,1.24-7.96,5-12.1,7.38-16.1,9.68-4.02,2.31-8.17,4.7-16.15,9.71-7.98,5.01-11.94,7.72-15.78,10.33-3.82,2.61-7.78,5.3-15.73,10.3-8.01,5.03-11.74,8.16-15.35,11.19-3.57,3-7.27,6.1-15.19,11.08-7.99,5.02-11.87,7.89-15.61,10.66-3.73,2.76-7.58,5.61-15.52,10.6-7.97,5.01-11.98,7.64-15.85,10.18-.22.14-.43.29-.65.43v1.7c.48-.32.96-.63,1.43-.94,3.87-2.54,7.87-5.16,15.83-10.17,7.99-5.02,11.87-7.89,15.61-10.66,3.73-2.76,7.58-5.61,15.52-10.6,8.01-5.03,11.74-8.16,15.35-11.19,3.57-3,7.27-6.1,15.19-11.08,7.98-5.01,11.94-7.72,15.78-10.33,3.82-2.61,7.78-5.3,15.73-10.3,7.96-5,12.1-7.38,16.1-9.68,4.02-2.31,8.17-4.7,16.15-9.71,1.14-.72,2.18-1.34,3.19-1.92l13.83,3.8,1.3,2.14c-2.94,1.43-6.42,3.3-11.14,6.27-8.03,5.04-11.62,8.42-15.1,11.68-3.43,3.22-6.98,6.55-14.89,11.52-7.99,5.02-11.85,7.91-15.59,10.71-3.71,2.78-7.55,5.66-15.49,10.65-7.95,4.99-12.16,7.23-16.24,9.39-4.1,2.18-8.34,4.43-16.33,9.45-7.88,4.96-12.57,6.34-17.1,7.68-4.62,1.36-9.4,2.78-17.45,7.83-7.99,5.02-11.88,7.86-15.64,10.6-1.83,1.33-3.69,2.69-6.03,4.31v1.73c2.75-1.88,4.83-3.39,6.87-4.88,3.74-2.73,7.61-5.55,15.56-10.55,7.89-4.96,12.57-6.34,17.1-7.67,4.62-1.36,9.4-2.78,17.45-7.83,7.95-4.99,12.16-7.23,16.24-9.39,4.1-2.18,8.34-4.43,16.33-9.45,7.99-5.02,11.85-7.92,15.59-10.71,3.71-2.78,7.55-5.66,15.49-10.65,8.03-5.04,11.62-8.42,15.1-11.68,3.43-3.22,6.98-6.55,14.89-11.52,4.73-2.97,8.19-4.83,11.12-6.25l5.2,8.56,2.82,1.93c-2.89,1.74-6.38,3.87-11.39,7.02-8.04,5.06-11.49,8.71-14.82,12.24-3.27,3.47-6.65,7.05-14.54,12.01-7.9,4.97-12.44,6.62-16.82,8.23-4.45,1.63-9.06,3.31-17.09,8.36-7.96,5-12.04,7.5-15.99,9.91-3.95,2.41-8.03,4.91-16,9.92-8.03,5.05-11.59,8.5-15.03,11.83-3.39,3.29-6.89,6.68-14.79,11.65-7.89,4.96-12.51,6.46-16.98,7.9-4.36,1.41-8.89,2.9-16.31,7.45v1.66c7.75-4.84,12.33-6.33,16.75-7.76,4.55-1.47,9.26-3,17.3-8.05,8.03-5.05,11.59-8.5,15.03-11.83,3.39-3.29,6.89-6.68,14.79-11.65,7.96-5,12.04-7.5,15.99-9.91,3.95-2.41,8.03-4.91,16-9.92,7.9-4.97,12.44-6.62,16.82-8.23,4.45-1.63,9.06-3.31,17.09-8.36,8.04-5.06,11.49-8.71,14.82-12.24,3.27-3.47,6.65-7.05,14.54-12.01,5.33-3.35,8.93-5.54,11.93-7.34l7.44,5.09.66,3.15c-3.04,2.45-6.67,5.19-12.98,9.16-7.99,5.02-11.88,7.87-15.64,10.62-3.74,2.74-7.61,5.57-15.55,10.56-7.91,4.97-12.37,6.77-16.68,8.5-4.37,1.76-8.89,3.57-16.91,8.61-8.06,5.06-11.39,8.93-14.61,12.66-3.15,3.66-6.41,7.44-14.29,12.39-7.96,5-12.07,7.43-16.05,9.78-3.98,2.36-8.11,4.79-16.08,9.81-7.91,4.97-12.42,6.65-16.8,8.28-4.44,1.65-9.03,3.36-17.06,8.41-2.53,1.59-4.66,2.93-6.52,4.09v1.68c2.04-1.27,4.4-2.75,7.28-4.56,7.91-4.97,12.43-6.65,16.8-8.28,4.44-1.65,9.03-3.36,17.06-8.41,7.96-5,12.07-7.43,16.05-9.79,3.98-2.36,8.11-4.79,16.08-9.8,8.06-5.06,11.39-8.93,14.61-12.66,3.15-3.66,6.41-7.44,14.29-12.39,7.91-4.97,12.37-6.77,16.68-8.5,4.37-1.76,8.89-3.57,16.91-8.61,7.99-5.02,11.88-7.87,15.63-10.62,3.74-2.74,7.61-5.57,15.55-10.56,5.99-3.76,9.59-6.44,12.55-8.8l2.38,11.31,4.95,2.19c-3.15,1.45-6.86,3.38-12.07,6.65-7.95,4.99-12.16,7.24-16.24,9.41-4.1,2.18-8.34,4.44-16.33,9.46-7.96,5-12.06,7.47-16.01,9.85-3.96,2.39-8.06,4.86-16.04,9.87-8.05,5.06-11.43,8.85-14.69,12.51-3.19,3.59-6.5,7.3-14.38,12.25-7.95,4.99-12.16,7.25-16.23,9.43-4.09,2.19-8.32,4.46-16.31,9.48-7.9,4.96-12.48,6.52-16.92,8.03-4.51,1.54-9.18,3.12-17.22,8.17-6.79,4.27-10.83,6.55-14.4,8.5v1.62c3.75-2.05,7.89-4.36,15.15-8.92,7.9-4.96,12.48-6.52,16.92-8.03,4.51-1.54,9.18-3.12,17.22-8.18,7.95-4.99,12.16-7.25,16.23-9.43,4.09-2.19,8.32-4.46,16.31-9.48,8.05-5.06,11.42-8.85,14.68-12.51,3.2-3.59,6.5-7.3,14.38-12.25,7.96-5,12.06-7.47,16.01-9.85,3.96-2.39,8.06-4.86,16.04-9.87,7.95-4.99,12.16-7.24,16.24-9.41,4.1-2.18,8.34-4.44,16.33-9.46,5.79-3.64,9.7-5.59,13.06-7.08l7.3,3.22,2.18,4.34c-4.43,1.25-9.14,2.71-16.74,7.49-8.06,5.07-11.35,9.01-14.52,12.83-3.25,3.9-6.31,7.59-14.19,12.53-7.85,4.93-12.58,5.8-17.58,6.71-4.92.9-10,1.83-18.08,6.91-8.04,5.05-11.5,8.68-14.85,12.18-3.29,3.44-6.68,7-14.58,11.96-7.99,5.02-11.89,7.84-15.66,10.56-3.76,2.71-7.64,5.52-15.59,10.51-7.95,4.99-12.17,7.22-16.25,9.38-4.11,2.17-8.35,4.41-16.34,9.43-8,5.03-11.8,8.04-15.47,10.96-2.32,1.85-4.71,3.74-8.19,6.16v1.73c3.95-2.71,6.55-4.77,9.07-6.77,3.64-2.89,7.41-5.88,15.34-10.87,7.94-4.99,12.17-7.22,16.25-9.37,4.11-2.17,8.35-4.41,16.34-9.43,7.99-5.02,11.89-7.84,15.66-10.56,3.76-2.71,7.64-5.51,15.59-10.51,8.04-5.05,11.5-8.68,14.85-12.18,3.29-3.44,6.69-7,14.58-11.96,7.85-4.93,12.58-5.8,17.58-6.71,4.92-.9,10-1.83,18.08-6.91,8.06-5.07,11.35-9.01,14.52-12.83,3.25-3.9,6.31-7.59,14.19-12.54,7.58-4.76,12.23-6.16,16.64-7.4l3.47,6.89,2.51,3.81c-3.38,2.32-7.25,4.93-14.1,9.24-7.93,4.98-12.26,7.01-16.45,8.97-4.23,1.98-8.6,4.02-16.61,9.05-8.03,5.04-11.61,8.44-15.08,11.72-3.42,3.24-6.95,6.58-14.86,11.55-7.93,4.98-12.26,7.02-16.44,8.99-4.22,1.99-8.59,4.04-16.59,9.07-7.92,4.98-12.31,6.9-16.56,8.75-4.3,1.88-8.74,3.81-16.75,8.85-8.01,5.04-11.7,8.25-15.27,11.35-3.53,3.07-7.17,6.24-15.09,11.22-6.86,4.31-10.75,6.91-14.14,9.22l2.48.03c3.03-2.04,6.68-4.45,12.42-8.05,8.01-5.04,11.7-8.25,15.27-11.35,3.53-3.07,7.17-6.24,15.09-11.22,7.92-4.98,12.32-6.9,16.56-8.75,4.3-1.88,8.74-3.81,16.75-8.85,7.93-4.98,12.26-7.02,16.44-8.99,4.22-1.99,8.59-4.04,16.59-9.07,8.03-5.04,11.61-8.44,15.08-11.72,3.42-3.24,6.95-6.58,14.86-11.55,7.93-4.98,12.26-7.01,16.45-8.97,4.23-1.98,8.6-4.02,16.61-9.06,6.86-4.31,10.74-6.93,14.13-9.26l4.67,7.09,4.46,3.08c-4,2.2-8.19,4.52-16.03,9.44-7.94,4.99-12.18,7.2-16.27,9.34-4.12,2.15-8.37,4.38-16.37,9.4-7.92,4.98-12.34,6.83-16.62,8.63-4.33,1.82-8.81,3.7-16.82,8.74-8.08,5.07-11.25,9.22-14.32,13.23-3.13,4.09-6.08,7.95-13.94,12.89-7.93,4.98-12.26,7.01-16.45,8.97-4.23,1.98-8.6,4.02-16.61,9.05-8.03,5.05-11.57,8.54-14.98,11.92-1.75,1.73-3.54,3.49-5.96,5.49l2.17.03c1.84-1.6,3.33-3.06,4.79-4.5,3.36-3.32,6.84-6.76,14.74-11.73,7.93-4.98,12.26-7.01,16.45-8.97,4.23-1.98,8.6-4.02,16.61-9.05,8.08-5.07,11.25-9.22,14.32-13.23,3.13-4.09,6.08-7.95,13.94-12.89,7.92-4.98,12.34-6.83,16.62-8.63,4.33-1.82,8.81-3.7,16.82-8.74,7.94-4.99,12.18-7.2,16.27-9.34,4.12-2.15,8.37-4.38,16.37-9.4,7.95-5,12.13-7.3,16.18-9.52.13-.07.27-.15.4-.22l5.99,4.15,3.04,3.59c-.87.89-1.7,1.77-2.5,2.63-3.25,3.5-6.61,7.12-14.49,12.08-7.98,5.01-11.96,7.68-15.81,10.26-3.84,2.58-7.82,5.24-15.78,10.24-7.98,5.01-11.97,7.67-15.82,10.24-3.85,2.56-7.83,5.21-15.79,10.22-7.87,4.94-12.48,6.01-17.36,7.15-4.78,1.11-9.73,2.26-17.8,7.33-8.02,5.04-11.7,8.26-15.26,11.38-3.52,3.08-7.16,6.27-15.08,11.24-4.05,2.55-7.11,4.42-9.67,5.95l2.69.04c2.15-1.31,4.65-2.85,7.73-4.79,8.02-5.04,11.7-8.26,15.26-11.38,3.52-3.08,7.16-6.27,15.08-11.24,7.87-4.94,12.48-6.01,17.36-7.15,4.78-1.11,9.73-2.26,17.8-7.33,7.98-5.01,11.97-7.67,15.82-10.24,3.85-2.56,7.83-5.21,15.79-10.22,7.98-5.01,11.96-7.68,15.81-10.26,3.84-2.58,7.82-5.24,15.78-10.24,8.05-5.06,11.47-8.75,14.78-12.32.76-.82,1.55-1.66,2.38-2.51l4.92,5.8,2.65,2.52c-1.39,1.14-2.62,2.21-3.82,3.27-3.52,3.08-7.15,6.27-15.07,11.25-8.01,5.03-11.73,8.2-15.32,11.25-3.55,3.02-7.23,6.15-15.15,11.13-7.94,4.99-12.19,7.18-16.29,9.29-4.13,2.13-8.4,4.33-16.4,9.35-7.9,4.97-12.43,6.63-16.81,8.25-4.45,1.64-9.05,3.33-17.08,8.38-8.04,5.05-11.53,8.62-14.91,12.08-1.69,1.73-3.41,3.48-5.73,5.45l2.14.03c1.77-1.58,3.2-3.04,4.61-4.48,3.32-3.39,6.75-6.9,14.64-11.87,7.9-4.97,12.43-6.63,16.81-8.25,4.45-1.64,9.05-3.33,17.08-8.38,7.94-4.99,12.19-7.18,16.29-9.29,4.13-2.13,8.4-4.33,16.4-9.35,8.01-5.03,11.73-8.19,15.32-11.25,3.55-3.02,7.23-6.15,15.15-11.13,8.01-5.04,11.7-8.26,15.25-11.38,1.23-1.08,2.49-2.17,3.92-3.35l6.5,6.18,4.42,2.77c-3.18,1.72-5.67,2.88-8.09,4-4.24,1.96-8.63,3.98-16.63,9.02-8.05,5.06-11.45,8.79-14.74,12.39-3.23,3.54-6.56,7.19-14.45,12.15-7.95,5-12.1,7.36-16.12,9.64-4.03,2.29-8.19,4.66-16.17,9.67-8.02,5.04-11.67,8.33-15.19,11.51-3.48,3.14-7.08,6.38-15,11.36-.25.16-.49.3-.74.45l2.62.04c7.24-4.64,10.71-7.77,14.07-10.79,3.48-3.14,7.08-6.38,15-11.36,7.95-5,12.1-7.36,16.12-9.64,4.03-2.29,8.19-4.66,16.17-9.67,8.05-5.06,11.45-8.79,14.74-12.39,3.23-3.54,6.56-7.19,14.45-12.15,7.93-4.98,12.27-6.99,16.47-8.93,2.62-1.21,5.32-2.47,8.87-4.42l6.34,3.98,3.11,5.21c-4.47,3.08-7.23,5.41-9.88,7.66-3.56,3.02-7.24,6.14-15.16,11.12-7.87,4.95-12.43,6.13-17.25,7.37-4.71,1.22-9.59,2.48-17.65,7.55-8.04,5.05-11.49,8.72-14.81,12.25-3.27,3.47-6.64,7.07-14.53,12.02-7.95,5-12.12,7.33-16.15,9.58-1.56.88-3.15,1.77-4.97,2.81l2.8.04c.99-.56,1.93-1.09,2.87-1.61,4.04-2.26,8.23-4.6,16.21-9.62,8.04-5.05,11.49-8.72,14.81-12.25,3.27-3.47,6.64-7.07,14.53-12.03,7.87-4.95,12.43-6.13,17.25-7.37,4.71-1.22,9.59-2.48,17.65-7.54,8.01-5.03,11.73-8.19,15.33-11.24,2.61-2.22,5.32-4.5,9.69-7.52l3.18,5.32,1.45,4.87c-3.47,2.44-5.86,4.36-8.18,6.23-3.62,2.92-7.37,5.94-15.3,10.92-7.9,4.96-12.48,6.53-16.91,8.05-4.51,1.54-9.17,3.14-17.21,8.19-7.98,5.02-11.9,7.82-15.68,10.53-3.76,2.7-7.66,5.49-15.61,10.48-3.19,2.01-5.77,3.55-8,4.83h2.82c1.74-1.03,3.68-2.2,5.93-3.62,7.99-5.02,11.9-7.82,15.68-10.53,3.77-2.7,7.66-5.49,15.61-10.48,7.9-4.96,12.48-6.53,16.91-8.05,4.51-1.54,9.17-3.14,17.21-8.19,8-5.03,11.78-8.07,15.43-11.02,2.21-1.78,4.49-3.61,7.72-5.9l2.3,7.69,3.07,2.63c-2.75,1.55-4.98,2.71-7.14,3.83-4.13,2.13-8.4,4.34-16.39,9.36-8.07,5.07-11.27,9.19-14.35,13.16-3.15,4.06-6.12,7.89-13.98,12.83-6.75,4.24-10.83,6.44-14.44,8.29h3.08c3.1-1.64,6.77-3.72,12.12-7.08,8.07-5.07,11.27-9.18,14.35-13.16,3.15-4.06,6.12-7.89,13.99-12.83,7.94-4.99,12.18-7.18,16.29-9.3,2.28-1.18,4.65-2.41,7.63-4.1l7.71,6.62-1.54,7.52c-1.71,1.35-3.15,2.59-4.57,3.8-3.54,3.04-7.21,6.19-15.13,11.16-7.89,4.96-12.52,6.45-16.99,7.89-4.56,1.47-9.27,2.98-17.31,8.04-.8.5-1.54.98-2.26,1.44h2.64c.13-.08.25-.16.38-.24,7.89-4.96,12.52-6.45,16.99-7.89,4.56-1.47,9.27-2.98,17.31-8.04,8.01-5.03,11.72-8.21,15.3-11.29,1.02-.87,2.06-1.76,3.19-2.69l-1.44,7.05,2.04,3.68c-4.04,1.35-8.51,3.07-15.51,7.47-7.28,4.58-10.6,8.35-13.45,11.96h1.82c2.69-3.32,5.86-6.65,12.38-10.75,7-4.4,11.42-6.07,15.45-7.41l4.52,8.17,6.17,9.99h2.97l-6.96-11.26-6.78-12.25,3.55-17.3-12.5-10.72-4.01-13.44-7.54-12.7-12.35-7.72-9.95-9.45-8.94-10.56-11.73-8.18-7.58-11.5-6.68-13.26-13.64-6.02-3.31-15.74-11.94-8.17-7.49-12.32-15.46-4.25-2.56-12.66,4.07-10.84,3.23-13.7,1.42-13.93,9.17-11.72-2.36-15.49,6.31-10.71,23.47,15.21,22.34,18.47,21.28,20,23.98,16.96,23.36,17.24,18.75,22.83.12.14,24.16,16.51,18.79,22.76.11.13,23.73,16.9,20.45,19.09,14.61,24,19.24,20.66,12.23,26.08,15,16.9h3.38l-.82-.92c1.8-2.93,3.1-5.38,4.33-7.73,2.29-4.39,4.67-8.92,10.58-16.85,5.96-7.99,8.73-12.26,11.41-16.4,2.66-4.11,5.41-8.36,11.35-16.31,5.97-7.99,8.64-12.35,11.23-16.55,2.57-4.18,5.23-8.5,11.15-16.45,5.93-7.95,9.21-11.78,12.38-15.49,3.18-3.73,6.48-7.58,12.44-15.57,5.91-7.92,9.6-11.39,13.18-14.74,3.62-3.4,7.36-6.92,13.35-14.94,5.93-7.94,9.34-11.65,12.64-15.24,3.32-3.62,6.76-7.36,12.73-15.36,5.97-8,8.6-12.39,11.14-16.63,2.52-4.21,5.14-8.57,11.06-16.51,5.96-7.99,8.75-12.24,11.44-16.36,2.68-4.1,5.45-8.33,11.39-16.28.77-1.03,1.49-1.97,2.19-2.86l7.99,12.76c-5.1,6.61-8.53,9.77-11.85,12.81-3.67,3.37-7.46,6.85-13.45,14.87-5.94,7.96-9.11,11.89-12.17,15.68-3.07,3.81-6.24,7.75-12.2,15.73-5.96,7.98-8.84,12.15-11.64,16.18-2.78,4.02-5.66,8.18-11.6,16.14-5.98,8.01-8.49,12.49-10.93,16.83-2.41,4.3-4.91,8.74-10.83,16.67-5.96,7.99-8.71,12.28-11.36,16.43-2.64,4.13-5.37,8.4-11.3,16.34-5.95,7.97-8.9,12.09-11.76,16.06-2.85,3.97-5.8,8.08-11.74,16.04-5.94,7.95-9.17,11.82-12.3,15.56-3.14,3.76-6.39,7.64-12.35,15.63-5.93,7.94-9.35,11.65-12.66,15.23-.67.72-1.34,1.46-2.04,2.22h1.98c.38-.41.76-.82,1.13-1.23,3.33-3.61,6.78-7.35,12.75-15.35,5.94-7.95,9.17-11.82,12.3-15.57,3.14-3.76,6.39-7.64,12.35-15.63,5.95-7.97,8.9-12.09,11.76-16.06,2.85-3.97,5.8-8.08,11.74-16.04,5.96-7.99,8.71-12.28,11.36-16.43,2.64-4.13,5.37-8.4,11.3-16.34,5.98-8.01,8.5-12.49,10.93-16.83,2.41-4.3,4.91-8.74,10.83-16.67,5.96-7.98,8.84-12.15,11.64-16.18,2.78-4.02,5.66-8.18,11.6-16.14,5.94-7.96,9.11-11.89,12.17-15.68,3.07-3.81,6.24-7.75,12.2-15.73,5.91-7.91,9.65-11.35,13.26-14.67,3.29-3.02,6.69-6.15,11.69-12.57l3.81,6.09,1.01,6.39c-2.41,2.76-4.4,4.74-6.34,6.68-3.5,3.49-7.12,7.09-13.1,15.11-5.99,8.02-8.3,12.69-10.53,17.2-2.2,4.45-4.48,9.06-10.39,16.98-5.97,7.99-8.69,12.3-11.32,16.47-2.62,4.14-5.33,8.43-11.26,16.37-5.93,7.95-9.22,11.77-12.4,15.47-3.2,3.71-6.5,7.55-12.47,15.54-5.89,7.89-9.92,11.08-13.81,14.16-3.97,3.14-8.07,6.38-14.08,14.43-5.96,7.99-8.73,12.26-11.41,16.38-2.67,4.11-5.43,8.36-11.36,16.3-5.98,8.01-8.49,12.5-10.91,16.85-2.4,4.31-4.89,8.76-10.81,16.69-3.17,4.25-5.49,7.39-7.4,10.01h1.81c1.79-2.44,3.93-5.34,6.76-9.13,5.98-8.01,8.49-12.5,10.91-16.85,2.4-4.31,4.89-8.76,10.81-16.69,5.96-7.99,8.73-12.25,11.41-16.38,2.67-4.11,5.43-8.36,11.36-16.31,5.89-7.89,9.92-11.08,13.81-14.16,3.97-3.14,8.07-6.38,14.08-14.43,5.93-7.95,9.22-11.77,12.4-15.46,3.2-3.71,6.5-7.56,12.47-15.55,5.97-7.99,8.69-12.3,11.32-16.47,2.62-4.14,5.33-8.43,11.26-16.37,5.99-8.02,8.3-12.69,10.53-17.2,2.2-4.45,4.48-9.06,10.39-16.98,5.92-7.92,9.5-11.49,12.96-14.94,1.74-1.73,3.53-3.54,5.61-5.86l2.48,15.65c-2.45,3.13-5.33,6.87-9.83,12.89-6,8.04-8.07,12.91-10.07,17.62-1.96,4.63-4,9.42-9.89,17.32-5.9,7.91-9.69,11.3-13.36,14.58-3.72,3.33-7.56,6.77-13.56,14.79-5.94,7.96-9.01,11.97-11.98,15.85-2.97,3.88-6.04,7.9-11.99,15.87-5.99,8.03-8.23,12.75-10.4,17.32-2.14,4.5-4.35,9.16-10.26,17.07-5.9,7.9-9.83,11.17-13.63,14.33-3.86,3.22-7.86,6.54-13.86,14.58-5.96,7.99-8.75,12.25-11.44,16.36-2.68,4.1-5.45,8.34-11.39,16.29-.59.79-1.14,1.52-1.67,2.24h1.82c.33-.45.66-.89,1.02-1.36,5.96-7.99,8.75-12.25,11.44-16.36,2.68-4.1,5.45-8.34,11.39-16.29,5.9-7.9,9.83-11.17,13.63-14.33,3.86-3.22,7.86-6.54,13.86-14.58,5.99-8.03,8.24-12.75,10.4-17.32,2.14-4.5,4.35-9.16,10.25-17.07,5.95-7.97,9.02-11.98,11.98-15.86,2.97-3.88,6.04-7.9,11.99-15.87,5.9-7.91,9.69-11.3,13.36-14.58,3.72-3.33,7.56-6.77,13.56-14.79,6-8.04,8.07-12.91,10.07-17.62,1.96-4.63,4-9.42,9.89-17.32,3.37-4.51,5.83-7.74,7.88-10.39l-4.66,18.53-13.08,20.62-.96,8.39c-.56.77-1.16,1.57-1.8,2.43-5.91,7.92-9.58,11.41-13.14,14.78-3.6,3.42-7.31,6.95-13.3,14.97-6.01,8.05-7.89,13.08-9.72,17.94-1.79,4.77-3.63,9.7-9.52,17.58-5.94,7.96-9.06,11.92-12.08,15.76-3.03,3.84-6.15,7.82-12.11,15.79-5.91,7.91-9.67,11.32-13.32,14.61-3.7,3.34-7.52,6.8-13.51,14.82-5.94,7.95-8.98,11.98-11.93,15.87-2.37,3.13-4.81,6.36-8.75,11.63h1.83c3.56-4.76,5.86-7.79,8.09-10.75,2.95-3.9,5.99-7.92,11.93-15.88,5.91-7.91,9.67-11.32,13.32-14.61,3.7-3.34,7.52-6.8,13.51-14.82,5.94-7.96,9.07-11.93,12.09-15.76,3.02-3.84,6.15-7.81,12.11-15.79,6.01-8.05,7.89-13.08,9.72-17.94,1.79-4.77,3.63-9.7,9.52-17.58,5.91-7.92,9.58-11.41,13.14-14.78,3.6-3.42,7.31-6.95,13.3-14.97.1-.14.19-.26.29-.39l-1.47,12.83-3.66,12.09c-2.48,3.21-5.39,7.01-10.04,13.25-6.01,8.05-7.96,13.02-9.85,17.83-1.85,4.72-3.77,9.6-9.66,17.49-5.93,7.95-9.21,11.78-12.38,15.49-3.18,3.72-6.47,7.58-12.44,15.56-5.9,7.9-9.77,11.22-13.52,14.43-3.81,3.26-7.74,6.63-13.74,14.66-5.94,7.95-9.19,11.81-12.33,15.54-1.1,1.3-2.21,2.63-3.45,4.13h1.9c.93-1.12,1.81-2.16,2.67-3.19,3.16-3.75,6.42-7.62,12.38-15.6,5.9-7.9,9.77-11.22,13.52-14.43,3.81-3.26,7.74-6.63,13.74-14.66,5.93-7.95,9.21-11.78,12.38-15.49,3.18-3.73,6.48-7.58,12.44-15.57,6.01-8.05,7.96-13.02,9.85-17.83,1.85-4.72,3.77-9.6,9.66-17.49,3.27-4.38,5.67-7.55,7.67-10.16l-1.97,6.5-5.74,23.13.14.07c-.59,1.27-1.12,2.48-1.63,3.68-1.99,4.61-4.04,9.39-9.94,17.28-5.96,7.99-8.75,12.24-11.45,16.35-2.69,4.09-5.46,8.33-11.4,16.28-5.93,7.95-9.23,11.76-12.42,15.45-3.21,3.71-6.52,7.54-12.48,15.53-3.14,4.21-5.35,7.41-7.11,10.13h1.75c1.66-2.53,3.71-5.48,6.53-9.25,5.93-7.95,9.23-11.76,12.42-15.45,3.21-3.71,6.52-7.54,12.48-15.53,5.96-7.98,8.75-12.24,11.45-16.35,2.69-4.09,5.46-8.33,11.4-16.28,6-8.04,8.09-12.89,10.11-17.58.5-1.16,1.03-2.35,1.6-3.58l14.24,7.32c-1.49,1.68-2.83,3.11-4.14,4.5-3.38,3.58-6.87,7.28-12.84,15.28-5.92,7.93-9.48,11.51-12.93,14.97-3.48,3.5-7.09,7.12-13.07,15.13-5.98,8.01-8.43,12.56-10.8,16.95-2.34,4.35-4.77,8.85-10.68,16.77-.83,1.11-1.58,2.13-2.3,3.1h1.82c.53-.71,1.07-1.44,1.66-2.23,5.98-8.01,8.43-12.56,10.8-16.95,2.34-4.35,4.77-8.85,10.68-16.77,5.92-7.93,9.48-11.51,12.93-14.98,3.48-3.5,7.09-7.12,13.07-15.13,5.92-7.93,9.39-11.6,12.74-15.15,1.39-1.48,2.82-3,4.42-4.81l5.04,2.59,1.72,3.12c-.76,1.93-1.33,3.74-1.88,5.51-1.62,5.18-3.15,10.06-9.02,17.93-5.92,7.93-9.4,11.6-12.75,15.14-3.39,3.57-6.89,7.27-12.86,15.27-5.99,8.03-8.2,12.78-10.33,17.38-1.27,2.74-2.59,5.55-4.72,9.08h1.7c1.9-3.23,3.15-5.89,4.35-8.47,2.1-4.53,4.27-9.21,10.18-17.12,5.92-7.93,9.4-11.6,12.75-15.14,3.39-3.57,6.89-7.27,12.86-15.27,6.02-8.07,7.66-13.3,9.24-18.37.44-1.41.9-2.81,1.42-4.25l7.8,14.17c-3.48,2.56-7.25,5.81-12.1,12.3-5.98,8.01-8.42,12.57-10.78,16.97-2.33,4.36-4.75,8.86-10.66,16.79-5.94,7.96-9.09,11.9-12.13,15.72-.69.86-1.39,1.74-2.12,2.66h1.87c.47-.59.94-1.18,1.39-1.75,3.05-3.82,6.2-7.78,12.16-15.76,5.98-8.01,8.42-12.57,10.78-16.97,2.33-4.36,4.75-8.86,10.66-16.79,4.68-6.27,8.22-9.36,11.64-11.89l1.67,3.03,7.64,3.67c-2.92,2.75-6.19,6.18-10.67,12.18-6,8.03-8.14,12.85-10.2,17.5-2.03,4.58-4.14,9.32-10.04,17.22-2.99,4-5.21,7.02-7.05,9.55h1.81c1.71-2.35,3.76-5.12,6.41-8.68,6-8.03,8.14-12.85,10.2-17.5,2.03-4.58,4.14-9.32,10.04-17.22,4.62-6.18,7.93-9.6,10.91-12.37l13.75,6.61,1.14,1.36c-2.13,4.09-4.55,8.52-10,15.82-5.87,7.86-10.11,10.56-14.61,13.43-4.41,2.81-8.97,5.71-15,13.79-1.3,1.73-2.41,3.28-3.41,4.71l1.82-.04c.84-1.18,1.74-2.42,2.77-3.8,5.87-7.86,10.11-10.56,14.61-13.43,4.41-2.81,8.97-5.71,15-13.79,5.28-7.08,7.75-11.48,9.85-15.48l6.28,7.48c-2.39,2.95-5.22,6.54-9.41,12.14-5.94,7.95-9.13,11.86-12.21,15.64-2.4,2.94-4.86,5.96-8.62,10.88l1.87-.04c3.35-4.37,5.65-7.18,7.89-9.92,3.09-3.79,6.29-7.71,12.25-15.69,4.06-5.44,6.85-8.98,9.19-11.88l5.04,6c-2.08,2.5-4.52,5.58-7.71,9.86-5.99,8.03-8.19,12.79-10.32,17.39-.59,1.28-1.2,2.59-1.89,3.96l1.65-.03c.56-1.14,1.06-2.24,1.56-3.32,2.1-4.53,4.26-9.22,10.16-17.13,3.09-4.14,5.47-7.14,7.5-9.59l.73.88,15.77,6.63c-2.36,3.05-5.17,6.73-9.47,12.48-3.03,4.06-5.27,7.12-7.12,9.68l1.83-.04c1.72-2.37,3.78-5.18,6.46-8.77,4.44-5.94,7.29-9.66,9.7-12.77l6.34,2.67,2.02,2.4c-2.71,2.95-5.81,6.55-10.35,12.63-.97,1.3-1.86,2.5-2.68,3.61l1.84-.04c.63-.85,1.3-1.75,2.01-2.7,4.43-5.93,7.47-9.48,10.13-12.38l9.92,11.79c-.59.91-1.21,1.86-1.92,2.9l1.79-.03c.4-.59.76-1.15,1.11-1.69l2.04,2.43,1.94-1.63-16.31-19.39-23.5-9.89-16.08-19.15-22.57-10.85-12.81-23.28-20.98-10.78,5.24-21.12,6.84-22.6,2.75-23.89,12.98-20.47,5.69-22.63-3.97-25.11-13.32-21.26-12.03-21.62-11.62-21.82-9.12-17.61,30.56,26.95,26.23,37.87,37.49,25.31.02-.02c5.41,3.46,32.99,21.13,33.18,21.2l42.36,16.03c.88,3.67,9.55,39.98,9.51,39.79,0,0,4.15,40.17,4.15,40.17,0-.02-3.54-40.23-3.54-40.24-.01-.02-8.98-40.3-9-40.32l-.07-.32s-.31-.12-.31-.12c.23.13-43.2-17.16-42.23-16.69l-32.36-21.39,26.22-29.4,31.54-27.78,37.83,27.56,39.8,25.92,34.39,32.6,23.02,29.08-28.28,28.15-27.89,38.43,36.54-32.93,37.81-20.74.14-.08,29.96-28.41,30.9,55.89,19.55,11.08,59.18-11.37,39.73,31.55,46.42,19.07,37.29,34.09.14.13,45.03,21.64,29.9,21.53h4.33l-4.12-2.97c1.74-6.76,2.63-10.88,3.48-14.84,1.02-4.75,2.07-9.66,4.62-19.18,2.55-9.51,4.26-14.21,5.92-18.76,1.67-4.58,3.4-9.31,5.96-18.87,2.56-9.57,3.27-14.61,3.95-19.49.68-4.84,1.37-9.84,3.92-19.33,2.55-9.53,3.9-14.36,5.2-19.03,1.3-4.67,2.65-9.51,5.2-19.04,1.92-7.18,3.65-11.53,5.3-15.13l5.61,8.72.64,14.17c-1.68,6.42-2.6,10.38-3.5,14.21-1.11,4.73-2.25,9.61-4.8,19.13-2.56,9.57-3.21,14.63-3.84,19.53-.62,4.85-1.27,9.87-3.81,19.36-2.54,9.5-4.39,14.16-6.18,18.67-1.8,4.54-3.66,9.24-6.22,18.81-2.57,9.58-3.1,14.68-3.61,19.61-.39,3.74-.8,7.59-2.11,13.46h1.3c1.28-5.78,1.68-9.6,2.07-13.33.51-4.88,1.04-9.93,3.58-19.42,2.54-9.5,4.39-14.16,6.18-18.67,1.8-4.54,3.66-9.24,6.22-18.81,2.56-9.57,3.21-14.63,3.84-19.53.62-4.85,1.27-9.87,3.81-19.36,2.56-9.54,3.7-14.44,4.81-19.17.69-2.96,1.41-6,2.47-10.18l1.55,34.21c-1.95,7.64-2.7,12.07-3.42,16.37-.81,4.8-1.64,9.77-4.19,19.27-2.56,9.56-3.52,14.51-4.45,19.31-.92,4.77-1.88,9.71-4.43,19.22-2.57,9.58-3.05,14.7-3.51,19.65-.29,3.08-.59,6.22-1.4,10.48h1.29c.79-4.19,1.08-7.31,1.37-10.37.46-4.9.94-9.96,3.48-19.44,2.56-9.55,3.52-14.51,4.45-19.31.92-4.77,1.88-9.71,4.43-19.22,2.56-9.56,3.4-14.56,4.21-19.39.64-3.79,1.3-7.7,2.8-13.86l9.57,39.06c-2.27,8.34-3.74,12.78-5.16,17.09-1.53,4.62-3.1,9.39-5.66,18.94-2.55,9.5-4.36,14.17-6.12,18.69-.91,2.35-1.85,4.75-2.89,7.83h1.33c.98-2.87,1.86-5.14,2.73-7.37,1.77-4.55,3.6-9.26,6.16-18.82,2.55-9.52,4.12-14.27,5.64-18.87,1.3-3.92,2.64-7.97,4.58-14.96l1.77,7.24,1.55,24.21c-.36,1.52-.77,3.17-1.26,5-2.55,9.53-3.77,14.4-4.95,19.11-.36,1.45-.73,2.91-1.14,4.51h1.3c.38-1.48.72-2.85,1.06-4.21,1.18-4.71,2.4-9.57,4.95-19.09.11-.41.2-.78.31-1.18l1.61,25.22,2.52-.16-3.44-53.8-12.57-51.31-2.41-53-.02-.34-30.55-47.44-33.86-40.63,4.22-39.64,14.39-40.9.05-.14,4.17-40.7,27.13,29.23,31.17,29.68,20.18,39.34,32.21,29.17,23.99,35.71.07.11,30.5,30.14,21.02,37.08,24.2,35.11.06.09,30.24,30.48,20.12,37.74,24.3,34.29h1.13l1.31-.93-24.55-34.62ZM56.9,198.05l24.68-11.34c-.3.19-.59.37-.9.57-7.92,4.98-12.33,6.86-16.59,8.69-2.4,1.02-4.86,2.09-7.94,3.68l.75-1.59ZM148.14,168.18l-2.17,9.22c-.87.32-1.72.62-2.55.91-4.49,1.56-9.14,3.18-17.18,8.23-8.05,5.06-11.46,8.77-14.76,12.35-3.24,3.52-6.59,7.16-14.47,12.11-7.96,5-11.95,7.48-15.95,9.96-4,2.48-8,4.96-15.98,9.98-7.9,4.97-12.44,6.61-16.83,8.2-4.46,1.61-9.08,3.28-17.11,8.33-7.8,4.9-11.78,7.57-15.54,10.11l10.06-10.52,15.29-18.23c4.34-1.7,8.87-3.49,16.79-8.46,8.06-5.06,11.38-8.94,14.59-12.69,3.14-3.67,6.39-7.46,14.27-12.41,7.92-4.98,12.32-6.87,16.58-8.71,4.31-1.86,8.76-3.77,16.78-8.81,8-5.03,11.81-8,15.5-10.88,3.41-2.66,6.93-5.4,13.81-9.79l-1.12,11.1ZM149.6,153.77l-.15,1.52c-7.55,4.78-11.27,7.67-14.86,10.47-3.66,2.86-7.45,5.81-15.39,10.8-7.92,4.98-12.32,6.87-16.58,8.71-4.31,1.86-8.76,3.77-16.78,8.81-8.06,5.06-11.38,8.94-14.59,12.69-3.14,3.67-6.39,7.46-14.27,12.41-6.35,3.99-10.48,5.9-14.11,7.37l1.39-1.65.11-.13,10.79-22.98c3.85-2.09,6.71-3.32,9.5-4.51,4.31-1.85,8.77-3.75,16.79-8.79,8-5.03,11.78-8.07,15.44-11.01,3.62-2.92,7.37-5.93,15.31-10.91,7.92-4.97,12.36-6.79,16.66-8.55,4.35-1.78,8.86-3.63,16.88-8.67,6.32-3.97,9.66-7.35,12.29-10.53l.54,3.53-8.95,11.43ZM156.21,127.03l1.51,9.88c-2.78,3.48-5.93,6.93-12.76,11.22-7.92,4.97-12.36,6.79-16.66,8.55-4.35,1.78-8.86,3.63-16.88,8.67-8,5.03-11.78,8.07-15.44,11.01-3.2,2.57-6.49,5.22-12.67,9.23l20.54-16.05,18.23-20.92,22.16-15.64,15.92-12.68-3.97,6.73ZM364.77,20.26l22.56,14.65,17.94,22.03,24.55,13.69,19.82,19.4,20.67,18.5,23.23,15.42,21.44,17.49,1.79,1.35-27.09,15.07-43.84,17.36-.28.11-31.1,34.62-38.72,17.07-3.64-8.76-.11-.26-32.97-28.92,17.49-40.93,15.16-41.38-11.58-44.67,4.69-41.8ZM220.99,156.46l14.71-14.74,21.57-10.73c-3.06,4.52-4.66,7.34-6.2,10.07-1.8,3.19-3.67,6.49-7.93,12.57-4.28,6.11-6.37,9.27-8.4,12.32-.45.68-.92,1.39-1.41,2.12l-12.34-11.6ZM234.3,168.88c.52-.77,1.01-1.52,1.49-2.24,2.02-3.05,4.12-6.2,8.39-12.29,4.29-6.13,6.17-9.45,7.99-12.67,1.73-3.06,3.54-6.24,7.43-11.85l.49-.24,21.41-17.27,16.58-12.07s-.02.03-.02.04c-1.78,3.2-3.62,6.52-7.88,12.59-4.26,6.08-6.71,8.96-9.08,11.76-2.39,2.82-4.86,5.73-9.15,11.85-4.21,6.01-7.29,8.21-10.55,10.54-3.2,2.29-6.51,4.66-10.85,10.85-4.29,6.12-6.2,9.43-8.04,12.62-.54.94-1.12,1.92-1.73,2.95l-6.48-4.58ZM241.82,174.19c.64-1.07,1.23-2.08,1.79-3.05,1.83-3.17,3.73-6.45,7.98-12.53,4.21-6.01,7.29-8.21,10.55-10.54,3.2-2.29,6.51-4.66,10.85-10.85,4.26-6.08,6.71-8.97,9.08-11.76,2.39-2.82,4.86-5.73,9.15-11.85,4.29-6.13,6.15-9.47,7.95-12.7.44-.79.89-1.59,1.37-2.44l2.8-2.04,14.66-19.23,19.77-16.01,10.01-23.45,14.17-15.07-.76,6.82c-.81,1.17-1.55,2.23-2.27,3.27-2.13,3.06-4.25,6.11-8.53,12.21-4.27,6.09-6.54,9.12-8.74,12.04-2.2,2.93-4.48,5.97-8.77,12.07-4.33,6.18-5.5,10.05-6.63,13.79-1.15,3.81-2.24,7.41-6.45,13.43-4.23,6.03-7.2,8.52-10.07,10.93-2.94,2.46-5.97,5.01-10.3,11.18-4.27,6.1-6.49,9.17-8.64,12.13-2.15,2.97-4.37,6.04-8.64,12.14-4.32,6.17-5.67,9.9-6.98,13.5-1.28,3.53-2.6,7.17-6.83,13.21-4.22,6.02-7.2,8.3-10.35,10.71-1.17.9-2.37,1.82-3.63,2.94l-12.53-8.86ZM257.72,185.43l-2.3-1.63c1.13-.99,2.22-1.84,3.34-2.69,3.09-2.36,6.29-4.8,10.62-10.99,4.32-6.17,5.67-9.9,6.98-13.5,1.28-3.53,2.6-7.17,6.83-13.21,4.27-6.09,6.49-9.16,8.63-12.12,2.15-2.97,4.37-6.04,8.65-12.15,4.23-6.03,7.2-8.52,10.07-10.93,2.94-2.46,5.97-5.01,10.3-11.18,4.33-6.18,5.5-10.05,6.63-13.79,1.15-3.81,2.24-7.41,6.45-13.43,4.27-6.09,6.54-9.12,8.74-12.04,2.2-2.93,4.49-5.96,8.77-12.07,4.27-6.1,6.4-9.16,8.53-12.22.31-.45.62-.9.94-1.35l-2.22,19.79c-3.59,5.27-5.15,8.49-6.65,11.59-1.6,3.32-3.26,6.75-7.5,12.81-4.29,6.12-6.19,9.43-8.03,12.63-1.82,3.18-3.71,6.46-7.97,12.54-4.23,6.04-7.08,8.63-9.84,11.13-2.81,2.55-5.71,5.18-10.03,11.34-4.34,6.2-5.32,10.21-6.25,14.09-.95,3.94-1.86,7.66-6.06,13.66-4.27,6.09-6.54,9.11-8.74,12.04-2.21,2.93-4.49,5.96-8.77,12.07-4.23,6.03-7.18,8.54-10.03,10.97-1.31,1.12-2.66,2.29-4.13,3.77l-6.94-5.12ZM265.69,191.31c1.39-1.39,2.67-2.5,3.92-3.56,2.91-2.48,5.93-5.04,10.25-11.21,4.27-6.09,6.54-9.11,8.74-12.04,2.21-2.93,4.49-5.96,8.77-12.07,4.34-6.2,5.32-10.21,6.25-14.09.95-3.94,1.86-7.66,6.06-13.66,4.23-6.04,7.08-8.63,9.84-11.12,2.81-2.55,5.71-5.18,10.03-11.34,4.29-6.12,6.19-9.43,8.03-12.63,1.82-3.18,3.71-6.46,7.97-12.54,4.3-6.14,5.98-9.62,7.61-12.98,1.27-2.63,2.6-5.36,5.2-9.38l-.82,7.33-.03.23,4.27,16.44c-1.3,1.52-2.73,3.35-4.39,5.72-4.26,6.08-6.7,8.97-9.07,11.77-2.38,2.82-4.85,5.73-9.14,11.86-4.27,6.1-6.51,9.14-8.69,12.09-2.17,2.95-4.42,6-8.7,12.11-4.34,6.19-5.38,10.15-6.39,13.98-1.03,3.89-2,7.57-6.2,13.58-4.26,6.08-6.69,8.98-9.05,11.78-2.37,2.83-4.83,5.75-9.12,11.87-4.22,6.03-7.15,8.34-10.24,10.8-1.61,1.27-3.26,2.61-5.09,4.47l-10.01-7.39ZM281.45,202.99l-.1-.12-4.62-3.41c1.7-1.71,3.26-2.98,4.85-4.24,3.03-2.4,6.16-4.89,10.49-11.06,4.26-6.08,6.69-8.98,9.05-11.78,2.37-2.83,4.83-5.75,9.12-11.87,4.34-6.19,5.38-10.15,6.39-13.98,1.03-3.89,2-7.57,6.2-13.58,4.27-6.09,6.51-9.14,8.68-12.08,2.18-2.95,4.42-6.01,8.7-12.11,4.26-6.08,6.7-8.97,9.07-11.77,2.38-2.82,4.85-5.73,9.14-11.86,1.39-1.98,2.62-3.58,3.74-4.94l3.26,12.55c-2.94,4.82-3.76,8.32-4.5,11.69-.88,3.99-1.71,7.76-5.91,13.75-4.19,5.98-7.68,7.87-11.38,9.87-3.66,1.98-7.45,4.04-11.81,10.26-4.33,6.18-5.52,10.03-6.68,13.75-1.18,3.79-2.29,7.38-6.5,13.4-4.29,6.12-6.22,9.41-8.08,12.59-1.85,3.16-3.76,6.43-8.02,12.51-4.26,6.08-6.71,8.96-9.09,11.75-1.78,2.09-3.63,4.27-6.21,7.74l-5.8-7.06ZM288.07,211.06c2.66-3.59,4.53-5.81,6.34-7.93,2.4-2.81,4.88-5.72,9.17-11.84,4.29-6.12,6.22-9.41,8.08-12.59,1.85-3.16,3.76-6.43,8.02-12.51,4.33-6.18,5.52-10.03,6.68-13.75,1.18-3.79,2.29-7.38,6.5-13.4,4.19-5.98,7.68-7.87,11.38-9.87,3.66-1.99,7.45-4.04,11.81-10.26,4.35-6.2,5.24-10.27,6.11-14.21.69-3.15,1.38-6.18,3.7-10.27l3.16,12.17-4.41,12.04c-.79,1.04-1.64,2.2-2.57,3.52-4.32,6.16-5.72,9.85-7.07,13.42-1.33,3.5-2.7,7.11-6.93,13.15-4.25,6.06-6.88,8.81-9.42,11.47-2.58,2.69-5.25,5.48-9.55,11.62-4.24,6.05-6.98,8.72-9.63,11.3-2.69,2.62-5.47,5.33-9.78,11.48-4.31,6.15-5.88,9.71-7.4,13.16-1.44,3.26-2.94,6.64-6.82,12.26l-7.37-8.98ZM300.18,225.8l-3.9-4.75c4.1-5.91,5.65-9.4,7.14-12.77,1.49-3.39,3.04-6.89,7.28-12.94,4.24-6.05,6.98-8.72,9.63-11.3,2.69-2.62,5.47-5.33,9.78-11.48,4.25-6.06,6.88-8.81,9.42-11.47,2.58-2.69,5.25-5.48,9.55-11.62,4.32-6.17,5.72-9.85,7.08-13.42,1.32-3.48,2.69-7.08,6.87-13.06l-8.88,24.2-18.19,42.56.57.5c-.77.84-1.51,1.63-2.23,2.38-2.59,2.69-5.27,5.47-9.57,11.61-4.32,6.17-5.64,9.93-6.91,13.56-1.3,3.71-2.52,7.22-6.75,13.25-.37.52-.71,1.01-1.05,1.48l-9.83-6.72ZM311.06,233.23c.34-.47.68-.95,1.05-1.47,4.32-6.17,5.64-9.93,6.91-13.56,1.3-3.72,2.52-7.22,6.75-13.25,4.25-6.06,6.89-8.8,9.44-11.46.73-.76,1.49-1.56,2.28-2.42l7.21,6.32c-.21.47-.43.95-.63,1.4-1.48,3.4-3.02,6.91-7.25,12.96-4.27,6.09-6.57,9.09-8.79,12-2.23,2.92-4.54,5.93-8.82,12.04-.51.73-.97,1.39-1.41,2.03l-6.72-4.59ZM324.46,242.45l-.11-.14-5.52-3.77c.44-.64.89-1.3,1.4-2.02,4.27-6.09,6.57-9.09,8.79-12,2.23-2.92,4.54-5.93,8.82-12.04,4.31-6.15,5.87-9.72,7.38-13.18.15-.34.31-.69.46-1.04l10.51,9.21c-1.14,3.46-2.42,6.92-6.32,12.49-4.28,6.11-6.36,9.27-8.38,12.33-2.02,3.06-4.1,6.22-8.37,12.31-1.2,1.71-2.29,3.1-3.32,4.29l-5.33-6.46ZM330.6,249.89c1.1-1.26,2.28-2.74,3.55-4.55,4.28-6.11,6.37-9.28,8.39-12.34,2.01-3.05,4.1-6.21,8.36-12.3,3.8-5.42,5.22-9.02,6.32-12.31l8.86,7.76c-2.64,1.67-5.4,3.99-8.45,8.33-4.3,6.14-6,9.61-7.64,12.96-1.62,3.31-3.29,6.73-7.54,12.79-2.26,3.23-3.92,5.63-5.29,7.62l-6.56-7.95ZM338,258.86c1.4-2.05,3.11-4.51,5.49-7.91,4.3-6.14,6-9.61,7.64-12.96,1.62-3.31,3.29-6.73,7.54-12.79,3.05-4.36,5.74-6.54,8.4-8.19l2.81,2.46,3.55,8.54-1.81.8-28.96,35.69-4.66-5.64ZM344.57,266.16l18.91-23.3c-.17.23-.33.43-.5.67-5.96,7.99-8.79,12.2-11.53,16.28-1.51,2.26-3.09,4.6-5.18,7.56l-1.7-1.21ZM347.46,268.22c2.1-2.98,3.68-5.33,5.2-7.59,2.73-4.07,5.55-8.27,11.49-16.22,5.27-7.06,8.34-10.97,11.1-14.42l26.56-11.71c-.58.83-1.2,1.69-1.89,2.61-5.95,7.97-8.9,12.1-11.74,16.08-2.84,3.98-5.78,8.09-11.72,16.05-5.9,7.9-9.85,11.15-13.67,14.29-2.26,1.86-4.58,3.78-7.3,6.63l-8.02-5.72ZM366.91,282.09l-10.23-7.29c2.61-2.72,4.84-4.56,7.03-6.36,3.89-3.2,7.91-6.51,13.91-14.55,5.95-7.97,8.9-12.09,11.74-16.08,2.84-3.98,5.78-8.09,11.72-16.06,1.25-1.67,2.31-3.19,3.26-4.6l11.63-5.13,31.07-34.58,3.64-1.44c-1.16,2.02-2.1,3.82-3.01,5.58-2.28,4.4-4.63,8.95-10.55,16.87-5.87,7.86-10.11,10.56-14.61,13.43-4.41,2.81-8.97,5.71-15,13.79-5.97,8-8.54,12.44-11.03,16.74-2.46,4.26-5.01,8.66-10.94,16.6-5.95,7.97-8.94,12.06-11.82,16.02-1.71,2.35-3.47,4.75-5.85,7.98l-.98-.91ZM368.96,284c2.43-3.3,4.22-5.74,5.95-8.12,2.88-3.95,5.86-8.04,11.81-16,5.97-8,8.54-12.44,11.03-16.74,2.46-4.26,5.01-8.66,10.94-16.6,5.87-7.86,10.11-10.56,14.61-13.43,4.41-2.81,8.97-5.71,15-13.79,5.98-8.02,8.37-12.62,10.67-17.07,1.14-2.2,2.33-4.46,3.94-7.14l20.18-7.99c-1,1.54-2.16,3.21-3.54,5.06-5.94,7.95-9.15,11.84-12.25,15.61-3.11,3.78-6.33,7.68-12.29,15.67-5.94,7.95-9.13,11.86-12.21,15.64-3.1,3.79-6.3,7.71-12.25,15.69-5.97,8-8.62,12.36-11.19,16.59-2.55,4.2-5.19,8.53-11.11,16.47-5.89,7.89-9.93,11.07-13.83,14.14-2.72,2.14-5.51,4.35-8.91,8.09l-6.54-6.1ZM387.68,301.47l-11.11-10.37c3.34-3.67,6.08-5.84,8.75-7.94,3.98-3.13,8.09-6.37,14.1-14.42,5.97-8,8.62-12.36,11.19-16.59,2.55-4.2,5.19-8.53,11.11-16.47,5.94-7.96,9.13-11.86,12.21-15.64,3.1-3.79,6.29-7.71,12.25-15.69,5.94-7.95,9.15-11.85,12.25-15.61,3.11-3.78,6.33-7.68,12.29-15.66,1.93-2.58,3.44-4.82,4.68-6.85l14.15-5.6c-.12.19-.26.39-.38.57-2.7,4.08-5.49,8.31-11.43,16.26-5.93,7.94-9.26,11.73-12.48,15.39-3.24,3.68-6.59,7.49-12.56,15.48-6,8.03-8.19,12.79-10.32,17.39-2.1,4.54-4.26,9.22-10.16,17.13-5.92,7.93-9.44,11.56-12.83,15.06-3.43,3.54-6.98,7.2-12.95,15.21-5.98,8-8.51,12.48-10.96,16.81-1.9,3.36-3.9,6.86-7.51,12.01l-.28-.46ZM396.76,316.38l-7.97-13.09c3.89-5.51,5.96-9.15,7.95-12.66,2.43-4.29,4.94-8.72,10.86-16.65,5.92-7.93,9.44-11.56,12.83-15.06,3.43-3.54,6.98-7.2,12.96-15.21,5.99-8.03,8.19-12.79,10.32-17.39,2.1-4.53,4.26-9.22,10.17-17.13,5.93-7.94,9.26-11.73,12.48-15.39,3.24-3.68,6.59-7.49,12.56-15.48,5.96-7.98,8.76-12.23,11.47-16.33.57-.86,1.15-1.73,1.75-2.64l34.26-19.04c-1.55,4.79-3.27,9.52-8.75,16.87-5.93,7.94-9.28,11.71-12.53,15.35-3.26,3.66-6.64,7.45-12.6,15.45-5.94,7.96-9.05,11.94-12.05,15.79-3.01,3.86-6.11,7.84-12.07,15.82-5.96,7.98-8.89,12.11-11.72,16.11-2.82,3.99-5.75,8.12-11.69,16.07-5.92,7.93-9.42,11.57-12.8,15.09-3.41,3.55-6.94,7.23-12.92,15.23-5.98,8-8.52,12.47-10.99,16.78-2.44,4.28-4.97,8.7-10.89,16.63-.23.3-.43.58-.65.86ZM397.58,317.73c.33-.44.65-.86,1-1.33,5.98-8,8.52-12.47,10.99-16.78,2.44-4.28,4.97-8.7,10.89-16.63,5.92-7.93,9.42-11.57,12.8-15.09,3.41-3.55,6.94-7.23,12.92-15.23,5.95-7.97,8.88-12.1,11.71-16.1,2.83-3.99,5.75-8.12,11.69-16.08,5.94-7.96,9.05-11.94,12.05-15.79,3.01-3.86,6.11-7.84,12.07-15.82,5.93-7.94,9.28-11.71,12.52-15.35,3.26-3.66,6.64-7.45,12.6-15.45,6.02-8.07,7.69-13.28,9.3-18.32.05-.15.1-.31.15-.46l3.01-1.67,28.74-37.86,25.63-18.01c-.19.31-.38.62-.56.93-2.52,4.22-5.13,8.58-11.05,16.52-5.98,8.01-8.46,12.53-10.85,16.91-2.37,4.33-4.82,8.81-10.74,16.73-5.9,7.9-9.83,11.16-13.64,14.32-3.87,3.21-7.88,6.53-13.88,14.57-5.97,8-8.58,12.41-11.09,16.68-2.5,4.23-5.08,8.61-11.01,16.55-5.92,7.93-9.38,11.61-12.72,15.17-3.37,3.59-6.86,7.29-12.83,15.29-5.96,7.98-8.83,12.16-11.6,16.2-2.77,4.03-5.63,8.2-11.57,16.16-6,8.04-8.08,12.9-10.09,17.6-1.98,4.62-4.02,9.4-9.92,17.3-5.87,7.86-10.11,10.57-14.6,13.44-4.4,2.81-8.95,5.72-14.98,13.8-1.14,1.53-2.14,2.94-3.02,4.25l-3.91-6.43ZM402.4,325.65l-.07-.11c.96-1.46,2.06-3.03,3.35-4.76,5.87-7.86,10.11-10.57,14.6-13.44,4.4-2.81,8.95-5.72,14.98-13.8,6-8.04,8.08-12.9,10.09-17.6,1.98-4.62,4.02-9.4,9.92-17.3,5.96-7.98,8.83-12.16,11.61-16.21,2.77-4.03,5.63-8.2,11.57-16.16,5.92-7.93,9.38-11.61,12.72-15.17,3.37-3.59,6.86-7.29,12.83-15.29,5.97-8,8.58-12.41,11.1-16.68,2.5-4.23,5.08-8.61,11.01-16.55,5.9-7.9,9.83-11.16,13.64-14.32,3.87-3.21,7.88-6.53,13.88-14.57,5.98-8.01,8.45-12.53,10.85-16.9,2.37-4.33,4.82-8.81,10.74-16.73,5.97-8,8.6-12.39,11.14-16.64.73-1.22,1.47-2.46,2.29-3.78l9.59-6.74.12.11-.56.29,4.03,7.79c-2.4,3.74-3.91,6.64-5.36,9.44-2.28,4.4-4.63,8.95-10.54,16.87-5.9,7.9-9.82,11.17-13.62,14.33-3.86,3.22-7.86,6.54-13.86,14.58-6.02,8.07-7.7,13.27-9.33,18.3-1.66,5.14-3.23,10-9.11,17.87-5.91,7.92-9.56,11.43-13.09,14.82-3.57,3.44-7.27,6.99-13.25,15-5.97,8-8.57,12.42-11.08,16.69-2.49,4.24-5.07,8.62-10.99,16.56-5.92,7.92-9.51,11.48-12.98,14.93-3.51,3.48-7.14,7.08-13.12,15.09-5.95,7.97-8.87,12.11-11.7,16.11-2.82,3.99-5.74,8.13-11.68,16.09-5.98,8.01-8.49,12.5-10.91,16.85-2.4,4.31-4.89,8.76-10.81,16.69-2.24,3-4.19,5.31-5.96,7.22l-12.02-12.89ZM632.52,138.17c-.81,1.03-1.65,2.11-2.56,3.33-5.96,7.98-8.75,12.24-11.44,16.36-2.68,4.1-5.45,8.34-11.39,16.29-5.97,8-8.6,12.39-11.14,16.63-2.52,4.21-5.13,8.57-11.06,16.51-5.93,7.94-9.34,11.65-12.64,15.25-3.32,3.62-6.76,7.36-12.73,15.36-5.91,7.92-9.61,11.39-13.18,14.74-3.62,3.4-7.36,6.92-13.35,14.93-5.93,7.95-9.21,11.78-12.38,15.49-3.18,3.73-6.47,7.58-12.44,15.56-5.97,7.99-8.64,12.35-11.23,16.55-2.57,4.18-5.23,8.5-11.15,16.45-5.96,7.99-8.73,12.26-11.4,16.39-2.66,4.11-5.42,8.37-11.35,16.32-5.98,8.02-8.38,12.6-10.7,17.04-1.16,2.23-2.39,4.54-4.05,7.27l-8.37-9.43c.97-1.68,1.81-3.23,2.62-4.74,2.33-4.36,4.74-8.86,10.66-16.79,5.92-7.94,9.37-11.63,12.7-15.19,3.36-3.6,6.83-7.31,12.8-15.32,5.98-8,8.5-12.48,10.95-16.81,2.42-4.29,4.93-8.73,10.85-16.66,5.95-7.97,8.86-12.12,11.67-16.14,2.81-4.01,5.71-8.15,11.65-16.11,5.9-7.91,9.71-11.29,13.38-14.55,3.73-3.32,7.59-6.75,13.58-14.77,5.95-7.97,8.95-11.94,11.94-15.91,2.99-3.97,5.99-7.93,11.93-15.9,6-8.04,8.02-12.96,9.97-17.71,1.92-4.67,3.9-9.5,9.79-17.39,5.9-7.9,9.75-11.24,13.47-14.47,3.78-3.28,7.69-6.67,13.68-14.7,2.27-3.04,3.99-5.54,5.41-7.77l5.5,9.88ZM620.8,117.11l5.41,9.72c-1.49,2.35-3.31,5.04-5.78,8.34-5.9,7.9-9.75,11.24-13.47,14.47-3.78,3.28-7.69,6.67-13.68,14.7-6,8.04-8.02,12.96-9.97,17.71-1.92,4.67-3.9,9.5-9.79,17.39-5.94,7.96-8.94,11.93-11.93,15.89-3,3.97-5.99,7.94-11.94,15.91-5.9,7.91-9.71,11.29-13.38,14.55-3.73,3.32-7.59,6.75-13.58,14.77-5.96,7.98-8.87,12.13-11.68,16.14-2.81,4-5.71,8.14-11.65,16.1-5.98,8-8.5,12.48-10.95,16.81-2.42,4.29-4.93,8.73-10.85,16.66-5.92,7.94-9.37,11.63-12.7,15.19-3.36,3.6-6.83,7.31-12.8,15.32-5.98,8.01-8.42,12.57-10.78,16.97-.73,1.36-1.5,2.78-2.36,4.27l-5.02-5.65-3.45-7.36c2.59-3.84,5.43-8,11.01-15.48,5.93-7.94,9.28-11.72,12.51-15.37,3.25-3.67,6.62-7.47,12.59-15.46,5.97-8,8.54-12.44,11.03-16.74,2.46-4.26,5.01-8.66,10.93-16.6,5.95-7.96,9.01-11.99,11.96-15.87,2.96-3.89,6.02-7.91,11.97-15.88,5.91-7.91,9.62-11.37,13.21-14.72,3.64-3.39,7.39-6.89,13.38-14.91,6.01-8.05,7.88-13.09,9.69-17.96,1.77-4.78,3.61-9.72,9.49-17.6,5.92-7.92,9.5-11.49,12.97-14.94,3.5-3.49,7.12-7.09,13.1-15.11,5.97-8,8.62-12.37,11.19-16.59,2.55-4.2,5.18-8.54,11.11-16.48,4.96-6.64,8.5-10.02,11.75-12.82l2.45,4.6ZM617.65,111.19c-3.37,2.89-7.04,6.34-12.21,13.27-5.97,8-8.62,12.37-11.19,16.59-2.55,4.2-5.18,8.54-11.11,16.48-5.92,7.93-9.5,11.49-12.97,14.94-3.5,3.49-7.12,7.09-13.1,15.1-6.01,8.05-7.88,13.09-9.69,17.96-1.77,4.78-3.61,9.72-9.49,17.6-5.91,7.91-9.62,11.37-13.21,14.72-3.64,3.39-7.39,6.89-13.38,14.91-5.95,7.96-9.01,11.99-11.96,15.87-2.96,3.89-6.02,7.91-11.97,15.88-5.97,8-8.54,12.44-11.03,16.74-2.46,4.26-5.01,8.66-10.93,16.6-5.93,7.94-9.28,11.72-12.51,15.37-3.25,3.67-6.62,7.47-12.59,15.46-5.26,7.04-8.08,11.15-10.56,14.81l-6.77-14.44c1.61-2.27,3.53-4.9,6-8.21,5.96-7.98,8.87-12.13,11.68-16.14,2.81-4,5.71-8.15,11.65-16.11,5.9-7.9,9.83-11.17,13.63-14.33,3.87-3.21,7.87-6.54,13.87-14.58,5.98-8.01,8.48-12.5,10.91-16.85,2.4-4.31,4.89-8.76,10.8-16.69,5.95-7.98,8.88-12.11,11.7-16.11,2.82-3.99,5.74-8.12,11.68-16.08,5.92-7.92,9.51-11.48,12.98-14.92,3.51-3.48,7.14-7.08,13.12-15.09,5.97-8,8.57-12.42,11.08-16.69,2.49-4.24,5.07-8.62,10.99-16.56,5.91-7.92,9.56-11.43,13.09-14.82,3.57-3.44,7.27-6.99,13.25-15,6.02-8.06,7.7-13.27,9.33-18.29.53-1.63,1.05-3.24,1.7-4.92l7.21,13.53ZM602.6,82.59l6.56,12.67.38.72c-.91,2.18-1.57,4.18-2.21,6.14-1.66,5.14-3.23,10-9.11,17.87-5.91,7.92-9.56,11.43-13.09,14.82-3.57,3.44-7.27,6.99-13.25,15-5.97,8-8.57,12.42-11.08,16.69-2.49,4.24-5.07,8.62-10.99,16.56-5.92,7.92-9.51,11.48-12.98,14.93-3.51,3.48-7.14,7.08-13.12,15.09-5.95,7.98-8.88,12.11-11.7,16.11-2.82,3.99-5.74,8.12-11.68,16.08-5.98,8.01-8.49,12.5-10.91,16.85-2.4,4.31-4.89,8.76-10.8,16.69-5.9,7.9-9.83,11.17-13.63,14.33-3.87,3.21-7.87,6.54-13.87,14.58-5.96,7.98-8.86,12.13-11.68,16.14-2.81,4.01-5.71,8.15-11.65,16.11-2.24,3-4.02,5.44-5.54,7.57l-.5-1.07-.08-.18-6.24-6.68c1.82-1.96,3.82-4.34,6.13-7.43,5.98-8.01,8.49-12.5,10.91-16.85,2.4-4.31,4.89-8.76,10.8-16.69,5.96-7.98,8.88-12.12,11.71-16.12,2.82-3.99,5.74-8.12,11.68-16.08,5.92-7.92,9.51-11.48,12.98-14.93,3.51-3.48,7.14-7.08,13.12-15.09,5.97-8,8.57-12.42,11.08-16.69,2.49-4.24,5.07-8.62,10.99-16.56,5.91-7.92,9.56-11.43,13.09-14.82,3.57-3.44,7.27-6.99,13.25-15,6.02-8.06,7.7-13.27,9.33-18.29,1.66-5.14,3.23-10,9.11-17.87,5.9-7.9,9.82-11.17,13.62-14.33,3.86-3.22,7.86-6.54,13.86-14.58,5.98-8.02,8.37-12.62,10.67-17.07,1.34-2.59,2.73-5.26,4.84-8.61ZM1226.55,51.5l16.49-16.39c-.71,5.53-1.63,11.71-4.37,22.31-3.12,12.03-4,18.36-4.87,24.49-.85,6.08-1.74,12.38-4.83,24.35-3.09,11.92-6.14,17.5-9.11,22.9-3,5.48-6.1,11.13-9.22,23.2-3.12,12.06-3.45,18.59-3.76,24.89-.31,6.25-.64,12.71-3.72,24.64-2.69,10.45-4.41,16.36-5.97,21.56l-9.21-13.19c.62-3.13,1.43-6.74,2.55-11.1,3.09-11.98,4.87-18,6.61-23.83,1.72-5.83,3.51-11.87,6.61-23.87,3.12-12.07,3.37-18.62,3.6-24.95.23-6.27.48-12.75,3.57-24.69,3.09-11.96,5.28-17.84,7.39-23.54,2.13-5.73,4.31-11.65,7.43-23.66.28-1.09.54-2.12.8-3.11ZM1222.22,55.79l2.56-2.55c-.09.34-.18.68-.27,1.04-3.09,11.96-5.28,17.84-7.39,23.54-2.13,5.73-4.33,11.65-7.43,23.68-3.12,12.06-3.37,18.6-3.6,24.95-.23,6.27-.48,12.74-3.57,24.67-3.09,11.98-4.87,18.02-6.61,23.83-1.72,5.83-3.51,11.87-6.61,23.88-.99,3.86-1.73,7.11-2.32,9.98l-.99-1.41-6.67-21.64c1.63-5.68,2.94-9.57,4.21-13.39,1.92-5.79,3.91-11.76,7.01-23.77,3.1-12.04,3.99-18.37,4.84-24.5.85-6.08,1.74-12.38,4.83-24.35,2.94-11.4,3.83-17.71,4.58-23.57l17.43-20.4ZM1189.41,94.21l13.9-16.27c-.71,5.33-1.7,11.4-4.31,21.51-3.1,12.03-3.99,18.36-4.84,24.49-.85,6.1-1.74,12.4-4.83,24.35-3.1,11.98-5.07,17.94-7,23.69-1.12,3.4-2.28,6.88-3.67,11.6l-6.25-20.27-.04-.14h0c1.07-4.42,2.39-9.74,4.42-17.58,3.1-11.99,4.53-18.14,5.93-24.08,1.38-5.94,2.81-12.07,5.91-24.07.29-1.13.55-2.19.79-3.22ZM1166.32,111.89l21.47-16.37c-.13.52-.26,1.06-.4,1.61-3.1,11.99-4.53,18.14-5.93,24.08-1.38,5.94-2.82,12.07-5.91,24.07-1.84,7.11-3.1,12.16-4.11,16.33l-13.3-22.49c2.82-10.79,4.67-16.47,6.47-21.94.55-1.69,1.11-3.41,1.71-5.29ZM1164.56,113.23c-.39,1.22-.78,2.4-1.16,3.56-1.73,5.29-3.51,10.74-6.16,20.81l-7.66-12.95,14.98-11.42ZM1147.34,125.83l22.7,38.37,13.67,44.34,26.55,38.04,9.93,33.59-20.49-22.49-27.2-32.65-37.32-22.03-29.21-29.95-29.34-33.47,36.42-3.09,34.29-10.66ZM881.78,17.28l44.67,17.94,43.03,22.06,43.07,22.12,45.8,15.43,51.23,39.4-36.31,3.08-27.26,45.19-27.01,42.87-16.34,25.39-65.88-73.52-34.16-31.71-23.89-40.61-.09-.16-34.1-31.88,1.28-36.35-8.1-33.3,44.07,14.03ZM917.32,192.71c.39,4.04.75,7.85-1.29,14.89-.75,2.61-1.49,4.7-2.21,6.47l-18.13,7.28c.28-1.09.54-2.13.79-3.12.89-3.55,1.82-7.22,3.88-14.36,2.05-7.09,3.81-10.49,5.52-13.78,1.73-3.34,3.52-6.8,5.61-14.01,2.08-7.2,2.6-11.02,3.1-14.71.05-.36.1-.73.15-1.1l7.54,7c-1.13,2.48-2.33,5.52-3.64,10.08-2.1,7.27-1.71,11.39-1.33,15.37ZM917.25,207.95c2.1-7.27,1.71-11.39,1.33-15.37-.39-4.04-.75-7.85,1.29-14.89,1.23-4.24,2.35-7.15,3.41-9.52l11.65,10.82,3.29,3.67c-1.99,6.86-3.03,10.37-4.07,13.87-.86,2.9-1.73,5.83-3.13,10.64l-15.58,6.25c.59-1.56,1.19-3.35,1.81-5.48ZM726.66,70.37l13.7-8.8c-.9,2.95-1.94,6.41-3.6,12.15-2.09,7.24-2.17,11.2-2.24,15.03-.07,3.75-.14,7.63-2.19,14.71-2.04,7.06-4.13,10.18-6.33,13.48-1.39,2.08-2.81,4.23-4.21,7.42l-9.33,5.44-7.52,1.7c.29-1.17.62-2.44,1.03-3.85,2.08-7.18,2.81-10.93,3.53-14.55.71-3.59,1.44-7.31,3.5-14.44,2.04-7.05,4.24-10.13,6.57-13.39,2.29-3.2,4.65-6.51,6.75-13.77.11-.4.22-.76.33-1.14ZM708.32,81.13l13.71-7.79,3-1.93c-2.02,6.86-4.19,9.91-6.49,13.13-2.29,3.2-4.65,6.51-6.75,13.77-2.08,7.18-2.81,10.93-3.53,14.55-.71,3.59-1.44,7.31-3.5,14.44-.49,1.68-.87,3.17-1.19,4.52l-9.42,2.13c.73-2.16,1.54-4.75,2.54-8.19,2.07-7.16,3.03-10.83,3.96-14.38.93-3.54,1.89-7.2,3.96-14.35,2.08-7.18,2.78-10.94,3.46-14.57.08-.44.17-.88.25-1.33ZM706.88,81.95c-.02.09-.04.19-.05.28-.68,3.6-1.37,7.33-3.44,14.45-2.07,7.16-3.03,10.83-3.96,14.38-.93,3.54-1.89,7.2-3.96,14.35-1.1,3.8-1.99,6.58-2.77,8.87l-17.44,3.95c.16-.78.31-1.54.45-2.28.7-3.6,1.42-7.31,3.49-14.44,2.08-7.19,2.7-10.98,3.29-14.64.53-3.28,1.1-6.71,2.73-12.62l21.65-12.29ZM642.26,112.58l13.86-5.8c-.43,2.38-1.08,5.21-2.17,9.01-1.18,4.06-2.15,6.93-3.03,9.28l-8.65-12.49ZM651.79,126.34c.97-2.53,2.05-5.62,3.37-10.2,1.24-4.29,1.91-7.36,2.34-9.94l14.31-5.98c-.25,1.59-.41,3-.56,4.38-.41,3.67-.84,7.46-2.89,14.56-2.06,7.11-3.63,10.57-5.16,13.92-.82,1.79-1.65,3.65-2.56,6.04l-8.85-12.78ZM661.66,139.99c.96-2.58,1.84-4.51,2.69-6.39,1.54-3.39,3.14-6.9,5.22-14.09,2.09-7.21,2.52-11.05,2.93-14.77.18-1.58.37-3.21.69-5.1l9.64-4.03.85-.48c-1.4,5.23-1.94,8.46-2.44,11.54-.59,3.62-1.2,7.37-3.26,14.49-2.08,7.18-2.81,10.93-3.51,14.55-.18.91-.36,1.85-.57,2.83l-10.8,2.44-1.45-.98ZM665.99,142.92l8.46-1.91c-1,.71-1.93,1.36-2.83,1.98-.87.6-1.77,1.23-2.72,1.9l-2.91-1.96ZM680.59,152.77l-10.58-7.14c.8-.56,1.57-1.1,2.31-1.61,1.59-1.09,3.22-2.21,5.21-3.72l22.09-5c-1.55,2.32-3.61,4.8-7.25,7.92-5.64,4.84-8.64,7.14-11.55,9.36-.08.06-.16.12-.24.18ZM696.15,163.27l-5.83-3.93c1.77-2.84,3.88-5.74,8.54-9.74,5.56-4.77,9.19-6.01,13.03-7.33,1.46-.5,2.96-1.04,4.56-1.76l-20.31,22.76ZM735.73,122.02l-12.97,11.42-3.94,4.42c-2.69,1.59-4.99,2.41-7.34,3.21-3.79,1.3-7.7,2.64-13.45,7.57-4.75,4.07-6.99,7.15-8.76,9.99l-7.58-5.11c2.89-2.21,5.9-4.53,11.5-9.33,4.32-3.71,6.53-6.62,8.2-9.28l12-2.72,28.04-16.36c-2.56,2.45-4.23,4.39-5.72,6.2ZM723.7,123.25c1.09-2.21,2.21-3.89,3.36-5.61,2.16-3.23,4.4-6.58,6.49-13.83,2.09-7.24,2.17-11.2,2.24-15.03.07-3.75.14-7.63,2.19-14.7,1.93-6.67,3.02-10.27,4.03-13.56l12.63-8.11c-.74,4.35-.49,7.41-.21,10.36.37,4.04.72,7.85-1.32,14.89-2.07,7.15-3.24,10.74-4.38,14.22-1.14,3.49-2.32,7.09-4.39,14.26-.74,2.55-1.47,4.61-2.19,6.35l-18.45,10.76ZM755.88,104.28l-.67.59-11.31,6.6c.54-1.44,1.09-3.07,1.64-4.97,2.07-7.14,3.24-10.74,4.38-14.22,1.14-3.49,2.32-7.1,4.39-14.26,2.1-7.27,1.73-11.38,1.36-15.35-.3-3.26-.56-6.4.41-11.18l3.79-2.44,14.93-11.09c-.99,3.15-2.1,6.71-3.93,13.04-2.1,7.26-1.81,11.35-1.53,15.3.29,4.01.56,7.81-1.48,14.85-2.06,7.13-3.43,10.66-4.75,14.08-1.15,2.96-2.34,6.08-3.97,11.45l-3.28-2.39ZM770.75,115.11l-10.5-7.65c1.69-5.6,2.9-8.77,4.07-11.78,1.33-3.44,2.71-7,4.79-14.18,2.1-7.26,1.81-11.35,1.53-15.29-.29-4.01-.56-7.81,1.48-14.85,2.07-7.15,3.21-10.76,4.31-14.25.04-.14.09-.29.14-.43l19.48-14.46,3.06-1.49c-.21,1.8-.6,3.82-1.3,6.24-2.03,7.01-4.72,9.93-7.57,13.02-2.82,3.06-5.74,6.23-7.86,13.53-2.1,7.25-1.98,11.28-1.87,15.17.12,3.97.22,7.72-1.82,14.78-2.08,7.18-2.84,10.92-3.57,14.53-.73,3.59-1.48,7.3-3.55,14.43-.28.97-.54,1.85-.8,2.69ZM771.83,115.89c.3-.97.6-1.98.93-3.12,2.08-7.18,2.84-10.92,3.57-14.53.73-3.59,1.48-7.3,3.55-14.43,2.1-7.25,1.98-11.28,1.87-15.17-.12-3.97-.22-7.72,1.82-14.78,2.03-7.01,4.72-9.93,7.57-13.02,2.82-3.06,5.74-6.23,7.86-13.53.82-2.84,1.24-5.19,1.43-7.25l10.27-5c-1.48,3.18-3.03,6.67-4.97,13.39-2.09,7.23-2.22,11.18-2.35,14.99-.13,3.74-.25,7.6-2.3,14.68-2.06,7.11-3.66,10.56-5.21,13.9-1.57,3.38-3.19,6.88-5.27,14.08-2.05,7.1-3.78,10.51-5.45,13.81-1.7,3.35-3.45,6.82-5.54,14.03-.73,2.52-1.23,4.6-1.6,6.43l-6.16-4.49ZM779.12,121.2c.38-1.94.9-4.17,1.69-6.9,2.05-7.1,3.78-10.51,5.45-13.81,1.7-3.35,3.45-6.82,5.54-14.03,2.06-7.11,3.66-10.56,5.21-13.9,1.57-3.38,3.19-6.88,5.27-14.08,2.09-7.23,2.22-11.18,2.35-14.99.13-3.74.25-7.6,2.3-14.68,2.06-7.11,3.67-10.56,5.22-13.9.11-.23.22-.49.33-.72l16.72-8.14c-1.68,5.53-2.92,8.66-4.12,11.64-1.38,3.43-2.8,6.98-4.88,14.16-2.05,7.09-3.84,10.48-5.57,13.76-1.76,3.33-3.58,6.78-5.67,14-2.11,7.29-1.42,11.5-.76,15.57.67,4.11,1.3,8-.73,15.02-2.06,7.11-3.67,10.56-5.23,13.9-1.58,3.38-3.21,6.88-5.3,14.08-1.99,6.87-2.11,10.8-2.14,14.47l-15.7-11.44ZM796.07,133.5c0-.08,0-.17,0-.25.03-3.94.05-7.65,2.1-14.72,2.06-7.11,3.67-10.56,5.23-13.89,1.58-3.38,3.21-6.88,5.3-14.08,2.11-7.29,1.42-11.5.76-15.57-.67-4.11-1.3-8,.73-15.02,2.05-7.09,3.84-10.48,5.57-13.76,1.76-3.34,3.58-6.78,5.67-14,2.06-7.13,3.47-10.64,4.84-14.04,1.29-3.21,2.63-6.56,4.49-12.87l4.34-2.11,5.89,24.18c-.62,2.34-1.39,5.16-2.49,8.98-2.07,7.16-3.01,10.84-3.91,14.4-.9,3.55-1.83,7.21-3.9,14.36-2.03,7.03-4.5,10.02-7.11,13.19-2.58,3.13-5.25,6.36-7.35,13.64-2.09,7.22-2.41,11.1-2.72,14.85-.3,3.69-.62,7.51-2.67,14.61-2.07,7.14-3.27,10.73-4.44,14.2-.4,1.2-.81,2.43-1.26,3.81l-9.05-5.9ZM806.22,140.11c.49-1.5.93-2.83,1.36-4.12,1.17-3.48,2.38-7.08,4.45-14.25,2.09-7.22,2.41-11.1,2.72-14.85.3-3.69.62-7.51,2.67-14.6,2.03-7.03,4.5-10.02,7.11-13.19,2.58-3.13,5.25-6.36,7.35-13.64,2.07-7.17,3.01-10.84,3.91-14.4.9-3.55,1.83-7.21,3.9-14.36.78-2.7,1.39-4.88,1.9-6.77l1.68,6.88-1.03,29.28c-.14.46-.28.94-.42,1.44-2.05,7.08-4.04,10.4-5.97,13.61-1.97,3.28-4.01,6.68-6.1,13.91-2.1,7.25-2.04,11.25-1.98,15.13.06,3.96.11,7.69-1.93,14.76-2.07,7.16-3.02,10.83-3.94,14.38-.67,2.6-1.38,5.3-2.51,9.36l-13.16-8.57ZM820.49,149.4c1.2-4.28,1.93-7.08,2.63-9.77.92-3.54,1.87-7.2,3.93-14.35,2.1-7.25,2.04-11.25,1.98-15.13-.06-3.96-.11-7.69,1.93-14.76,2.05-7.08,4.04-10.4,5.97-13.61,1.67-2.78,3.39-5.64,5.14-10.84l-.11,3.01,10.73,10.04c-.04.51-.07,1.01-.1,1.5-.24,3.71-.48,7.54-2.53,14.63-2.03,7.01-4.72,9.93-7.57,13.02-2.82,3.06-5.74,6.23-7.86,13.53-2.08,7.2-2.57,11.03-3.04,14.73-.44,3.46-.91,7.06-2.7,13.46l-8.42-5.48ZM835.32,159.08l-.08-.08-5.22-3.4c1.91-6.73,2.39-10.45,2.84-14.03.46-3.65.94-7.43,3-14.54,2.03-7.01,4.72-9.93,7.57-13.02,2.82-3.06,5.74-6.23,7.86-13.53,2.09-7.22,2.34-11.13,2.58-14.9,0-.15.02-.31.03-.47l8.19,7.66c-.8,2.36-1.7,5.22-2.86,9.21-2.06,7.14-3.32,10.71-4.54,14.16-1.22,3.47-2.49,7.05-4.57,14.23-2.08,7.19-2.67,10.99-3.24,14.65-.56,3.63-1.15,7.38-3.21,14.5-.64,2.23-1.31,4.04-1.98,5.6l-6.37-6.04ZM842.66,166.05c.76-1.71,1.51-3.7,2.23-6.17,2.08-7.19,2.67-10.99,3.24-14.66.56-3.63,1.15-7.38,3.21-14.5,2.06-7.14,3.32-10.71,4.54-14.16,1.22-3.47,2.49-7.05,4.56-14.23,1.06-3.66,1.91-6.37,2.66-8.62l6.3,5.89c-.39,1.24-.81,2.6-1.26,4.16-2.09,7.24-2.11,11.22-2.13,15.07-.02,3.94-.04,7.66-2.08,14.73-2.06,7.1-3.72,10.54-5.33,13.86-1.63,3.37-3.32,6.85-5.41,14.05-1.59,5.51-2.22,9.05-2.62,12.07l-7.91-7.5ZM864.44,186.7l-12.72-12.07c.39-3.19.96-6.81,2.7-12.8,2.05-7.1,3.72-10.54,5.33-13.85,1.63-3.37,3.32-6.85,5.41-14.06,2.09-7.24,2.11-11.22,2.13-15.07.02-3.94.04-7.66,2.08-14.73.38-1.3.73-2.47,1.07-3.55l6.22,5.81,7.36,12.51c-.37,1.41-.69,2.67-1,3.91-.9,3.55-1.83,7.22-3.89,14.36-2.06,7.11-3.7,10.55-5.29,13.87-1.61,3.37-3.28,6.86-5.36,14.06-2.09,7.21-2.54,11.04-2.98,14.76-.24,2.04-.51,4.17-1.04,6.84ZM869.98,191.96l-4.46-4.23c.65-3.11.94-5.45,1.21-7.73.43-3.66.88-7.45,2.94-14.55,2.06-7.11,3.7-10.54,5.29-13.87,1.61-3.37,3.28-6.86,5.36-14.06,2.07-7.17,3-10.84,3.91-14.4.22-.86.45-1.75.68-2.67l6.88,11.69c-.52,2.01-1.17,4.36-2.02,7.32-2.1,7.25-1.97,11.28-1.84,15.18.13,3.97.25,7.73-1.79,14.79-2.03,7.01-4.71,9.94-7.55,13.03-2.51,2.74-5.09,5.6-7.12,11.37l-1.47-1.86ZM872.37,194.97c1.97-6.04,4.49-8.79,7.14-11.67,2.81-3.07,5.73-6.24,7.84-13.54,2.1-7.25,1.97-11.28,1.84-15.18-.13-3.97-.25-7.73,1.79-14.79.69-2.4,1.25-4.4,1.71-6.14l7.94,13.49,1.02.94c-1.04,3.77-1.69,6.36-2.32,8.85-.89,3.55-1.82,7.22-3.89,14.37-2.09,7.21-2.49,11.06-2.88,14.79-.39,3.67-.79,7.47-2.84,14.57-1.46,5.03-2.93,8.05-4.46,10.57l-12.88-16.28ZM886.09,212.3c1.63-2.64,3.27-5.87,4.84-11.28,2.09-7.21,2.49-11.06,2.88-14.79.39-3.67.79-7.47,2.84-14.57,2.07-7.17,3-10.85,3.9-14.41.59-2.35,1.2-4.76,2.14-8.19l10.94,10.15c-.1.67-.19,1.33-.28,1.98-.49,3.65-1.01,7.42-3.06,14.53-2.05,7.1-3.81,10.5-5.52,13.78-1.73,3.34-3.52,6.8-5.61,14.01-2.07,7.17-3,10.85-3.89,14.41-.32,1.27-.64,2.56-1.02,4.02l-.4.16-7.75-9.79ZM851.06,271.29l2.64-3.63c.45.02.9.04,1.33.06l-3.96,3.57ZM856.36,266.52c-.57-.02-1.15-.05-1.78-.08l8.12-11.19c.72.11,1.42.22,2.11.34,1.01.16,2.04.33,3.14.49l-11.58,10.44ZM869.96,254.26l-.8.72c-1.51-.21-2.85-.43-4.16-.64-.49-.08-.98-.16-1.47-.24l1.12-1.54,9.45-9.41c1.62.12,3.44.24,5.59.35,4.41.24,7.54.12,10.15-.14l-19.88,10.9ZM907.89,233.46l-15.01,8.23c-3.21.49-6.88.89-13.12.55-1.67-.09-3.13-.18-4.46-.28l11.6-11.55c3.1.26,5.37.53,7.58.79,3.58.43,7.3.87,14.45,1.27l-1.04.98ZM910.19,231.28c-.25-.01-.49-.03-.75-.04-7.42-.41-11.18-.86-14.81-1.29-1.96-.23-3.97-.47-6.56-.71l4.59-4.56.37.47,6.4-2.57c2.49.32,5.5.61,9.67.84,4.13.23,7.15.06,9.66-.27l-8.58,8.13ZM920.37,221.63c-2.82.5-6.12.81-11.2.53-2.93-.16-5.27-.35-7.27-.57l32.09-12.88-13.62,12.91ZM940.23,203.48l-7.72,3.1c1.24-4.25,2.05-6.99,2.85-9.68,1-3.36,2.01-6.76,3.85-13.12l9.57,10.68c-.72,1.83-1.38,3.36-2.04,4.84-1.12,2.54-2.28,5.18-3.66,9.34l-2.85-5.16ZM943.92,210.16c1.53-4.77,2.77-7.62,3.98-10.35.59-1.34,1.19-2.7,1.83-4.3l5.83,6.5c-.8,3.33-1.69,6.97-3.6,13.59-.7,2.42-1.2,4.44-1.59,6.21l-6.45-11.66ZM951.31,223.51c.4-2.08.98-4.51,1.86-7.56,1.76-6.09,2.66-9.67,3.41-12.8l14.32,15.98c-.1.36-.19.69-.3,1.06-2.06,7.13-3.45,10.65-4.78,14.06-1.01,2.57-2.05,5.23-3.37,9.4l-11.14-20.15ZM963.3,245.2c1.49-4.81,2.62-7.7,3.7-10.47,1.35-3.44,2.74-6.99,4.82-14.17.03-.1.05-.2.08-.3l7.45,8.32c-1.02,3.44-1.75,5.82-2.46,8.15-1.07,3.5-2.18,7.13-4.26,14.29-.92,3.19-1.45,5.73-1.76,7.92l-7.59-13.73ZM972.12,261.15l-.18-.33c.25-2.51.77-5.47,1.92-9.46,2.07-7.15,3.18-10.77,4.25-14.27.66-2.15,1.34-4.37,2.24-7.41l10.03,11.19c.33,3.75.51,7.51-1.39,14.07-1.91,6.61-3.06,10.18-4.12,13.43l-12.75-7.22ZM989.61,271.06l-3.61-2.05c1.09-3.33,2.25-6.92,4.21-13.72,1.68-5.79,1.77-9.57,1.56-12.88l9.47,10.57-11.63,18.07ZM992.69,270.95l12.34-19.18c-.56,2.04-1.15,4.26-1.8,6.78-1.11,4.28-1.96,7.82-2.65,10.88l-7.9,1.52ZM1022.47,265.23l-20.53,3.94c.67-2.94,1.47-6.28,2.51-10.31,1.09-4.23,2.03-7.69,2.88-10.68l13.8-21.44,15.85-25.15c-.71,3.63-1.67,7.92-3.08,13.41-3.11,12.01-4.32,18.24-5.49,24.25-1.17,6-2.38,12.2-5.47,24.18-.16.62-.31,1.21-.46,1.79ZM1023.84,264.96c.1-.4.2-.79.31-1.21,3.11-12.01,4.32-18.23,5.49-24.25,1.17-6,2.38-12.2,5.47-24.18,1.86-7.19,2.93-12.33,3.68-16.61l9.36-14.86,19.55-32.4c-.96,4.85-2.2,10.58-4.53,19.58-3.1,11.98-5.02,17.95-6.88,23.73-1.87,5.8-3.79,11.79-6.9,23.81-3.08,11.93-5.98,17.57-8.77,23.03-2.7,5.28-5.5,10.75-8.46,21.77l-8.33,1.6ZM1049.65,260l-16.1,3.09c2.87-10.48,5.58-15.8,8.2-20.92,2.83-5.52,5.75-11.23,8.87-23.29,3.1-11.98,5.02-17.95,6.88-23.73,1.87-5.8,3.79-11.79,6.9-23.81,2.9-11.2,4.12-17.37,5.2-23.04l4.6-7.63,8.16,9.3c-2.48,5.53-5.06,11.34-8.13,23.22-3.1,11.99-4.73,18.08-6.32,23.96-1.58,5.87-3.21,11.95-6.32,23.94-3.12,12.04-3.68,18.48-4.22,24.72-.43,4.99-.9,10.16-2.66,18.22l-5.07-4.03ZM1055.82,264.9c1.91-8.49,2.39-13.83,2.84-18.98.53-6.18,1.09-12.57,4.17-24.52,3.1-11.98,4.73-18.06,6.32-23.93,1.58-5.88,3.21-11.96,6.32-23.97,2.95-11.4,5.43-17.15,7.82-22.49l7.02,8.01c-1.52,4.06-3.15,9.06-5.03,16.32-3.12,12.07-3.21,18.67-3.31,25.06-.09,6.32-.19,12.83-3.27,24.75-3.09,11.99-4.79,18.05-6.44,23.9-1.65,5.84-3.36,11.88-6.44,23.8l-10-7.94ZM1066.89,273.7c.04-.14.07-.28.11-.43,3.1-11.98,4.81-18.03,6.45-23.9,1.64-5.85,3.35-11.92,6.46-23.91,3.12-12.07,3.23-18.67,3.32-25.06.08-6.32.19-12.83,3.26-24.77,1.76-6.81,3.31-11.62,4.76-15.54l11.37,12.97c-.47,1.81-.98,3.76-1.54,5.93-3.12,12.06-3.31,18.64-3.48,24.98-.17,6.3-.36,12.8-3.44,24.72-3.09,11.98-5,17.97-6.84,23.74-1.85,5.82-3.75,11.81-6.86,23.82-.65,2.49-1.28,4.71-1.89,6.72l-11.67-9.27ZM1090.01,292.06l-10.37-8.23c.66-2.15,1.34-4.52,2.05-7.24,3.09-11.98,5-17.97,6.84-23.76,1.85-5.8,3.76-11.79,6.86-23.82,3.12-12.06,3.3-18.64,3.48-24.98.19-6.28.36-12.79,3.44-24.72.47-1.84.91-3.5,1.32-5.09l.48.55,8.48,8.69c-2.66,10.77-2.99,16.93-3.33,22.86-.34,6.24-.7,12.68-3.79,24.61-3.1,12.01-4.38,18.22-5.6,24.21-1.23,5.99-2.5,12.18-5.59,24.16-1.4,5.4-2.55,9.56-3.58,13.05l-.7-.29ZM1091.88,292.83c1.03-3.53,2.21-7.75,3.63-13.22,3.1-12.01,4.38-18.22,5.6-24.21,1.23-5.99,2.48-12.18,5.59-24.14,3.12-12.06,3.48-18.57,3.83-24.87.31-5.74.64-11.65,3.1-21.85l15.1,15.48c-1.25,3.87-2.34,6.89-3.42,9.84-2.09,5.73-4.25,11.65-7.36,23.68-3.1,11.96-5.38,17.81-7.59,23.48-2.23,5.69-4.53,11.58-7.63,23.62-1.67,6.45-2.67,11.24-3.38,15.27l-7.48-3.07ZM1100.57,296.39c.69-4.06,1.7-8.9,3.4-15.45,3.09-11.95,5.37-17.81,7.59-23.48,2.22-5.69,4.52-11.58,7.62-23.6,3.1-11.96,5.24-17.88,7.34-23.57,1.02-2.8,2.06-5.67,3.21-9.26l3.76,3.86.12.12,4.59,2.71c-.01,1.78.02,3.49.08,5.15.2,6.39.42,13-2.65,24.92-3.09,11.96-5.26,17.86-7.36,23.55-2.09,5.73-4.27,11.65-7.37,23.68-2.08,8.05-3,13.61-3.53,18.27l-16.8-6.9ZM1118.59,303.8c.52-4.69,1.41-10.27,3.52-18.45,3.1-11.98,5.26-17.86,7.36-23.57,2.11-5.73,4.28-11.65,7.39-23.68,3.12-12.09,2.9-18.79,2.68-25.28-.05-1.41-.08-2.87-.09-4.37l14.4,8.5c-2.99,5.21-6.06,10.85-9.06,22.38-3.1,12.04-3.93,18.4-4.7,24.55-.79,6.11-1.6,12.43-4.69,24.38-2.46,9.53-4.06,15.3-5.45,20.2l-11.37-4.67ZM1144.51,318.48l-8.01-7.32-5.38-2.21c1.4-4.94,3.01-10.74,5.5-20.36,3.1-12.04,3.93-18.39,4.7-24.55.79-6.1,1.6-12.43,4.69-24.38,2.94-11.36,5.97-16.92,8.92-22.06l10.22,6.03c-1.9,4.52-3.91,10-6.19,18.85-3.12,12.06-3.54,18.54-3.96,24.83-.4,6.21-.82,12.65-3.91,24.58-3.1,12.01-4.56,18.14-5.99,24.08-.2.82-.4,1.65-.61,2.5ZM1145.58,319.45c.26-1.08.51-2.15.76-3.18,1.43-5.93,2.89-12.06,5.99-24.05,3.12-12.06,3.54-18.56,3.96-24.83.4-6.22.82-12.65,3.91-24.59,2.24-8.67,4.21-14.07,6.07-18.51l4.57,2.7,11.16,13.39c-.49,2.24-1.08,4.71-1.79,7.48-3.07,11.9-6.52,17.35-9.84,22.64-3.38,5.35-6.87,10.89-9.99,22.98-3.12,12.03-4.1,18.33-5.04,24.42-.43,2.78-.89,5.65-1.55,9.04l-8.2-7.5ZM1154.89,327.96c.73-3.77,1.22-6.85,1.69-9.85.95-6.07,1.92-12.34,5.03-24.3,3.07-11.9,6.5-17.36,9.84-22.64,3.37-5.35,6.86-10.91,9.99-23,.61-2.4,1.14-4.57,1.59-6.56l6.76,8.12c-3.08,11.87-4.85,17.87-6.58,23.66-1.74,5.83-3.54,11.87-6.64,23.88s-4.21,18.28-5.26,24.33c-.85,4.88-1.74,9.94-3.68,18l-12.73-11.64ZM1173.99,345.42l-5.3-4.85c2.07-8.53,2.98-13.71,3.86-18.76,1.04-6.02,2.14-12.26,5.23-24.24,3.1-11.98,4.89-18,6.63-23.82,1.69-5.66,3.43-11.53,6.37-22.84l6.61,7.94c-1.55,7.4-1.94,12.32-2.31,17.09-.5,6.19-.99,12.6-4.08,24.55-3.09,11.96-5.31,17.84-7.45,23.52-2.09,5.53-4.25,11.26-7.2,22.54l-2.36-1.13ZM1191.41,353.79l-13.91-6.68c2.98-11.36,5.15-17.1,7.23-22.64,2.16-5.73,4.39-11.62,7.49-23.66,3.12-12.04,3.62-18.51,4.11-24.77.35-4.52.72-9.19,2.09-16l15.2,16.69c-.27,1.16-.54,2.29-.8,3.39-1.4,5.93-2.86,12.07-5.94,24.05-3.1,11.96-5.29,17.84-7.42,23.54-2.14,5.73-4.34,11.64-7.45,23.66-.22.84-.42,1.63-.62,2.42ZM1192.58,354.35c.22-.86.44-1.74.68-2.67,3.09-11.96,5.29-17.84,7.4-23.54,2.14-5.71,4.34-11.62,7.46-23.66,3.1-11.99,4.55-18.14,5.94-24.07.2-.84.4-1.69.6-2.55l8.17,8.97c-1.09,4.81-2.45,10.52-4.78,19.53-3.12,12.06-3.47,18.57-3.8,24.88-.34,6.24-.68,12.69-3.77,24.63-.6,2.31-1.21,4.35-1.83,6.22l-16.09-7.73ZM1290.45,222.8c-1.77,3.8-3.63,8.29-5.71,16.07-2.55,9.53-3.9,14.36-5.2,19.03-1.3,4.67-2.65,9.51-5.2,19.04-2.56,9.57-3.27,14.61-3.95,19.49-.68,4.84-1.37,9.84-3.92,19.33-2.55,9.51-4.26,14.21-5.93,18.77-1.67,4.58-3.4,9.31-5.96,18.87-2.56,9.55-3.61,14.47-4.64,19.24-.83,3.86-1.69,7.86-3.35,14.31l-12.85-9.25c.78-3.26,1.34-5.83,1.88-8.34,1.03-4.75,2.09-9.65,4.64-19.17,2.56-9.54,3.7-14.44,4.81-19.17,1.11-4.73,2.25-9.61,4.8-19.13,2.53-9.46,5.02-13.91,7.42-18.22,2.44-4.37,4.97-8.9,7.54-18.5,2.57-9.58,3.19-14.64,3.79-19.55.6-4.86,1.21-9.88,3.76-19.37,2.56-9.54,3.72-14.43,4.85-19.16.73-3.07,1.49-6.23,2.62-10.68l10.56,16.4ZM1278.95,204.95c-1.31,5.06-2.13,8.5-2.92,11.83-1.13,4.72-2.29,9.6-4.84,19.13-2.57,9.57-3.19,14.64-3.79,19.55-.6,4.86-1.21,9.88-3.76,19.37-2.53,9.46-5.02,13.91-7.42,18.22-2.44,4.37-4.97,8.9-7.54,18.5-2.56,9.54-3.7,14.44-4.81,19.17-1.11,4.73-2.25,9.61-4.8,19.13-2.56,9.55-3.63,14.47-4.66,19.23-.51,2.37-1.05,4.81-1.76,7.81l-13.38-9.64c.59-2.71,1.31-5.75,2.23-9.33,3.1-12,4.55-18.14,5.94-24.08,1.39-5.93,2.84-12.07,5.94-24.06,3.09-11.96,5.41-17.8,7.66-23.45,2.26-5.69,4.59-11.56,7.7-23.6,3.11-12.02,4.13-18.31,5.11-24.39.98-6.05,2-12.31,5.09-24.28,3.09-11.95,5.48-17.77,7.8-23.39.39-.94.78-1.91,1.18-2.89l11.04,17.14ZM1266.74,185.98l.33.52c-.51,1.28-1.01,2.51-1.51,3.71-2.33,5.66-4.75,11.52-7.86,23.56-3.11,12.02-4.13,18.31-5.11,24.39-.98,6.05-2,12.31-5.09,24.28-3.09,11.96-5.41,17.8-7.66,23.45-2.26,5.68-4.59,11.56-7.7,23.6-3.1,12-4.55,18.14-5.94,24.08-1.4,5.93-2.84,12.07-5.94,24.06-.89,3.43-1.58,6.37-2.16,9l-8.29-3.98c.64-1.93,1.28-4.06,1.9-6.45,3.12-12.05,3.47-18.57,3.8-24.87.33-6.24.68-12.69,3.77-24.63,2.2-8.49,3.53-14.06,4.59-18.71l1.86,2.04-1.31-4.45c.23-1.03.46-2.03.68-3.02,1.33-5.95,2.7-12.11,5.8-24.09,3.09-11.96,5.24-17.87,7.31-23.57,2.08-5.74,4.23-11.67,7.34-23.69,3.11-12.02,4.14-18.31,5.13-24.39.74-4.53,1.52-9.22,3.15-16.3l12.9,15.47ZM1252.82,169.29c-1.79,7.64-2.61,12.56-3.39,17.31-.99,6.05-2.02,12.31-5.11,24.27-3.09,11.97-5.24,17.87-7.31,23.58-2.08,5.74-4.23,11.67-7.34,23.69-3.1,12-4.48,18.17-5.81,24.13-.06.27-.12.54-.18.81l-5.63-19.05c.57-2.28,1.22-4.81,1.97-7.68,3.09-11.98,4.78-18.05,6.39-23.9,1.63-5.88,3.32-11.95,6.41-23.94,3.1-11.96,5.11-17.92,7.04-23.68,1.91-5.63,3.87-11.44,6.84-22.87l6.11,7.33ZM1245.71,160.77c-3.1,11.96-5.1,17.92-7.04,23.66-1.96,5.79-3.96,11.75-7.08,23.77-3.09,11.98-4.76,18.05-6.39,23.91-1.63,5.87-3.3,11.93-6.41,23.93-.52,2.03-1,3.89-1.44,5.61l-4.72-15.98-.06-.2-7.44-10.66c.79-2.58,1.53-4.82,2.26-7.02,1.92-5.77,3.91-11.76,7.01-23.77,3.1-12.01,4.39-18.2,5.63-24.19,1.24-5.97,2.53-12.17,5.63-24.14,2.89-11.16,5.41-16.88,7.86-22.1l-1.19,11.13,13.38,16.05ZM1251.39,60.19c-.56,2.18-1.05,4.16-1.49,6l-13.16,37.38-2.8,26.1c-.36.78-.71,1.55-1.06,2.3-2.62,5.57-5.32,11.34-8.44,23.4-3.1,12.01-4.39,18.2-5.63,24.19-1.24,5.97-2.53,12.17-5.63,24.14-3.09,11.96-5.07,17.92-6.98,23.69-.64,1.92-1.29,3.89-1.99,6.08l-6.09-8.73c1.64-5.45,3.41-11.44,6.28-22.55,3.12-12.06,3.44-18.59,3.75-24.9.31-6.24.64-12.71,3.72-24.63,3.07-11.93,6.15-17.52,9.11-22.92,2.99-5.46,6.1-11.13,9.22-23.2,3.1-12.03,4-18.36,4.86-24.49.85-6.08,1.74-12.38,4.84-24.35,3.02-11.71,3.85-18.05,4.6-24.06l10.71-10.64-3.81,37.17Z"/>
      <polygon class="cls-1" points="186.25 197.03 169.86 181.46 168.99 182.38 185.21 197.79 194.82 217.86 194.87 217.97 211.45 233.41 212.31 232.49 195.91 217.21 186.25 197.03"/>
      <polygon class="cls-1" points="957.68 77.09 957.75 77.15 998.32 90.58 1032.29 116.35 1033.06 115.34 999 89.51 998.92 89.45 958.33 76.01 923.77 51.37 923.69 51.31 883.05 37.8 882.65 39 923.11 52.45 957.68 77.09"/>
      <polygon class="cls-1" points="440.15 105.37 476.25 122.13 476.78 120.99 440.89 104.32 413.78 76.75 386.89 48.71 385.98 49.59 412.87 77.63 440.15 105.37"/>
      <polygon class="cls-1" points="947.41 245.01 946.16 245.24 950.44 268.78 972.12 293.26 973.07 292.42 951.62 268.2 947.41 245.01"/>
    </g>
  </g>
</svg>