<?xml version="1.0" encoding="UTF-8"?>
<svg id="Layer_2" data-name="Layer 2" xmlns="http://www.w3.org/2000/svg" viewBox="0 0 903.74 903.74">
  <defs>
    <style>
      .cls-1 {
        fill: #a34d2f;
      }

      .cls-2 {
        fill: #fbf4e9;
      }
    </style>
  </defs>
  <g id="Layer_1-2" data-name="Layer 1">
    <rect class="cls-2" width="903.74" height="903.74"/>
    <g>
      <polygon class="cls-1" points="501.2 350.03 501.2 388.64 534.14 388.64 534.14 394.02 501.2 394.02 501.35 444.23 441.09 444.23 443.36 438.87 486.54 438.87 486.39 344.65 501.2 344.65 501.2 344.67 539.6 344.67 539.6 350.03 501.2 350.03"/>
      <polygon class="cls-1" points="383.54 438.87 429.9 438.87 427.64 444.23 368.75 444.23 368.75 344.65 383.54 344.65 383.54 438.87"/>
      <rect class="cls-1" x="403.6" y="365.77" width="14.8" height="63.77"/>
      <polygon class="cls-1" points="488.56 323.39 457.52 396.51 449.63 415.12 439.55 438.87 437.26 444.23 416.23 493.77 410.42 493.77 431.45 444.23 433.71 438.87 446.65 408.42 408.79 323.39 424.97 323.39 454.55 389.8 482.73 323.39 488.56 323.39"/>
    </g>
    <path class="cls-1" d="M446.81,562.8c-61.77,0-118.97-35.92-145.73-91.52-7.51-15.6-10.72-26.08-15.12-41.48-3.62-12.69-12.06-17.36-20.03-20.97-3.1,4.16-7.42,7.09-11.52,7.74-4.94.78-9.44-.4-13.78-1.55-.95-.25-1.9-.5-2.83-.72-.14,3.43-2.73,8.07-5.97,10.53-2.34,1.77-4.78,2.29-7.05,1.47-2.5-.89-4.08-3.14-4.12-5.87-.05-3.34,2.21-6.38,5.74-7.76,3.14-1.22,6.21-1.15,9.34-.6-1.54-5.14-8.34-9.49-12.84-10.29-6.76-1.21-13.72.22-21.27,4.36-5.18,2.84-10.46,2.62-14.17,1-9.45,5.54-24.72,6.81-38.47,7.32-10.77.38-24.29-2.97-39.93-6.88-4.59-1.15-9.33-2.33-14.2-3.47-24.72-5.76-50.05-1.5-58.91,9.93-3.22,4.15-4.11,8.3-2.43,11.39,1.2,2.21,3.62,3.58,6.05,3.36,2.48-.2,4.47-1.96,5.45-4.82.16-.46.66-.7,1.12-.54s.7.66.54,1.12c-1.22,3.55-3.76,5.74-6.97,6-3.09.26-6.22-1.46-7.74-4.28-2.02-3.73-1.08-8.58,2.59-13.31,9.41-12.13,34.94-16.57,60.7-10.56,4.87,1.14,9.63,2.33,14.22,3.48,15.51,3.88,28.89,7.25,39.44,6.83,13.08-.49,27.53-1.66,36.71-6.56-.11-.08-.23-.15-.34-.24-2.85-2.07-4.15-5.05-3.56-8.19.61-3.25,3.3-4.82,5.69-4.92,2.33-.1,5.07,1.16,5.93,4.22.7,2.49-.35,6.07-4.1,8.92,3.17,1.03,7.36.94,11.53-1.35,7.92-4.34,15.25-5.83,22.42-4.54,5.32.95,13.18,6.16,14.43,12.41,1.14.26,2.28.56,3.44.87,4.16,1.1,8.47,2.23,13.06,1.51,3.53-.56,7.31-3.13,10.12-6.75-.16-.07-.31-.14-.47-.21-5.97-2.65-11.61-5.16-13.84-10.63-1.3-3.2-.98-6.87.87-9.81,1.64-2.62,4.19-4.22,6.99-4.39,6.66-.4,12.03,4.74,12.49,11.99.28,4.46-1.08,8.75-3.35,12.33,7.94,3.63,16.93,8.72,20.71,21.96,4.37,15.31,7.56,25.73,15.01,41.21,26.46,54.99,83.04,90.52,144.14,90.52,84.21,0,153.12-66.75,156.6-150.12-3.42.82-6.74,2.29-9.55,4.09-.35.22-.69.45-1.02.67-2.24,35.97-14.95,69.37-36.37,95.03-24.79,29.71-59.39,46.07-97.41,46.07s-80.27-17.08-111.57-46.87c-31.64-30.11-49.79-69.74-49.79-108.71,0-83.95,68.3-152.26,152.26-152.26s155.35,72.59,155.35,155.35c0,1.5-.02,3-.06,4.48,1.72-.27,3.45-.38,5.13-.28,5.29-6.74,15.6-9.79,23.92-8.78,4.33.52,8.21,1.82,11.96,3.08,3.12,1.04,6.15,2.06,9.24,2.55-.05-6.06.15-12.67,4.22-18.45,2.9-4.12,7.59-6.02,11.94-4.85,3.49.94,5.77,3.64,6.1,7.23.84,9.22-6.51,15.95-13.85,17.6-2.31.52-4.51.62-6.63.46v1.08c3.56.42,7.11,1.17,10.31,1.85,1.12.24,2.19.46,3.2.66l3.54.7c17.62,3.49,29.26,5.79,56.13,3.63,7.75-.63,14.74-2.7,22.13-4.88,10.97-3.25,23.41-6.92,40.67-6.26,15.54.6,29.17,6.72,41.19,12.12,5.38,2.41,10.46,4.69,15.01,6.11,7.44,2.33,14.06,1.35,18.15-2.69,2.91-2.87,4.12-6.96,3.08-10.42-.14-.46.12-.95.59-1.09.47-.14.95.13,1.09.59,1.22,4.07-.17,8.85-3.53,12.18-4.56,4.51-11.82,5.65-19.91,3.12-4.65-1.45-9.78-3.75-15.2-6.19-11.88-5.33-25.34-11.37-40.54-11.96-16.99-.67-28.73,2.82-40.1,6.19-7.49,2.22-14.56,4.31-22.49,4.95-27.11,2.19-39.49-.26-56.61-3.66l-3.54-.7c-1.01-.2-2.09-.43-3.22-.67-3.09-.65-6.54-1.38-9.97-1.8-.2,6.7-1.65,17.47-10.49,18.88-3.96.63-7.57-.74-9.64-3.68-1.99-2.81-2.1-6.45-.31-9.73,3.77-6.9,11.13-8.06,18.71-7.42v-1.11c-3.31-.49-6.51-1.56-9.82-2.67-3.67-1.23-7.46-2.5-11.61-3-7.28-.88-16.49,1.68-21.59,7.27,2.28.38,4.45,1.16,6.4,2.44,3.28,2.15,4.97,5.77,4.42,9.46-.45,3-2.37,5.34-5.03,6.12-3.37.99-6.7.1-8.9-2.36-2.67-2.99-3.16-7.61-1.28-12.08.31-.73.67-1.43,1.07-2.1-1.32,0-2.67.11-4.01.34-3.3,84.51-73.08,152.24-158.38,152.24h.02ZM449.96,250.71c-82.99,0-150.5,67.51-150.5,150.5,0,38.5,17.95,77.66,49.24,107.44,30.98,29.48,71.2,46.39,110.36,46.39s71.61-16.14,96.06-45.44c20.88-25.03,33.4-57.51,35.87-92.56-7.66,6-10.18,13.56-13.57,27.69-7.94,33.12-25.23,58.89-51.37,76.6-23.21,15.73-52.3,24.04-84.11,24.04-73.12,0-132.6-64.62-132.6-144.05,0-38.44,12.97-74.53,36.51-101.62,24.39-28.06,58.05-43.51,94.79-43.51s76.62,16.14,105.96,44.28c29.62,28.41,46.6,66.2,46.6,103.69,0,3.12-.08,6.23-.23,9.32,3.08-1.96,6.74-3.54,10.51-4.38.05-1.6.07-3.2.07-4.82,0-81.82-71.77-153.59-153.59-153.59v.02ZM440.63,257.96c-36.22,0-69.42,15.24-93.46,42.9-23.26,26.77-36.08,62.45-36.08,100.46,0,78.46,58.7,142.29,130.85,142.29,31.46,0,60.21-8.21,83.13-23.74,25.77-17.46,42.81-42.88,50.64-75.56,3.59-14.95,6.4-23.1,15.43-29.59.2-3.5.3-7.02.3-10.56,0-37.01-16.79-74.34-46.06-102.42-29.02-27.83-67.19-43.79-104.74-43.79h-.01ZM652.16,409.87c-5.79,0-11.02,1.54-13.81,6.65-1.46,2.68-1.39,5.62.2,7.87,1.68,2.38,4.64,3.48,7.93,2.96,7.22-1.15,8.78-9.7,9.01-17.33-1.12-.09-2.23-.15-3.32-.15h-.01ZM611.22,410.33c-.59.84-1.09,1.73-1.48,2.67-1.61,3.83-1.24,7.75.97,10.23,1.77,1.98,4.36,2.65,7.09,1.85,2.02-.59,3.43-2.35,3.78-4.69.35-2.35-.42-5.62-3.65-7.74-2.02-1.32-4.31-2.06-6.72-2.32h0ZM231.79,413.45c-1.6,0-3.18.24-4.76.85-3.45,1.34-4.65,4.03-4.62,6.09.03,2.01,1.13,3.6,2.95,4.25,2.14.76,4.11-.24,5.4-1.21,3.14-2.38,5.32-6.9,5.28-9.51-1.44-.28-2.85-.47-4.25-.47ZM258.53,384.78c-.21,0-.41,0-.62.02-2.22.14-4.27,1.44-5.61,3.57-1.55,2.46-1.82,5.53-.73,8.21,1.97,4.82,7.04,7.08,12.93,9.69.26.11.53.23.79.35,2.17-3.33,3.51-7.36,3.25-11.47-.38-6.02-4.64-10.37-10.01-10.37h0ZM657.25,405.58c2.03.18,4.11.09,6.27-.4,6.61-1.49,13.24-7.51,12.49-15.73-.26-2.83-2.05-4.95-4.8-5.69-2.76-.74-7.04-.09-10.05,4.17-3.83,5.42-3.96,11.85-3.9,17.65h-.01ZM187.69,394.54h-.19c-1.57.07-3.58,1.03-4.04,3.49-.46,2.44.58,4.79,2.86,6.44.32.23.66.45,1.03.65,3.77-2.45,4.89-5.58,4.31-7.64-.62-2.19-2.48-2.95-3.97-2.95h0Z"/>
    <g>
      <path class="cls-1" d="M278.78,599.75h2.81v17.24h10.66v2.45h-13.47v-19.68h0Z"/>
      <path class="cls-1" d="M296.88,599.75h2.81v19.68h-2.81v-19.68Z"/>
      <path class="cls-1" d="M323.91,599.75l-8.63,19.68h-2.78l-8.66-19.68h3.04l7.09,16.17,7.14-16.17h2.81-.01Z"/>
      <path class="cls-1" d="M327.81,599.75h2.81v19.68h-2.81v-19.68Z"/>
      <path class="cls-1" d="M354.85,599.75v19.68h-2.31l-11.81-14.68v14.68h-2.81v-19.68h2.31l11.81,14.68v-14.68h2.81Z"/>
      <path class="cls-1" d="M375.79,609.48h2.7v7.68c-1.97,1.66-4.7,2.5-7.45,2.5-6.05,0-10.49-4.25-10.49-10.07s4.44-10.07,10.54-10.07c3.12,0,5.76,1.04,7.56,3.04l-1.74,1.74c-1.63-1.57-3.49-2.28-5.71-2.28-4.56,0-7.85,3.18-7.85,7.56s3.29,7.56,7.82,7.56c1.66,0,3.21-.37,4.61-1.26v-6.41h0Z"/>
      <path class="cls-1" d="M394.23,599.75h2.81v19.68h-2.81v-19.68Z"/>
      <path class="cls-1" d="M421.27,599.75v19.68h-2.31l-11.81-14.68v14.68h-2.81v-19.68h2.31l11.81,14.68v-14.68h2.81Z"/>
      <path class="cls-1" d="M445.08,612.63v6.81h-2.79v-6.86l-7.82-12.82h3.01l6.3,10.38,6.33-10.38h2.78l-7.82,12.88h.01Z"/>
      <path class="cls-1" d="M454.69,609.6c0-5.76,4.44-10.07,10.49-10.07s10.43,4.28,10.43,10.07-4.44,10.07-10.43,10.07-10.49-4.3-10.49-10.07ZM472.8,609.6c0-4.36-3.26-7.56-7.62-7.56s-7.68,3.21-7.68,7.56,3.26,7.56,7.68,7.56,7.62-3.2,7.62-7.56Z"/>
      <path class="cls-1" d="M481.14,610.95v-11.19h2.81v11.08c0,4.36,2,6.33,5.54,6.33s5.57-1.97,5.57-6.33v-11.08h2.73v11.19c0,5.71-3.12,8.72-8.32,8.72s-8.32-3.01-8.32-8.72h-.01Z"/>
      <path class="cls-1" d="M518.11,619.44l-4.24-6.05c-.39.03-.82.06-1.24.06h-4.87v5.99h-2.81v-19.68h7.68c5.12,0,8.21,2.59,8.21,6.86,0,3.04-1.57,5.23-4.33,6.21l4.67,6.61h-3.07ZM518.03,606.62c0-2.81-1.89-4.41-5.49-4.41h-4.78v8.86h4.78c3.6,0,5.49-1.63,5.49-4.44h0Z"/>
      <path class="cls-1" d="M538.57,602.2v6.86h9.87v2.42h-9.87v7.96h-2.81v-19.68h13.89v2.45h-11.08Z"/>
      <path class="cls-1" d="M555.01,599.75h2.81v17.24h10.66v2.45h-13.47v-19.68h0Z"/>
      <path class="cls-1" d="M571.15,609.6c0-5.76,4.44-10.07,10.49-10.07s10.43,4.28,10.43,10.07-4.44,10.07-10.43,10.07-10.49-4.3-10.49-10.07ZM589.26,609.6c0-4.36-3.26-7.56-7.62-7.56s-7.68,3.21-7.68,7.56,3.26,7.56,7.68,7.56,7.62-3.2,7.62-7.56Z"/>
      <path class="cls-1" d="M624.96,599.75l-6.58,19.68h-2.95l-5.37-15.72-5.37,15.72h-3.01l-6.58-19.68h2.9l5.32,16,5.54-16h2.58l5.43,16.08,5.43-16.08h2.67,0Z"/>
    </g>
    <g>
      <path class="cls-1" d="M356.36,653.3v1.35h-10.43v-14.75h10.11v1.35h-8.55v5.25h7.63v1.33h-7.63v5.48h8.87Z"/>
      <path class="cls-1" d="M376.4,639.9v14.75h-1.5v-11.8l-5.8,9.93h-.74l-5.79-9.86v11.74h-1.5v-14.75h1.29l6.41,10.94,6.34-10.94h1.29,0Z"/>
      <path class="cls-1" d="M394.6,650.71c0,2.51-1.85,3.94-5.54,3.94h-6.79v-14.75h6.36c3.29,0,5.18,1.39,5.18,3.79,0,1.68-.91,2.8-2.25,3.35,1.9.42,3.04,1.67,3.04,3.67h0ZM383.83,641.19v5.35h4.7c2.36,0,3.73-.91,3.73-2.68s-1.37-2.68-3.73-2.68h-4.7ZM393.04,650.59c0-1.92-1.41-2.76-4-2.76h-5.2v5.54h5.2c2.59,0,4-.84,4-2.78Z"/>
      <path class="cls-1" d="M397.92,647.27c0-4.3,3.29-7.5,7.75-7.5s7.73,3.18,7.73,7.5-3.31,7.5-7.73,7.5-7.75-3.2-7.75-7.5ZM411.85,647.27c0-3.52-2.64-6.11-6.17-6.11s-6.22,2.59-6.22,6.11,2.66,6.11,6.22,6.11,6.17-2.59,6.17-6.11Z"/>
      <path class="cls-1" d="M417.96,639.9h6c4.72,0,7.9,3.04,7.9,7.38s-3.18,7.37-7.9,7.37h-6v-14.75ZM423.88,653.3c3.92,0,6.45-2.49,6.45-6.03s-2.53-6.03-6.45-6.03h-4.36v12.05h4.36Z"/>
      <path class="cls-1" d="M436.43,639.9h1.56v14.75h-1.56v-14.75Z"/>
      <path class="cls-1" d="M454.28,653.3v1.35h-10.43v-14.75h10.11v1.35h-8.55v5.25h7.63v1.33h-7.63v5.48h8.87Z"/>
      <path class="cls-1" d="M459.01,639.9h6c4.72,0,7.9,3.04,7.9,7.38s-3.18,7.37-7.9,7.37h-6v-14.75ZM464.93,653.3c3.92,0,6.45-2.49,6.45-6.03s-2.53-6.03-6.45-6.03h-4.36v12.05h4.36Z"/>
      <path class="cls-1" d="M484.06,639.9h1.56v13.4h8.26v1.35h-9.82v-14.75Z"/>
      <path class="cls-1" d="M497.53,639.9h1.56v14.75h-1.56v-14.75Z"/>
      <path class="cls-1" d="M517.04,639.9l-6.53,14.75h-1.54l-6.53-14.75h1.68l5.65,12.81,5.69-12.81h1.58Z"/>
      <path class="cls-1" d="M520.23,639.9h1.56v14.75h-1.56v-14.75Z"/>
      <path class="cls-1" d="M539.98,639.9v14.75h-1.29l-9.48-11.97v11.97h-1.56v-14.75h1.29l9.5,11.97v-11.97h1.54Z"/>
      <path class="cls-1" d="M556.23,647.27h1.5v5.63c-1.39,1.24-3.37,1.88-5.42,1.88-4.49,0-7.77-3.18-7.77-7.5s3.29-7.5,7.8-7.5c2.23,0,4.17.72,5.48,2.13l-.97.99c-1.24-1.22-2.72-1.73-4.45-1.73-3.65,0-6.32,2.59-6.32,6.11s2.68,6.11,6.3,6.11c1.41,0,2.72-.32,3.86-1.14v-4.97h0Z"/>
    </g>
    <g>
      <path class="cls-1" d="M454.23,462.93l-3.48,9.31h-1.62l-2.69-7.06-2.72,7.06h-1.61l-3.46-9.31h1.6l2.7,7.41,2.81-7.41h1.42l2.76,7.44,2.77-7.44h1.52Z"/>
      <path class="cls-1" d="M455.64,460.05c0-.61.49-1.1,1.14-1.1s1.14.47,1.14,1.07c0,.63-.48,1.12-1.14,1.12s-1.14-.47-1.14-1.09ZM455.94,462.93h1.69v9.31h-1.69v-9.31Z"/>
      <path class="cls-1" d="M466.08,471.69c-.51.44-1.28.65-2.04.65-1.88,0-2.95-1.03-2.95-2.91v-5.11h-1.58v-1.39h1.58v-2.04h1.68v2.04h2.67v1.39h-2.67v5.04c0,1,.53,1.56,1.46,1.56.49,0,.96-.16,1.32-.44l.53,1.21h0Z"/>
      <path class="cls-1" d="M476.95,466.88v5.35h-1.68v-5.16c0-1.83-.91-2.72-2.51-2.72-1.79,0-2.95,1.07-2.95,3.09v4.79h-1.69v-13.03h1.69v5.04c.7-.9,1.86-1.4,3.28-1.4,2.26,0,3.86,1.3,3.86,4.04h0Z"/>
      <path class="cls-1" d="M492.88,469.16h-6.53l-1.35,3.07h-1.81l5.57-12.29h1.74l5.58,12.29h-1.84l-1.35-3.07h0ZM492.27,467.75l-2.65-6.02-2.65,6.02h5.3Z"/>
      <path class="cls-1" d="M496.4,471.25l.7-1.33c.79.56,2.05.97,3.27.97,1.56,0,2.21-.47,2.21-1.26,0-2.09-5.88-.28-5.88-3.99,0-1.67,1.49-2.79,3.88-2.79,1.21,0,2.58.32,3.39.84l-.72,1.33c-.84-.55-1.77-.74-2.69-.74-1.48,0-2.19.54-2.19,1.28,0,2.19,5.9.4,5.9,4.02,0,1.68-1.55,2.76-4.02,2.76-1.55,0-3.07-.47-3.84-1.09h-.01Z"/>
      <path class="cls-1" d="M515.21,466.88v5.35h-1.68v-5.16c0-1.83-.91-2.72-2.51-2.72-1.79,0-2.95,1.07-2.95,3.09v4.79h-1.69v-13.03h1.69v5.04c.7-.9,1.86-1.4,3.28-1.4,2.26,0,3.86,1.3,3.86,4.04h0Z"/>
      <path class="cls-1" d="M525.72,466.62v5.62h-1.6v-1.23c-.56.84-1.6,1.33-3.05,1.33-2.11,0-3.44-1.12-3.44-2.74,0-1.49.97-2.72,3.74-2.72h2.67v-.33c0-1.42-.83-2.25-2.49-2.25-1.11,0-2.23.39-2.95,1l-.7-1.26c.97-.77,2.35-1.19,3.85-1.19,2.55,0,3.99,1.23,3.99,3.77h-.02ZM524.03,469.39v-1.3h-2.6c-1.67,0-2.14.65-2.14,1.44,0,.93.77,1.51,2.05,1.51s2.27-.58,2.69-1.65h0Z"/>
      <path class="cls-1" d="M533.85,462.84v1.63c-.14-.02-.26-.02-.39-.02-1.81,0-2.93,1.11-2.93,3.14v4.64h-1.69v-9.31h1.62v1.56c.6-1.09,1.76-1.65,3.39-1.65h0Z"/>
      <path class="cls-1" d="M535.63,460.05c0-.61.49-1.1,1.14-1.1s1.14.47,1.14,1.07c0,.63-.48,1.12-1.14,1.12s-1.14-.47-1.14-1.09ZM535.93,462.93h1.69v9.31h-1.69v-9.31Z"/>
    </g>
  </g>
</svg>